<?xml version="1.0" encoding="UTF-8"?>
<svg xmlns="http://www.w3.org/2000/svg" xmlns:xlink="http://www.w3.org/1999/xlink" viewBox="0 0 500 500" width="500" height="500" preserveAspectRatio="xMidYMid meet" style="width: 100%; height: 100%; transform: translate3d(0px, 0px, 0px); content-visibility: visible;"><defs><clipPath id="__lottie_element_2"><rect width="500" height="500" x="0" y="0"></rect></clipPath><g id="__lottie_element_8"><g transform="matrix(1.1799999475479126,0,0,1.1799999475479126,72.96141052246094,-3.016815185546875)" opacity="1" style="display: block;"><path fill="rgb(0,0,0)" fill-opacity="1" d=" M252.76,56.76 C252.76,56.76 77.76,56.76 77.76,56.76 C66.21,56.76 56.76,66.21 56.76,77.76 C56.76,77.76 56.76,343.76 56.76,343.76 C56.76,355.31 66.21,364.76 77.76,364.76 C77.76,364.76 252.76,364.76 252.76,364.76 C264.31,364.76 273.76,355.31 273.76,343.76 C273.76,343.76 273.76,77.76 273.76,77.76 C273.76,66.21 264.31,56.76 252.76,56.76 C252.76,56.76 252.76,56.76 252.76,56.76z"></path><g opacity="1" transform="matrix(1,0,0,1,0,0)"><g opacity="1" transform="matrix(1,0,0,1,165.25999450683594,210.75999450683594)"></g></g></g></g><filter id="__lottie_element_14" filterUnits="objectBoundingBox" x="0%" y="0%" width="100%" height="100%"><feComponentTransfer in="SourceGraphic"><feFuncA type="table" tableValues="1.0 0.0"></feFuncA></feComponentTransfer></filter><mask id="__lottie_element_8_2" mask-type="alpha"><g filter="url(#__lottie_element_14)"><rect width="500" height="500" x="0" y="0" fill="#ffffff" opacity="0"></rect><use xlink:href="#__lottie_element_8"></use></g></mask><clipPath id="__lottie_element_23"><path d="M0,0 L434,0 L434,493 L0,493z"></path></clipPath><g id="__lottie_element_26"><g transform="matrix(1,0,0,1,114,40)" opacity="1" style="display: block;"><g opacity="1" transform="matrix(1,0,0,1,56.50999450683594,56.50999450683594)"><g opacity="1" transform="matrix(1,0,0,1,108.75,154.25)"><path fill="rgb(255,255,255)" fill-opacity="1" d=" M87.5,-154 C87.5,-154 -87.5,-154 -87.5,-154 C-99.05000305175781,-154 -108.5,-144.5500030517578 -108.5,-133 C-108.5,-133 -108.5,133 -108.5,133 C-108.5,144.5500030517578 -99.05000305175781,154 -87.5,154 C-87.5,154 87.5,154 87.5,154 C99.05000305175781,154 108.5,144.5500030517578 108.5,133 C108.5,133 108.5,-133 108.5,-133 C108.5,-144.5500030517578 99.05000305175781,-154 87.5,-154 C87.5,-154 87.5,-154 87.5,-154z"></path></g></g></g></g><clipPath id="__lottie_element_30"><path d="M0,0 L434,0 L434,493 L0,493z"></path></clipPath><g id="__lottie_element_35"><g transform="matrix(1,0,0,1,85.69999694824219,121.70001220703125)" opacity="1" style="display: block;"><path fill="rgb(0,0,0)" fill-opacity="1" d=" M246.06,10.06 C246.06,10.06 71.06,10.06 71.06,10.06 C59.51,10.06 50.06,19.51 50.06,31.06 C50.06,31.06 50.06,297.06 50.06,297.06 C50.06,308.61 59.51,318.06 71.06,318.06 C71.06,318.06 246.06,318.06 246.06,318.06 C257.61,318.06 267.06,308.61 267.06,297.06 C267.06,297.06 267.06,31.06 267.06,31.06 C267.06,19.51 257.61,10.06 246.06,10.06 C246.06,10.06 246.06,10.06 246.06,10.06z"></path><g opacity="1" transform="matrix(1,0,0,1,0,0)"><g opacity="1" transform="matrix(1,0,0,1,158.55999755859375,164.05999755859375)"></g></g></g></g><filter id="__lottie_element_41" filterUnits="objectBoundingBox" x="0%" y="0%" width="100%" height="100%"><feComponentTransfer in="SourceGraphic"><feFuncA type="table" tableValues="1.0 0.0"></feFuncA></feComponentTransfer></filter><mask id="__lottie_element_35_2" mask-type="alpha"><g filter="url(#__lottie_element_41)"><rect width="434" height="493" x="0" y="0" fill="#ffffff" opacity="0"></rect><use xlink:href="#__lottie_element_35"></use></g></mask><filter id="__lottie_element_51" filterUnits="objectBoundingBox" x="0%" y="0%" width="100%" height="100%"><feComponentTransfer in="SourceGraphic"><feFuncA type="table" tableValues="1.0 0.0"></feFuncA></feComponentTransfer></filter><mask id="__lottie_element_26_2" mask-type="alpha"><g filter="url(#__lottie_element_51)"><rect width="434" height="493" x="0" y="0" fill="#ffffff" opacity="0"></rect><use xlink:href="#__lottie_element_26"></use></g></mask></defs><g clip-path="url(#__lottie_element_2)"><g clip-path="url(#__lottie_element_23)" transform="matrix(1.1799999475479126,0,0,1.1799999475479126,-61.5585823059082,-50.21681213378906)" opacity="1" style="display: block;"><g mask="url(#__lottie_element_26_2)" style="display: block;"><g clip-path="url(#__lottie_element_30)" transform="matrix(1,0,0,1,0,0)" opacity="1"><g transform="matrix(1,0,0,1,114,40)" opacity="1" style="display: block;"><path fill="rgb(0,0,0)" fill-opacity="0" d=" M274,56 C274,56 274,365 274,365 C274,365 56,365 56,365 C56,365 56,56 56,56 C56,56 274,56 274,56z"></path></g><g transform="matrix(1,0,0,1,85.69999694824219,121.70001220703125)" opacity="1" style="display: block;"><g opacity="1" transform="matrix(1,0,0,1,158.55999755859375,164.05999755859375)"></g></g><g transform="matrix(1,0,0,1,85.69999694824219,121.70001220703125)" opacity="1" style="display: block;"><g opacity="1" transform="matrix(1,0,0,1,0,0)"><path fill="rgb(255,255,255)" fill-opacity="1" d=" M246.06,10.06 C246.06,10.06 71.06,10.06 71.06,10.06 C59.51,10.06 50.06,19.51 50.06,31.06 C50.06,31.06 50.06,297.06 50.06,297.06 C50.06,308.61 59.51,318.06 71.06,318.06 C71.06,318.06 246.06,318.06 246.06,318.06 C257.61,318.06 267.06,308.61 267.06,297.06 C267.06,297.06 267.06,31.06 267.06,31.06 C267.06,19.51 257.61,10.06 246.06,10.06 C246.06,10.06 246.06,10.06 246.06,10.06z"></path><g opacity="1" transform="matrix(1,0,0,1,158.55999755859375,164.05999755859375)"></g></g></g><g mask="url(#__lottie_element_35_2)" style="display: block;"><g transform="matrix(1,0,0,1,85.69999694824219,121.70001220703125)" opacity="1"><g opacity="1" transform="matrix(1,0,0,1,0,0)"><path fill="rgb(0,0,0)" fill-opacity="0" d=" M308,-30 C308,-30 308,359 308,359 C308,359 10,359 10,359 C10,359 10,-30 10,-30 C10,-30 308,-30 308,-30z"></path></g><g opacity="1" transform="matrix(1,0,0,1,0,0)"><path stroke-linecap="butt" stroke-linejoin="miter" fill-opacity="0" stroke-miterlimit="4" stroke="rgb(0,0,0)" stroke-opacity="1" stroke-width="20" d=" M246.06,10.06 C246.06,10.06 71.06,10.06 71.06,10.06 C59.51,10.06 50.06,19.51 50.06,31.06 C50.06,31.06 50.06,297.06 50.06,297.06 C50.06,308.61 59.51,318.06 71.06,318.06 C71.06,318.06 246.06,318.06 246.06,318.06 C257.61,318.06 267.06,308.61 267.06,297.06 C267.06,297.06 267.06,31.06 267.06,31.06 C267.06,19.51 257.61,10.06 246.06,10.06 C246.06,10.06 246.06,10.06 246.06,10.06z"></path><g opacity="1" transform="matrix(1,0,0,1,158.55999755859375,164.05999755859375)"></g></g></g></g></g></g></g><g transform="matrix(1.1799999475479126,0,0,1.1799999475479126,72.96141052246094,-3.016815185546875)" opacity="1" style="display: block;"><g opacity="1" transform="matrix(1,0,0,1,165.25999450683594,210.75999450683594)"></g></g><g transform="matrix(1.1799999475479126,0,0,1.1799999475479126,72.96141052246094,-3.016815185546875)" opacity="1" style="display: block;"><g opacity="1" transform="matrix(1,0,0,1,0,0)"><path fill="rgb(255,255,255)" fill-opacity="1" d=" M252.76,56.76 C252.76,56.76 77.76,56.76 77.76,56.76 C66.21,56.76 56.76,66.21 56.76,77.76 C56.76,77.76 56.76,343.76 56.76,343.76 C56.76,355.31 66.21,364.76 77.76,364.76 C77.76,364.76 252.76,364.76 252.76,364.76 C264.31,364.76 273.76,355.31 273.76,343.76 C273.76,343.76 273.76,77.76 273.76,77.76 C273.76,66.21 264.31,56.76 252.76,56.76 C252.76,56.76 252.76,56.76 252.76,56.76z"></path><g opacity="1" transform="matrix(1,0,0,1,165.25999450683594,210.75999450683594)"></g></g></g><g mask="url(#__lottie_element_8_2)" style="display: block;"><g transform="matrix(1.1799999475479126,0,0,1.1799999475479126,72.96141052246094,-3.016815185546875)" opacity="1"><g opacity="1" transform="matrix(1,0,0,1,0,0)"><path fill="rgb(0,0,0)" fill-opacity="0" d=" M322,8 C322,8 322,413 322,413 C322,413 8,413 8,413 C8,413 8,8 8,8 C8,8 322,8 322,8z"></path></g><g opacity="1" transform="matrix(1,0,0,1,0,0)"><path stroke-linecap="butt" stroke-linejoin="miter" fill-opacity="0" stroke-miterlimit="4" stroke="rgb(0,0,0)" stroke-opacity="1" stroke-width="24" d=" M252.76,56.76 C252.76,56.76 77.76,56.76 77.76,56.76 C66.21,56.76 56.76,66.21 56.76,77.76 C56.76,77.76 56.76,343.76 56.76,343.76 C56.76,355.31 66.21,364.76 77.76,364.76 C77.76,364.76 252.76,364.76 252.76,364.76 C264.31,364.76 273.76,355.31 273.76,343.76 C273.76,343.76 273.76,77.76 273.76,77.76 C273.76,66.21 264.31,56.76 252.76,56.76 C252.76,56.76 252.76,56.76 252.76,56.76z"></path><g opacity="1" transform="matrix(1,0,0,1,165.25999450683594,210.75999450683594)"></g></g></g></g><g transform="matrix(1,0,0,1,0,0)" opacity="1" style="display: block;"><g opacity="1" transform="matrix(1.1799999475479126,0,0,1.1799999475479126,72.96141052246094,-3.016815185546875)"><g opacity="1" transform="matrix(1,0,0,1,165.25999450683594,202.42999267578125)"><path fill="rgb(0,0,0)" fill-opacity="1" d=" M29.989999771118164,-9.920000076293945 C46.1349983215332,18.042999267578125 16.445999145507812,36.625999450683594 0,20.18000030517578 C-16.445999145507812,36.625999450683594 -46.13399887084961,18.042999267578125 -29.989999771118164,-9.920000076293945 C-22.55900001525879,-22.788999557495117 -7.573999881744385,-34.59000015258789 0,-36.619998931884766 C7.573999881744385,-34.59000015258789 22.559999465942383,-22.788999557495117 29.989999771118164,-9.920000076293945 C29.989999771118164,-9.920000076293945 29.989999771118164,-9.920000076293945 29.989999771118164,-9.920000076293945z"></path><path stroke-linecap="round" stroke-linejoin="round" fill-opacity="0" stroke="rgb(0,0,0)" stroke-opacity="1" stroke-width="16" d=" M29.989999771118164,-9.920000076293945 C46.1349983215332,18.042999267578125 16.445999145507812,36.625999450683594 0,20.18000030517578 C-16.445999145507812,36.625999450683594 -46.13399887084961,18.042999267578125 -29.989999771118164,-9.920000076293945 C-22.55900001525879,-22.788999557495117 -7.573999881744385,-34.59000015258789 0,-36.619998931884766 C7.573999881744385,-34.59000015258789 22.559999465942383,-22.788999557495117 29.989999771118164,-9.920000076293945 C29.989999771118164,-9.920000076293945 29.989999771118164,-9.920000076293945 29.989999771118164,-9.920000076293945z"></path></g><g opacity="1" transform="matrix(1,0,0,1,-3.44000244140625,-3.4400177001953125)"><path stroke-linecap="round" stroke-linejoin="round" fill-opacity="0" stroke="rgb(0,0,0)" stroke-opacity="1" stroke-width="16" d=" M151.89999389648438,259.1700134277344 C151.89999389648438,259.1700134277344 185.5,259.1700134277344 185.5,259.1700134277344"></path></g><g opacity="1" transform="matrix(1,0,0,1,-3.44000244140625,-3.44000244140625)"><path stroke-linecap="round" stroke-linejoin="round" fill-opacity="0" stroke="rgb(0,0,0)" stroke-opacity="1" stroke-width="16" d=" M168.6999969482422,229.88999938964844 C168.6999969482422,229.88999938964844 168.6999969482422,255.30999755859375 168.6999969482422,255.30999755859375"></path></g><g opacity="1" transform="matrix(-0.4999524652957916,-0.006893832236528397,0.006893832236528397,-0.4999524652957916,101.4454345703125,110.13024139404297)"><path fill="rgb(0,0,0)" fill-opacity="1" d=" M29.989999771118164,-9.920000076293945 C46.1349983215332,18.042999267578125 16.445999145507812,36.625999450683594 0,20.18000030517578 C-16.445999145507812,36.625999450683594 -46.13399887084961,18.042999267578125 -29.989999771118164,-9.920000076293945 C-22.55900001525879,-22.788999557495117 -7.573999881744385,-34.59000015258789 0,-36.619998931884766 C7.573999881744385,-34.59000015258789 22.559999465942383,-22.788999557495117 29.989999771118164,-9.920000076293945 C29.989999771118164,-9.920000076293945 29.989999771118164,-9.920000076293945 29.989999771118164,-9.920000076293945z"></path><path stroke-linecap="round" stroke-linejoin="round" fill-opacity="0" stroke="rgb(0,0,0)" stroke-opacity="1" stroke-width="16" d=" M29.989999771118164,-9.920000076293945 C46.1349983215332,18.042999267578125 16.445999145507812,36.625999450683594 0,20.18000030517578 C-16.445999145507812,36.625999450683594 -46.13399887084961,18.042999267578125 -29.989999771118164,-9.920000076293945 C-22.55900001525879,-22.788999557495117 -7.573999881744385,-34.59000015258789 0,-36.619998931884766 C7.573999881744385,-34.59000015258789 22.559999465942383,-22.788999557495117 29.989999771118164,-9.920000076293945 C29.989999771118164,-9.920000076293945 29.989999771118164,-9.920000076293945 29.989999771118164,-9.920000076293945z"></path></g><g opacity="1" transform="matrix(-0.4999524652957916,-0.006893832236528397,0.006893832236528397,-0.4999524652957916,184.37530517578125,214.21566772460938)"><path stroke-linecap="round" stroke-linejoin="round" fill-opacity="0" stroke="rgb(0,0,0)" stroke-opacity="1" stroke-width="16" d=" M151.89999389648438,259.1700134277344 C151.89999389648438,259.1700134277344 185.5,259.1700134277344 185.5,259.1700134277344"></path></g><g opacity="1" transform="matrix(-0.4999524652957916,-0.006893832236528397,0.006893832236528397,-0.4999524652957916,184.36953735351562,214.21145629882812)"><path stroke-linecap="round" stroke-linejoin="round" fill-opacity="0" stroke="rgb(0,0,0)" stroke-opacity="1" stroke-width="16" d=" M168.6999969482422,229.88999938964844 C168.6999969482422,229.88999938964844 168.6999969482422,255.30999755859375 168.6999969482422,255.30999755859375"></path></g><g opacity="1" transform="matrix(0.4999253749847412,0.008638950064778328,-0.008638950064778328,0.4999253749847412,233.75559997558594,311.3695983886719)"><path fill="rgb(0,0,0)" fill-opacity="1" d=" M29.989999771118164,-9.920000076293945 C46.1349983215332,18.042999267578125 16.445999145507812,36.625999450683594 0,20.18000030517578 C-16.445999145507812,36.625999450683594 -46.13399887084961,18.042999267578125 -29.989999771118164,-9.920000076293945 C-22.55900001525879,-22.788999557495117 -7.573999881744385,-34.59000015258789 0,-36.619998931884766 C7.573999881744385,-34.59000015258789 22.559999465942383,-22.788999557495117 29.989999771118164,-9.920000076293945 C29.989999771118164,-9.920000076293945 29.989999771118164,-9.920000076293945 29.989999771118164,-9.920000076293945z"></path><path stroke-linecap="round" stroke-linejoin="round" fill-opacity="0" stroke="rgb(0,0,0)" stroke-opacity="1" stroke-width="16" d=" M29.989999771118164,-9.920000076293945 C46.1349983215332,18.042999267578125 16.445999145507812,36.625999450683594 0,20.18000030517578 C-16.445999145507812,36.625999450683594 -46.13399887084961,18.042999267578125 -29.989999771118164,-9.920000076293945 C-22.55900001525879,-22.788999557495117 -7.573999881744385,-34.59000015258789 0,-36.619998931884766 C7.573999881744385,-34.59000015258789 22.559999465942383,-22.788999557495117 29.989999771118164,-9.920000076293945 C29.989999771118164,-9.920000076293945 29.989999771118164,-9.920000076293945 29.989999771118164,-9.920000076293945z"></path></g><g opacity="1" transform="matrix(0.4999253749847412,0.008638950064778328,-0.008638950064778328,0.4999253749847412,151.20155334472656,206.98695373535156)"><path stroke-linecap="round" stroke-linejoin="round" fill-opacity="0" stroke="rgb(0,0,0)" stroke-opacity="1" stroke-width="16" d=" M151.89999389648438,259.1700134277344 C151.89999389648438,259.1700134277344 185.5,259.1700134277344 185.5,259.1700134277344"></path></g><g opacity="1" transform="matrix(0.4999253749847412,0.008638950064778328,-0.008638950064778328,0.4999253749847412,151.19839477539062,206.99072265625)"><path stroke-linecap="round" stroke-linejoin="round" fill-opacity="0" stroke="rgb(0,0,0)" stroke-opacity="1" stroke-width="16" d=" M168.6999969482422,229.88999938964844 C168.6999969482422,229.88999938964844 168.6999969482422,255.30999755859375 168.6999969482422,255.30999755859375"></path></g></g></g></g></svg>