<?xml version="1.0" encoding="UTF-8"?>
<svg xmlns="http://www.w3.org/2000/svg" xmlns:xlink="http://www.w3.org/1999/xlink" viewBox="0 0 500 500" width="500" height="500" preserveAspectRatio="xMidYMid meet" style="width: 100%; height: 100%; transform: translate3d(0px, 0px, 0px); content-visibility: visible;"><defs><clipPath id="__lottie_element_53"><rect width="500" height="500" x="0" y="0"></rect></clipPath><g id="__lottie_element_56"><g transform="matrix(1.3393000364303589,0,0,1.4129999876022339,99,32)" opacity="1" style="display: block;"><path fill="rgb(0,0,0)" fill-opacity="1" d=" M169.42,40 C169.42,40 56.18,40 56.18,40 C47.25,40 40,47.24 40,56.18 C40,56.18 40,222 40,222 C40,230.93 47.25,238.18 56.18,238.18 C56.18,238.18 169.42,238.18 169.42,238.18 C178.36,238.18 185.6,230.93 185.6,222 C185.6,222 185.6,56.18 185.6,56.18 C185.6,47.24 178.36,40 169.42,40 C169.42,40 169.42,40 169.42,40z M148.11,158.49 C157.02,149.58 157.02,135.12 148.11,126.21 C144.57,122.67 140.16,120.54 135.56,119.81 C136.26,113.18 134.07,106.3 128.99,101.22 C120.05,92.28 105.55,92.28 96.61,101.22 C91.53,106.3 89.34,113.18 90.04,119.81 C85.44,120.54 81.03,122.67 77.49,126.21 C68.58,135.12 68.58,149.58 77.49,158.49 C83.01,164.01 90.64,166.09 97.78,164.77 C97.78,164.77 93.28,183.66 93.28,183.66 C93.28,183.66 132.32,183.66 132.32,183.66 C132.32,183.66 127.82,164.77 127.82,164.77 C134.96,166.09 142.59,164.01 148.11,158.49 C148.11,158.49 148.11,158.49 148.11,158.49z"></path><g opacity="1" transform="matrix(1,0,0,1,0,0)"><g opacity="1" transform="matrix(1,0,0,1,112.80000305175781,139.08999633789062)"></g><g opacity="1" transform="matrix(1,0,0,1,112.80000305175781,137.97000122070312)"></g></g></g></g><filter id="__lottie_element_62" filterUnits="objectBoundingBox" x="0%" y="0%" width="100%" height="100%"><feComponentTransfer in="SourceGraphic"><feFuncA type="table" tableValues="1.0 0.0"></feFuncA></feComponentTransfer></filter><mask id="__lottie_element_56_2" mask-type="alpha"><g filter="url(#__lottie_element_62)"><rect width="500" height="500" x="0" y="0" fill="#ffffff" opacity="0"></rect><use xlink:href="#__lottie_element_56"></use></g></mask><clipPath id="__lottie_element_71"><path d="M0,0 L374,0 L374,355 L0,355z"></path></clipPath><g id="__lottie_element_74"><g transform="matrix(1,0,0,1,-64,-68)" opacity="1" style="display: block;"><g opacity="1" transform="matrix(1,0,0,1,137.1999969482422,91.18000793457031)"><g opacity="1" transform="matrix(1,0,0,1,112.79999542236328,158.8199920654297)"><path fill="rgb(194,192,255)" fill-opacity="1" d=" M61,-119.5 C61,-119.5 -42.5,-119.5 -58,-118.5 C-73.5,-117.5 -75,-102.5 -75,-102.5 C-75,-102.5 -73.5,51.5 -73,63 C-72.5,74.5 -59.5,77.5 -59.5,77.5 C-59.5,77.5 49.5,78 61,77.5 C72.5,77 73,62 73,62 C73,62 72.5,-88.5 74,-102.5 C75.5,-116.5 61,-119.5 61,-119.5 C61,-119.5 61,-119.5 61,-119.5z"></path></g></g></g></g><clipPath id="__lottie_element_78"><path d="M0,0 L374,0 L374,355 L0,355z"></path></clipPath><g id="__lottie_element_83"><g transform="matrix(1,0,0,1,101.86000061035156,25.94000244140625)" opacity="1" style="display: block;"><path fill="rgb(0,0,0)" fill-opacity="1" d=" M247.55,101.09 C247.55,101.09 149.48,44.47 149.48,44.47 C141.74,40 131.85,42.65 127.38,50.39 C127.38,50.39 44.47,193.99 44.47,193.99 C40,201.73 42.65,211.62 50.39,216.09 C50.39,216.09 148.46,272.72 148.46,272.72 C156.2,277.19 166.09,274.53 170.56,266.79 C170.56,266.79 253.47,123.19 253.47,123.19 C257.94,115.45 255.29,105.56 247.55,101.09 C247.55,101.09 247.55,101.09 247.55,101.09z"></path><g opacity="1" transform="matrix(1,0,0,1,0,0)"><g opacity="1" transform="matrix(1,0,0,1,148.97000122070312,158.58999633789062)"></g></g></g></g><filter id="__lottie_element_89" filterUnits="objectBoundingBox" x="0%" y="0%" width="100%" height="100%"><feComponentTransfer in="SourceGraphic"><feFuncA type="table" tableValues="1.0 0.0"></feFuncA></feComponentTransfer></filter><mask id="__lottie_element_83_2" mask-type="alpha"><g filter="url(#__lottie_element_89)"><rect width="374" height="355" x="0" y="0" fill="#ffffff" opacity="0"></rect><use xlink:href="#__lottie_element_83"></use></g></mask><filter id="__lottie_element_99" filterUnits="objectBoundingBox" x="0%" y="0%" width="100%" height="100%"><feComponentTransfer in="SourceGraphic"><feFuncA type="table" tableValues="1.0 0.0"></feFuncA></feComponentTransfer></filter><mask id="__lottie_element_74_2" mask-type="alpha"><g filter="url(#__lottie_element_99)"><rect width="374" height="355" x="0" y="0" fill="#ffffff" opacity="0"></rect><use xlink:href="#__lottie_element_74"></use></g></mask><clipPath id="__lottie_element_102"><path d="M0,0 L374,0 L374,355 L0,355z"></path></clipPath><g id="__lottie_element_105"><g transform="matrix(1,0,0,1,-64,-68)" opacity="1" style="display: block;"><g opacity="1" transform="matrix(1,0,0,1,137.1999969482422,91.18000793457031)"><g opacity="1" transform="matrix(1,0,0,1,112.79999542236328,158.8199920654297)"><path fill="rgb(194,192,255)" fill-opacity="1" d=" M61,-119.5 C61,-119.5 -42.5,-119.5 -58,-118.5 C-73.5,-117.5 -75,-102.5 -75,-102.5 C-75,-102.5 -73.5,51.5 -73,63 C-72.5,74.5 -59.5,77.5 -59.5,77.5 C-59.5,77.5 49.5,78 61,77.5 C72.5,77 73,62 73,62 C73,62 72.5,-88.5 74,-102.5 C75.5,-116.5 61,-119.5 61,-119.5 C61,-119.5 61,-119.5 61,-119.5z"></path></g></g></g></g><clipPath id="__lottie_element_109"><path d="M0,0 L374,0 L374,355 L0,355z"></path></clipPath><filter id="__lottie_element_118" filterUnits="objectBoundingBox" x="0%" y="0%" width="100%" height="100%"><feComponentTransfer in="SourceGraphic"><feFuncA type="table" tableValues="1.0 0.0"></feFuncA></feComponentTransfer></filter><mask id="__lottie_element_105_2" mask-type="alpha"><g filter="url(#__lottie_element_118)"><rect width="374" height="355" x="0" y="0" fill="#ffffff" opacity="0"></rect><use xlink:href="#__lottie_element_105"></use></g></mask></defs><g clip-path="url(#__lottie_element_53)"><g clip-path="url(#__lottie_element_102)" transform="matrix(1.3393000364303589,0,0,1.4129999876022339,-0.28479766845703125,-0.9160008430480957)" opacity="1" style="display: block;"><g mask="url(#__lottie_element_105_2)" style="display: block;"><g clip-path="url(#__lottie_element_109)" transform="matrix(1,0,0,1,0,0)" opacity="1"><g transform="matrix(1,0,0,1,-64,-68)" opacity="1" style="display: block;"><path fill="rgb(0,0,0)" fill-opacity="0" d=" M366,130 C366,130 366,329 366,329 C366,329 119,329 119,329 C119,329 119,130 119,130 C119,130 366,130 366,130z"></path></g><g transform="matrix(1,0,0,1,-64,-68)" opacity="1" style="display: block;"><g opacity="1" transform="matrix(1,0,0,1,36.19999694824219,93.94000244140625)"><g opacity="1" transform="matrix(1,0,0,1,148.97000122070312,158.58999633789062)"></g><g opacity="1" transform="matrix(1,0,0,1,0,0)"><path fill="rgb(255,255,255)" fill-opacity="1" d=" M50.39,101.09 C50.39,101.09 148.46,44.47 148.46,44.47 C156.2,40 166.09,42.65 170.56,50.39 C170.56,50.39 253.47,193.99 253.47,193.99 C257.94,201.73 255.29,211.62 247.55,216.09 C247.55,216.09 149.48,272.72 149.48,272.72 C141.74,277.19 131.85,274.53 127.38,266.79 C127.38,266.79 44.47,123.19 44.47,123.19 C40,115.45 42.65,105.56 50.39,101.09 C50.39,101.09 50.39,101.09 50.39,101.09z"></path><path stroke-linecap="butt" stroke-linejoin="miter" fill-opacity="0" stroke-miterlimit="4" stroke="rgb(0,0,0)" stroke-opacity="1" stroke-width="12" d=" M50.39,101.09 C50.39,101.09 148.46,44.47 148.46,44.47 C156.2,40 166.09,42.65 170.56,50.39 C170.56,50.39 253.47,193.99 253.47,193.99 C257.94,201.73 255.29,211.62 247.55,216.09 C247.55,216.09 149.48,272.72 149.48,272.72 C141.74,277.19 131.85,274.53 127.38,266.79 C127.38,266.79 44.47,123.19 44.47,123.19 C40,115.45 42.65,105.56 50.39,101.09 C50.39,101.09 50.39,101.09 50.39,101.09z"></path><g opacity="1" transform="matrix(1,0,0,1,148.97000122070312,158.58999633789062)"></g></g></g></g></g></g></g><g clip-path="url(#__lottie_element_71)" transform="matrix(1.3393000364303589,0,0,1.4129999876022339,-0.28479766845703125,-0.9160008430480957)" opacity="1" style="display: block;"><g mask="url(#__lottie_element_74_2)" style="display: block;"><g clip-path="url(#__lottie_element_78)" transform="matrix(1,0,0,1,0,0)" opacity="1"><g transform="matrix(1,0,0,1,-64,-68)" opacity="1" style="display: block;"><path fill="rgb(0,0,0)" fill-opacity="0" d=" M366,130 C366,130 366,329 366,329 C366,329 119,329 119,329 C119,329 119,130 119,130 C119,130 366,130 366,130z"></path></g><g transform="matrix(1,0,0,1,101.86000061035156,25.94000244140625)" opacity="1" style="display: block;"><g opacity="1" transform="matrix(1,0,0,1,148.97000122070312,158.58999633789062)"></g></g><g transform="matrix(1,0,0,1,101.86000061035156,25.94000244140625)" opacity="1" style="display: block;"><g opacity="1" transform="matrix(1,0,0,1,0,0)"><path fill="rgb(255,255,255)" fill-opacity="1" d=" M247.55,101.09 C247.55,101.09 149.48,44.47 149.48,44.47 C141.74,40 131.85,42.65 127.38,50.39 C127.38,50.39 44.47,193.99 44.47,193.99 C40,201.73 42.65,211.62 50.39,216.09 C50.39,216.09 148.46,272.72 148.46,272.72 C156.2,277.19 166.09,274.53 170.56,266.79 C170.56,266.79 253.47,123.19 253.47,123.19 C257.94,115.45 255.29,105.56 247.55,101.09 C247.55,101.09 247.55,101.09 247.55,101.09z"></path><g opacity="1" transform="matrix(1,0,0,1,148.97000122070312,158.58999633789062)"></g></g></g><g mask="url(#__lottie_element_83_2)" style="display: block;"><g transform="matrix(1,0,0,1,101.86000061035156,25.94000244140625)" opacity="1"><g opacity="1" transform="matrix(1,0,0,1,0,0)"><path fill="rgb(0,0,0)" fill-opacity="0" d=" M306,-9 C306,-9 306,326 306,326 C306,326 -9,326 -9,326 C-9,326 -9,-9 -9,-9 C-9,-9 306,-9 306,-9z"></path></g><g opacity="1" transform="matrix(1,0,0,1,0,0)"><path stroke-linecap="butt" stroke-linejoin="miter" fill-opacity="0" stroke-miterlimit="4" stroke="rgb(0,0,0)" stroke-opacity="1" stroke-width="24" d=" M247.55,101.09 C247.55,101.09 149.48,44.47 149.48,44.47 C141.74,40 131.85,42.65 127.38,50.39 C127.38,50.39 44.47,193.99 44.47,193.99 C40,201.73 42.65,211.62 50.39,216.09 C50.39,216.09 148.46,272.72 148.46,272.72 C156.2,277.19 166.09,274.53 170.56,266.79 C170.56,266.79 253.47,123.19 253.47,123.19 C257.94,115.45 255.29,105.56 247.55,101.09 C247.55,101.09 247.55,101.09 247.55,101.09z"></path><g opacity="1" transform="matrix(1,0,0,1,148.97000122070312,158.58999633789062)"></g></g></g></g></g></g></g><g transform="matrix(1.3393000364303589,0,0,1.4129999876022339,99,32)" opacity="1" style="display: block;"><g opacity="1" transform="matrix(1,0,0,1,112.80000305175781,139.08999633789062)"><path fill="rgb(255,255,255)" fill-opacity="1" d=" M56.619998931884766,-99.08999633789062 C56.619998931884766,-99.08999633789062 -56.619998931884766,-99.08999633789062 -56.619998931884766,-99.08999633789062 C-65.55500030517578,-99.08999633789062 -72.80000305175781,-91.84500122070312 -72.80000305175781,-82.91000366210938 C-72.80000305175781,-82.91000366210938 -72.80000305175781,82.91000366210938 -72.80000305175781,82.91000366210938 C-72.80000305175781,91.84500122070312 -65.55500030517578,99.08999633789062 -56.619998931884766,99.08999633789062 C-56.619998931884766,99.08999633789062 56.619998931884766,99.08999633789062 56.619998931884766,99.08999633789062 C65.55500030517578,99.08999633789062 72.80000305175781,91.84500122070312 72.80000305175781,82.91000366210938 C72.80000305175781,82.91000366210938 72.80000305175781,-82.91000366210938 72.80000305175781,-82.91000366210938 C72.80000305175781,-91.84500122070312 65.55500030517578,-99.08999633789062 56.619998931884766,-99.08999633789062 C56.619998931884766,-99.08999633789062 56.619998931884766,-99.08999633789062 56.619998931884766,-99.08999633789062z"></path></g></g><g transform="matrix(1.3393000364303589,0,0,1.4129999876022339,99,32)" opacity="1" style="display: block;"><g opacity="1" transform="matrix(1,0,0,1,112.80000305175781,137.97000122070312)"><path fill="rgb(0,0,0)" fill-opacity="1" d=" M35.310001373291016,20.520000457763672 C44.2239990234375,11.605999946594238 44.2239990234375,-2.8459999561309814 35.310001373291016,-11.760000228881836 C31.76799964904785,-15.300999641418457 27.354999542236328,-17.433000564575195 22.760000228881836,-18.15999984741211 C23.454999923706055,-24.791000366210938 21.270999908447266,-31.667999267578125 16.190000534057617,-36.75 C7.25,-45.68899917602539 -7.250999927520752,-45.68899917602539 -16.190000534057617,-36.75 C-21.27199935913086,-31.667999267578125 -23.45599937438965,-24.791000366210938 -22.760000228881836,-18.15999984741211 C-27.356000900268555,-17.433000564575195 -31.76799964904785,-15.300999641418457 -35.310001373291016,-11.760000228881836 C-44.222999572753906,-2.8459999561309814 -44.222999572753906,11.605999946594238 -35.310001373291016,20.520000457763672 C-29.788999557495117,26.040000915527344 -22.1560001373291,28.1200008392334 -15.020000457763672,26.799999237060547 C-15.020000457763672,26.799999237060547 -19.520000457763672,45.689998626708984 -19.520000457763672,45.689998626708984 C-19.520000457763672,45.689998626708984 19.520000457763672,45.689998626708984 19.520000457763672,45.689998626708984 C19.520000457763672,45.689998626708984 15.020000457763672,26.799999237060547 15.020000457763672,26.799999237060547 C22.1560001373291,28.118999481201172 29.790000915527344,26.040000915527344 35.310001373291016,20.520000457763672 C35.310001373291016,20.520000457763672 35.310001373291016,20.520000457763672 35.310001373291016,20.520000457763672z"></path></g></g><g mask="url(#__lottie_element_56_2)" style="display: block;"><g transform="matrix(1.3393000364303589,0,0,1.4129999876022339,99,32)" opacity="1"><g opacity="1" transform="matrix(1,0,0,1,0,0)"><path fill="rgb(0,0,0)" fill-opacity="0" d=" M234,-9 C234,-9 234,287 234,287 C234,287 -9,287 -9,287 C-9,287 -9,-9 -9,-9 C-9,-9 234,-9 234,-9z"></path></g><g opacity="1" transform="matrix(1,0,0,1,0,0)"><path stroke-linecap="butt" stroke-linejoin="miter" fill-opacity="0" stroke-miterlimit="4" stroke="rgb(0,0,0)" stroke-opacity="1" stroke-width="24" d=" M169.42,40 C169.42,40 56.18,40 56.18,40 C47.25,40 40,47.24 40,56.18 C40,56.18 40,222 40,222 C40,230.93 47.25,238.18 56.18,238.18 C56.18,238.18 169.42,238.18 169.42,238.18 C178.36,238.18 185.6,230.93 185.6,222 C185.6,222 185.6,56.18 185.6,56.18 C185.6,47.24 178.36,40 169.42,40 C169.42,40 169.42,40 169.42,40z M148.11,158.49 C157.02,149.58 157.02,135.12 148.11,126.21 C144.57,122.67 140.16,120.54 135.56,119.81 C136.26,113.18 134.07,106.3 128.99,101.22 C120.05,92.28 105.55,92.28 96.61,101.22 C91.53,106.3 89.34,113.18 90.04,119.81 C85.44,120.54 81.03,122.67 77.49,126.21 C68.58,135.12 68.58,149.58 77.49,158.49 C83.01,164.01 90.64,166.09 97.78,164.77 C97.78,164.77 93.28,183.66 93.28,183.66 C93.28,183.66 132.32,183.66 132.32,183.66 C132.32,183.66 127.82,164.77 127.82,164.77 C134.96,166.09 142.59,164.01 148.11,158.49 C148.11,158.49 148.11,158.49 148.11,158.49z"></path><g opacity="1" transform="matrix(1,0,0,1,112.80000305175781,139.08999633789062)"></g><g opacity="1" transform="matrix(1,0,0,1,112.80000305175781,137.97000122070312)"></g></g></g></g></g></svg>