<?xml version="1.0" encoding="UTF-8"?>
<svg xmlns="http://www.w3.org/2000/svg" xmlns:xlink="http://www.w3.org/1999/xlink" viewBox="0 0 500 500" width="500" height="500" preserveAspectRatio="xMidYMid meet" style="width: 100%; height: 100%; transform: translate3d(0px, 0px, 0px); content-visibility: visible;"><defs><clipPath id="__lottie_element_120"><rect width="500" height="500" x="0" y="0"></rect></clipPath><g id="__lottie_element_127"><g transform="matrix(1.100000023841858,0,0,1.100000023841858,-14.930021286010742,-28.290006637573242)" opacity="1" style="display: block;"><path fill="rgb(0,0,0)" fill-opacity="1" d=" M292.27,437.43 C292.27,437.43 118.88,437.43 118.88,437.43 C100.72,437.43 86,422.71 86,404.55 C86,404.55 86,140.41 86,140.41 C86,123.3 99.86,109.43 116.97,109.43 C116.97,109.43 288.17,109.43 288.17,109.43 C305.9,109.43 320.28,123.81 320.28,141.55 C320.28,141.55 320.28,409.42 320.28,409.42 C320.28,424.89 307.74,437.43 292.27,437.43 C292.27,437.43 292.27,437.43 292.27,437.43z"></path><g opacity="1" transform="matrix(1,0,0,1,203.13999938964844,273.42999267578125)"></g></g></g><filter id="__lottie_element_133" filterUnits="objectBoundingBox" x="0%" y="0%" width="100%" height="100%"><feComponentTransfer in="SourceGraphic"><feFuncA type="table" tableValues="1.0 0.0"></feFuncA></feComponentTransfer></filter><mask id="__lottie_element_127_2" mask-type="alpha"><g filter="url(#__lottie_element_133)"><rect width="500" height="500" x="0" y="0" fill="#ffffff" opacity="0"></rect><use xlink:href="#__lottie_element_127"></use></g></mask><clipPath id="__lottie_element_139"><path d="M0,0 L458,0 L458,456 L0,456z"></path></clipPath><g id="__lottie_element_142"><g transform="matrix(1,0,0,1,169,151)" opacity="1" style="display: block;"><g opacity="1" transform="matrix(1,0,0,1,-181,-176)"><g opacity="1" transform="matrix(1,0,0,1,203.13999938964844,273.42999267578125)"><path fill="rgb(255,0,0)" fill-opacity="1" d=" M89.12999725341797,164 C89.12999725341797,164 -84.26000213623047,164 -84.26000213623047,164 C-102.41799926757812,164 -117.13999938964844,149.2779998779297 -117.13999938964844,131.1199951171875 C-117.13999938964844,131.1199951171875 -117.13999938964844,-133.02000427246094 -117.13999938964844,-133.02000427246094 C-117.13999938964844,-150.12600708007812 -103.2760009765625,-164 -86.16999816894531,-164 C-86.16999816894531,-164 85.02999877929688,-164 85.02999877929688,-164 C102.76499938964844,-164 117.13999938964844,-149.61500549316406 117.13999938964844,-131.8800048828125 C117.13999938964844,-131.8800048828125 117.13999938964844,135.99000549316406 117.13999938964844,135.99000549316406 C117.13999938964844,151.45700073242188 104.59700012207031,164 89.12999725341797,164 C89.12999725341797,164 89.12999725341797,164 89.12999725341797,164z"></path></g><g opacity="1" transform="matrix(1,0,0,1,203.13999938964844,273.42999267578125)"><path stroke-linecap="round" stroke-linejoin="round" fill-opacity="0" stroke="rgb(0,0,0)" stroke-opacity="1" stroke-width="16" d=" M89.12999725341797,164 C89.12999725341797,164 -84.26000213623047,164 -84.26000213623047,164 C-102.41799926757812,164 -117.13999938964844,149.2779998779297 -117.13999938964844,131.1199951171875 C-117.13999938964844,131.1199951171875 -117.13999938964844,-133.02000427246094 -117.13999938964844,-133.02000427246094 C-117.13999938964844,-150.12600708007812 -103.2760009765625,-164 -86.16999816894531,-164 C-86.16999816894531,-164 85.02999877929688,-164 85.02999877929688,-164 C102.76499938964844,-164 117.13999938964844,-149.61500549316406 117.13999938964844,-131.8800048828125 C117.13999938964844,-131.8800048828125 117.13999938964844,135.99000549316406 117.13999938964844,135.99000549316406 C117.13999938964844,151.45700073242188 104.59700012207031,164 89.12999725341797,164 C89.12999725341797,164 89.12999725341797,164 89.12999725341797,164z"></path></g></g></g></g><clipPath id="__lottie_element_146"><path d="M0,0 L458,0 L458,456 L0,456z"></path></clipPath><g id="__lottie_element_151"><g transform="matrix(1,0,0,1,-12,-25)" opacity="1" style="display: block;"><path fill="rgb(0,0,0)" fill-opacity="1" d=" M320.28,390.57 C320.28,390.57 342.5,390.57 342.5,390.57 C356.11,390.57 367.14,379.53 367.14,365.92 C367.14,365.92 367.14,91.45 367.14,91.45 C367.14,75.5 354.21,62.57 338.26,62.57 C338.26,62.57 164.94,62.57 164.94,62.57 C147.22,62.57 132.86,76.94 132.86,94.66 C132.86,94.66 132.86,109.43 132.86,109.43 C132.86,109.43 132.86,209.86 132.86,209.86 C132.86,209.86 132.86,365.92 132.86,365.92 C132.86,379.53 143.89,390.57 157.5,390.57 C157.5,390.57 179.72,390.57 179.72,390.57 C179.72,390.57 320.28,390.57 320.28,390.57 C320.28,390.57 320.28,390.57 320.28,390.57z"></path><g opacity="1" transform="matrix(1,0,0,1,250,226.5699920654297)"></g></g></g><filter id="__lottie_element_157" filterUnits="objectBoundingBox" x="0%" y="0%" width="100%" height="100%"><feComponentTransfer in="SourceGraphic"><feFuncA type="table" tableValues="1.0 0.0"></feFuncA></feComponentTransfer></filter><mask id="__lottie_element_151_2" mask-type="alpha"><g filter="url(#__lottie_element_157)"><rect width="458" height="456" x="0" y="0" fill="#ffffff" opacity="0"></rect><use xlink:href="#__lottie_element_151"></use></g></mask><g id="__lottie_element_162"><g transform="matrix(1,0,0,1,-12,-25)" opacity="1" style="display: block;"><path fill="rgb(0,0,0)" fill-opacity="1" d=" M181.52,390.57 C181.52,390.57 181.52,412.78 181.52,412.78 C181.52,426.39 192.55,437.43 206.16,437.43 C206.16,437.43 228.38,437.43 228.38,437.43 C228.38,437.43 368.94,437.43 368.94,437.43 C368.94,437.43 391.16,437.43 391.16,437.43 C404.77,437.43 415.8,426.39 415.8,412.78 C415.8,412.78 415.8,138.31 415.8,138.31 C415.8,122.36 402.87,109.43 386.92,109.43 C386.92,109.43 367.14,109.43 367.14,109.43"></path><g opacity="1" transform="matrix(1,0,0,1,298.6600036621094,273.42999267578125)"></g></g></g><filter id="__lottie_element_168" filterUnits="objectBoundingBox" x="0%" y="0%" width="100%" height="100%"><feComponentTransfer in="SourceGraphic"><feFuncA type="table" tableValues="1.0 0.0"></feFuncA></feComponentTransfer></filter><mask id="__lottie_element_162_2" mask-type="alpha"><g filter="url(#__lottie_element_168)"><rect width="458" height="456" x="0" y="0" fill="#ffffff" opacity="0"></rect><use xlink:href="#__lottie_element_162"></use></g></mask><filter id="__lottie_element_175" filterUnits="objectBoundingBox" x="0%" y="0%" width="100%" height="100%"><feComponentTransfer in="SourceGraphic"><feFuncA type="table" tableValues="1.0 0.0"></feFuncA></feComponentTransfer></filter><mask id="__lottie_element_142_2" mask-type="alpha"><g filter="url(#__lottie_element_175)"><rect width="458" height="456" x="0" y="0" fill="#ffffff" opacity="0"></rect><use xlink:href="#__lottie_element_142"></use></g></mask></defs><g clip-path="url(#__lottie_element_120)"><g clip-path="url(#__lottie_element_139)" transform="matrix(1.100000023841858,0,0,1.100000023841858,-1.7300211191177368,-0.7900060415267944)" opacity="1" style="display: block;"><g mask="url(#__lottie_element_142_2)" style="display: block;"><g clip-path="url(#__lottie_element_146)" transform="matrix(1,0,0,1,0,0)" opacity="1"><g transform="matrix(1,0,0,1,169,151)" opacity="1" style="display: block;"><path fill="rgb(0,0,0)" fill-opacity="0" d=" M289,-151 C289,-151 289,305 289,305 C289,305 -131,305 -131,305 C-131,305 -131,-151 -131,-151 C-131,-151 289,-151 289,-151z"></path></g><g transform="matrix(1,0,0,1,-12,-25)" opacity="1" style="display: block;"><g opacity="1" transform="matrix(1,0,0,1,298.6600036621094,273.42999267578125)"><path fill="rgb(255,255,255)" fill-opacity="1" d=" M-117.13999938964844,117.13999938964844 C-117.13999938964844,117.13999938964844 -117.13999938964844,139.35000610351562 -117.13999938964844,139.35000610351562 C-117.13999938964844,152.96099853515625 -106.11100006103516,164 -92.5,164 C-92.5,164 -70.27999877929688,164 -70.27999877929688,164 C-70.27999877929688,164 70.27999877929688,164 70.27999877929688,164 C70.27999877929688,164 92.5,164 92.5,164 C106.11100006103516,164 117.13999938964844,152.96099853515625 117.13999938964844,139.35000610351562 C117.13999938964844,139.35000610351562 117.13999938964844,-135.1199951171875 117.13999938964844,-135.1199951171875 C117.13999938964844,-151.0709991455078 104.21099853515625,-164 88.26000213623047,-164 C88.26000213623047,-164 68.4800033569336,-164 68.4800033569336,-164"></path></g></g><g mask="url(#__lottie_element_162_2)" style="display: block;"><g transform="matrix(1,0,0,1,-12,-25)" opacity="1"><g opacity="1" transform="matrix(1,0,0,1,0,0)"><path fill="rgb(0,0,0)" fill-opacity="0" d=" M479,24 C479,24 479,495 479,495 C479,495 11,495 11,495 C11,495 11,24 11,24 C11,24 479,24 479,24z"></path></g><g opacity="1" transform="matrix(1,0,0,1,298.6600036621094,273.42999267578125)"><path stroke-linecap="round" stroke-linejoin="round" fill-opacity="0" stroke="rgb(0,0,0)" stroke-opacity="1" stroke-width="32" d=" M-117.13999938964844,117.13999938964844 C-117.13999938964844,117.13999938964844 -117.13999938964844,139.35000610351562 -117.13999938964844,139.35000610351562 C-117.13999938964844,152.96099853515625 -106.11100006103516,164 -92.5,164 C-92.5,164 -70.27999877929688,164 -70.27999877929688,164 C-70.27999877929688,164 70.27999877929688,164 70.27999877929688,164 C70.27999877929688,164 92.5,164 92.5,164 C106.11100006103516,164 117.13999938964844,152.96099853515625 117.13999938964844,139.35000610351562 C117.13999938964844,139.35000610351562 117.13999938964844,-135.1199951171875 117.13999938964844,-135.1199951171875 C117.13999938964844,-151.0709991455078 104.21099853515625,-164 88.26000213623047,-164 C88.26000213623047,-164 68.4800033569336,-164 68.4800033569336,-164"></path></g></g></g><g transform="matrix(1,0,0,1,-12,-25)" opacity="1" style="display: block;"><g opacity="1" transform="matrix(1,0,0,1,250,226.5699920654297)"><path fill="rgb(255,255,255)" fill-opacity="1" d=" M70.27999877929688,164 C70.27999877929688,164 92.5,164 92.5,164 C106.11100006103516,164 117.13999938964844,152.96099853515625 117.13999938964844,139.35000610351562 C117.13999938964844,139.35000610351562 117.13999938964844,-135.1199951171875 117.13999938964844,-135.1199951171875 C117.13999938964844,-151.0709991455078 104.21099853515625,-164 88.26000213623047,-164 C88.26000213623047,-164 -85.05999755859375,-164 -85.05999755859375,-164 C-102.78099822998047,-164 -117.13999938964844,-149.63099670410156 -117.13999938964844,-131.91000366210938 C-117.13999938964844,-131.91000366210938 -117.13999938964844,-117.13999938964844 -117.13999938964844,-117.13999938964844 C-117.13999938964844,-117.13999938964844 -117.13999938964844,-16.709999084472656 -117.13999938964844,-16.709999084472656 C-117.13999938964844,-16.709999084472656 -117.13999938964844,139.35000610351562 -117.13999938964844,139.35000610351562 C-117.13999938964844,152.96099853515625 -106.11100006103516,164 -92.5,164 C-92.5,164 -70.27999877929688,164 -70.27999877929688,164 C-70.27999877929688,164 70.27999877929688,164 70.27999877929688,164 C70.27999877929688,164 70.27999877929688,164 70.27999877929688,164z"></path></g></g><g mask="url(#__lottie_element_151_2)" style="display: block;"><g transform="matrix(1,0,0,1,-12,-25)" opacity="1"><g opacity="1" transform="matrix(1,0,0,1,0,0)"><path fill="rgb(0,0,0)" fill-opacity="0" d=" M454,24 C454,24 454,495 454,495 C454,495 11,495 11,495 C11,495 11,24 11,24 C11,24 454,24 454,24z"></path></g><g opacity="1" transform="matrix(1,0,0,1,250,226.5699920654297)"><path stroke-linecap="round" stroke-linejoin="round" fill-opacity="0" stroke="rgb(0,0,0)" stroke-opacity="1" stroke-width="32" d=" M70.27999877929688,164 C70.27999877929688,164 92.5,164 92.5,164 C106.11100006103516,164 117.13999938964844,152.96099853515625 117.13999938964844,139.35000610351562 C117.13999938964844,139.35000610351562 117.13999938964844,-135.1199951171875 117.13999938964844,-135.1199951171875 C117.13999938964844,-151.0709991455078 104.21099853515625,-164 88.26000213623047,-164 C88.26000213623047,-164 -85.05999755859375,-164 -85.05999755859375,-164 C-102.78099822998047,-164 -117.13999938964844,-149.63099670410156 -117.13999938964844,-131.91000366210938 C-117.13999938964844,-131.91000366210938 -117.13999938964844,-117.13999938964844 -117.13999938964844,-117.13999938964844 C-117.13999938964844,-117.13999938964844 -117.13999938964844,-16.709999084472656 -117.13999938964844,-16.709999084472656 C-117.13999938964844,-16.709999084472656 -117.13999938964844,139.35000610351562 -117.13999938964844,139.35000610351562 C-117.13999938964844,152.96099853515625 -106.11100006103516,164 -92.5,164 C-92.5,164 -70.27999877929688,164 -70.27999877929688,164 C-70.27999877929688,164 70.27999877929688,164 70.27999877929688,164 C70.27999877929688,164 70.27999877929688,164 70.27999877929688,164z"></path></g></g></g></g></g></g><g transform="matrix(1.100000023841858,0,0,1.100000023841858,-14.930021286010742,-28.290006637573242)" opacity="1" style="display: block;"><g opacity="1" transform="matrix(1,0,0,1,203.13999938964844,273.42999267578125)"><path fill="rgb(255,255,255)" fill-opacity="1" d=" M89.12999725341797,164 C89.12999725341797,164 -84.26000213623047,164 -84.26000213623047,164 C-102.41799926757812,164 -117.13999938964844,149.2779998779297 -117.13999938964844,131.1199951171875 C-117.13999938964844,131.1199951171875 -117.13999938964844,-133.02000427246094 -117.13999938964844,-133.02000427246094 C-117.13999938964844,-150.12600708007812 -103.2760009765625,-164 -86.16999816894531,-164 C-86.16999816894531,-164 85.02999877929688,-164 85.02999877929688,-164 C102.76499938964844,-164 117.13999938964844,-149.61500549316406 117.13999938964844,-131.8800048828125 C117.13999938964844,-131.8800048828125 117.13999938964844,135.99000549316406 117.13999938964844,135.99000549316406 C117.13999938964844,151.45700073242188 104.59700012207031,164 89.12999725341797,164 C89.12999725341797,164 89.12999725341797,164 89.12999725341797,164z"></path></g></g><g mask="url(#__lottie_element_127_2)" style="display: block;"><g transform="matrix(1.100000023841858,0,0,1.100000023841858,-14.930021286010742,-28.290006637573242)" opacity="1"><g opacity="1" transform="matrix(1,0,0,1,0,0)"><path fill="rgb(0,0,0)" fill-opacity="0" d=" M385,45 C385,45 385,502 385,502 C385,502 22,502 22,502 C22,502 22,45 22,45 C22,45 385,45 385,45z"></path></g><g opacity="1" transform="matrix(1,0,0,1,203.13999938964844,273.42999267578125)"><path stroke-linecap="round" stroke-linejoin="round" fill-opacity="0" stroke="rgb(0,0,0)" stroke-opacity="1" stroke-width="32" d=" M89.12999725341797,164 C89.12999725341797,164 -84.26000213623047,164 -84.26000213623047,164 C-102.41799926757812,164 -117.13999938964844,149.2779998779297 -117.13999938964844,131.1199951171875 C-117.13999938964844,131.1199951171875 -117.13999938964844,-133.02000427246094 -117.13999938964844,-133.02000427246094 C-117.13999938964844,-150.12600708007812 -103.2760009765625,-164 -86.16999816894531,-164 C-86.16999816894531,-164 85.02999877929688,-164 85.02999877929688,-164 C102.76499938964844,-164 117.13999938964844,-149.61500549316406 117.13999938964844,-131.8800048828125 C117.13999938964844,-131.8800048828125 117.13999938964844,135.99000549316406 117.13999938964844,135.99000549316406 C117.13999938964844,151.45700073242188 104.59700012207031,164 89.12999725341797,164 C89.12999725341797,164 89.12999725341797,164 89.12999725341797,164z"></path></g></g></g><g transform="matrix(1.100000023841858,0,0,1.100000023841858,184.16998291015625,165.30999755859375)" opacity="1" style="display: block;"><g opacity="1" transform="matrix(1,0,0,1,-181,-176)"><g opacity="1" transform="matrix(1,0,0,1,203.13999938964844,273.42999267578125)"><path stroke-linecap="round" stroke-linejoin="round" fill-opacity="0" stroke="rgb(0,0,0)" stroke-opacity="1" stroke-width="16" d=" M0,51.400001525878906 C0,51.400001525878906 -51.400001525878906,0 -51.400001525878906,0 C-51.400001525878906,0 0,-51.400001525878906 0,-51.400001525878906 C0,-51.400001525878906 51.400001525878906,0 51.400001525878906,0 C51.400001525878906,0 0,51.400001525878906 0,51.400001525878906 C0,51.400001525878906 0,51.400001525878906 0,51.400001525878906z"></path></g><g opacity="1" transform="matrix(0.23999999463558197,0,0,0.23999999463558197,134.7100067138672,156.66000366210938)"><path stroke-linecap="round" stroke-linejoin="round" fill-opacity="0" stroke="rgb(0,0,0)" stroke-opacity="1" stroke-width="16" d=" M0,51.400001525878906 C0,51.400001525878906 -51.400001525878906,0 -51.400001525878906,0 C-51.400001525878906,0 0,-51.400001525878906 0,-51.400001525878906 C0,-51.400001525878906 51.400001525878906,0 51.400001525878906,0 C51.400001525878906,0 0,51.400001525878906 0,51.400001525878906 C0,51.400001525878906 0,51.400001525878906 0,51.400001525878906z"></path></g><g opacity="1" transform="matrix(0.23999999463558197,0,0,0.23999999463558197,271.5799865722656,397.19000244140625)"><path stroke-linecap="round" stroke-linejoin="round" fill-opacity="0" stroke="rgb(0,0,0)" stroke-opacity="1" stroke-width="16" d=" M0,51.400001525878906 C0,51.400001525878906 -51.400001525878906,0 -51.400001525878906,0 C-51.400001525878906,0 0,-51.400001525878906 0,-51.400001525878906 C0,-51.400001525878906 51.400001525878906,0 51.400001525878906,0 C51.400001525878906,0 0,51.400001525878906 0,51.400001525878906 C0,51.400001525878906 0,51.400001525878906 0,51.400001525878906z"></path></g><g opacity="1" transform="matrix(1,0,0,1,203.13999938964844,273.42999267578125)"><path stroke-linecap="round" stroke-linejoin="round" fill-opacity="0" stroke="rgb(0,0,0)" stroke-opacity="1" stroke-width="16" d="M0 0"></path></g><g opacity="1" transform="matrix(1,0,0,1,0,0)"><path fill="rgb(0,0,0)" fill-opacity="1" d=" M203.14,324.83 C203.14,324.83 151.74,273.43 151.74,273.43 C151.74,273.43 203.14,222.03 203.14,222.03 C203.14,222.03 254.54,273.43 254.54,273.43 C254.54,273.43 203.14,324.83 203.14,324.83 C203.14,324.83 203.14,324.83 203.14,324.83z M134.71,169 C134.71,169 122.37,156.66 122.37,156.66 C122.37,156.66 134.71,144.32 134.71,144.32 C134.71,144.32 147.05,156.66 147.05,156.66 C147.05,156.66 134.71,169 134.71,169 C134.71,169 134.71,169 134.71,169z M271.58,409.53 C271.58,409.53 259.24,397.19 259.24,397.19 C259.24,397.19 271.58,384.85 271.58,384.85 C271.58,384.85 283.92,397.19 283.92,397.19 C283.92,397.19 271.58,409.53 271.58,409.53 C271.58,409.53 271.58,409.53 271.58,409.53z"></path><g opacity="1" transform="matrix(1,0,0,1,203.13999938964844,273.42999267578125)"></g><g opacity="1" transform="matrix(0.23999999463558197,0,0,0.23999999463558197,134.7100067138672,156.66000366210938)"></g><g opacity="1" transform="matrix(0.23999999463558197,0,0,0.23999999463558197,271.5799865722656,397.19000244140625)"></g><g opacity="1" transform="matrix(1,0,0,1,203.13999938964844,273.42999267578125)"></g></g></g></g></g></svg>