<?xml version="1.0" encoding="UTF-8"?>
<svg xmlns="http://www.w3.org/2000/svg" xmlns:xlink="http://www.w3.org/1999/xlink" viewBox="0 0 500 500" width="500" height="500" preserveAspectRatio="xMidYMid meet" style="width: 100%; height: 100%; transform: translate3d(0px, 0px, 0px); content-visibility: visible;"><defs><clipPath id="__lottie_element_177"><rect width="500" height="500" x="0" y="0"></rect></clipPath><clipPath id="__lottie_element_183"><path d="M0,0 L313,0 L313,343 L0,343z"></path></clipPath><g id="__lottie_element_186"><g transform="matrix(1,0,0,1,-33,-45)" opacity="1" style="display: block;"><g opacity="1" transform="matrix(1,0,0,1,0,0)"><g opacity="1" transform="matrix(1,0,0,1,0,0)"><g opacity="1" transform="matrix(1,0,0,1,0,0)"><path fill="rgb(255,0,0)" fill-opacity="1" d=" M333.92,165.98 C333.92,165.98 189.3,367.97 189.3,367.97 C189.3,367.97 44.68,165.98 44.68,165.98 C44.68,165.98 120.13,77.95 120.13,77.95 C120.13,77.95 258.46,77.95 258.46,77.95 C258.46,77.95 333.92,165.98 333.92,165.98 C333.92,165.98 333.92,165.98 333.92,165.98z M44.68000030517578,165.97999572753906 C44.68000030517578,165.97999572753906 333.9200134277344,165.97999572753906 333.9200134277344,165.97999572753906"></path><g opacity="1" transform="matrix(1,0,0,1,189.3000030517578,222.9600067138672)"></g><g opacity="1" transform="matrix(1,0,0,1,0,0)"></g></g></g><g opacity="1" transform="matrix(1,0,0,1,189.3000030517578,222.9600067138672)"><path stroke-linecap="round" stroke-linejoin="round" fill-opacity="0" stroke="rgb(51,204,204)" stroke-opacity="1" stroke-width="16" d=" M144.6199951171875,-56.97999954223633 C144.6199951171875,-56.97999954223633 0,145.00999450683594 0,145.00999450683594 C0,145.00999450683594 -144.6199951171875,-56.97999954223633 -144.6199951171875,-56.97999954223633 C-144.6199951171875,-56.97999954223633 -69.16999816894531,-145.00999450683594 -69.16999816894531,-145.00999450683594 C-69.16999816894531,-145.00999450683594 69.16000366210938,-145.00999450683594 69.16000366210938,-145.00999450683594 C69.16000366210938,-145.00999450683594 144.6199951171875,-56.97999954223633 144.6199951171875,-56.97999954223633 C144.6199951171875,-56.97999954223633 144.6199951171875,-56.97999954223633 144.6199951171875,-56.97999954223633z"></path></g><g opacity="1" transform="matrix(1,0,0,1,0,0)"><path stroke-linecap="round" stroke-linejoin="round" fill-opacity="0" stroke="rgb(51,204,204)" stroke-opacity="1" stroke-width="16" d=" M44.68000030517578,165.97999572753906 C44.68000030517578,165.97999572753906 333.9200134277344,165.97999572753906 333.9200134277344,165.97999572753906"></path></g></g></g></g><clipPath id="__lottie_element_190"><path d="M0,0 L313,0 L313,343 L0,343z"></path></clipPath><mask id="__lottie_element_186_1" mask-type="alpha"><use xlink:href="#__lottie_element_186"></use></mask></defs><g clip-path="url(#__lottie_element_177)"><g clip-path="url(#__lottie_element_183)" transform="matrix(1.600000023841858,0,0,1.600000023841858,-0.08000409603118896,-24.384000778198242)" opacity="1" style="display: block;"><g mask="url(#__lottie_element_186_1)" style="display: block;"><g clip-path="url(#__lottie_element_190)" transform="matrix(1,0,0,1,0,0)" opacity="1"><g transform="matrix(1,0,0,1,-33,-45)" opacity="1" style="display: block;"><path fill="rgb(0,0,0)" fill-opacity="0" d=" M346,45 C346,45 346,388 346,388 C346,388 33,388 33,388 C33,388 33,45 33,45 C33,45 346,45 346,45z"></path></g><g transform="matrix(1,0,0,1,-33,-45)" opacity="1" style="display: block;"><g opacity="1" transform="matrix(1,0,0,1,189.3000030517578,222.9600067138672)"><path fill="rgb(255,255,255)" fill-opacity="1" d=" M144.6199951171875,-56.97999954223633 C144.6199951171875,-56.97999954223633 0,145.00999450683594 0,145.00999450683594 C0,145.00999450683594 -144.6199951171875,-56.97999954223633 -144.6199951171875,-56.97999954223633 C-144.6199951171875,-56.97999954223633 -69.16999816894531,-145.00999450683594 -69.16999816894531,-145.00999450683594 C-69.16999816894531,-145.00999450683594 69.16000366210938,-145.00999450683594 69.16000366210938,-145.00999450683594 C69.16000366210938,-145.00999450683594 144.6199951171875,-56.97999954223633 144.6199951171875,-56.97999954223633 C144.6199951171875,-56.97999954223633 144.6199951171875,-56.97999954223633 144.6199951171875,-56.97999954223633z"></path><path stroke-linecap="round" stroke-linejoin="round" fill-opacity="0" stroke="rgb(255,255,255)" stroke-opacity="1" stroke-width="16" d=" M144.6199951171875,-56.97999954223633 C144.6199951171875,-56.97999954223633 0,145.00999450683594 0,145.00999450683594 C0,145.00999450683594 -144.6199951171875,-56.97999954223633 -144.6199951171875,-56.97999954223633 C-144.6199951171875,-56.97999954223633 -69.16999816894531,-145.00999450683594 -69.16999816894531,-145.00999450683594 C-69.16999816894531,-145.00999450683594 69.16000366210938,-145.00999450683594 69.16000366210938,-145.00999450683594 C69.16000366210938,-145.00999450683594 144.6199951171875,-56.97999954223633 144.6199951171875,-56.97999954223633 C144.6199951171875,-56.97999954223633 144.6199951171875,-56.97999954223633 144.6199951171875,-56.97999954223633z"></path></g></g><g transform="matrix(1,0,0,1,-33,-45)" opacity="1" style="display: block;"><g opacity="1" transform="matrix(1,0,0,1,220.74000549316406,222.9600067138672)"><path stroke-linecap="round" stroke-linejoin="round" fill-opacity="0" stroke="rgb(0,0,0)" stroke-opacity="1" stroke-width="16" d=" M0,-145.00999450683594 C0,-145.00999450683594 31.440000534057617,-56.97999954223633 31.440000534057617,-56.97999954223633 C31.440000534057617,-56.97999954223633 -31.440000534057617,145.00999450683594 -31.440000534057617,145.00999450683594"></path></g></g><g transform="matrix(1,0,0,1,-33,-45)" opacity="1" style="display: block;"><g opacity="1" transform="matrix(1,0,0,1,157.86000061035156,222.9600067138672)"><path stroke-linecap="round" stroke-linejoin="round" fill-opacity="0" stroke="rgb(0,0,0)" stroke-opacity="1" stroke-width="16" d=" M31.440000534057617,145.00999450683594 C31.440000534057617,145.00999450683594 -31.440000534057617,-56.97999954223633 -31.440000534057617,-56.97999954223633 C-31.440000534057617,-56.97999954223633 0,-145.00999450683594 0,-145.00999450683594"></path></g></g><g transform="matrix(1,0,0,1,-33,-45)" opacity="1" style="display: block;"><g opacity="1" transform="matrix(1,0,0,1,220.739990234375,222.9600067138672)"><path stroke-linecap="round" stroke-linejoin="round" fill-opacity="0" stroke="rgb(0,0,0)" stroke-opacity="1" stroke-width="16" d=" M-140,-145 C-140,-145 -216.55999755859375,-56.95000076293945 -216.55999755859375,-56.95000076293945 C-216.55999755859375,-56.95000076293945 -31.440000534057617,145.00999450683594 -31.440000534057617,145.00999450683594"></path></g></g><g transform="matrix(1,0,0,1,-33,-45)" opacity="1" style="display: block;"><g opacity="1" transform="matrix(1,0,0,1,157.86000061035156,222.9600067138672)"><path stroke-linecap="round" stroke-linejoin="round" fill-opacity="0" stroke="rgb(0,0,0)" stroke-opacity="1" stroke-width="16" d=" M31.440000534057617,145.00999450683594 C31.440000534057617,145.00999450683594 -257.44000244140625,-56.880001068115234 -257.44000244140625,-56.880001068115234 C-257.44000244140625,-56.880001068115234 -140,-145 -140,-145"></path></g></g></g></g></g><g transform="matrix(1,0,0,1,0,0)" opacity="1" style="display: block;"><g opacity="1" transform="matrix(1.600000023841858,0,0,1.600000023841858,-52.8800048828125,-96.38400268554688)"><g opacity="1" transform="matrix(1,0,0,1,189.3000030517578,222.9600067138672)"><path stroke-linecap="round" stroke-linejoin="round" fill-opacity="0" stroke="rgb(0,0,0)" stroke-opacity="1" stroke-width="16" d=" M144.6199951171875,-56.97999954223633 C144.6199951171875,-56.97999954223633 0,145.00999450683594 0,145.00999450683594 C0,145.00999450683594 -144.6199951171875,-56.97999954223633 -144.6199951171875,-56.97999954223633 C-144.6199951171875,-56.97999954223633 -69.16999816894531,-145.00999450683594 -69.16999816894531,-145.00999450683594 C-69.16999816894531,-145.00999450683594 69.16000366210938,-145.00999450683594 69.16000366210938,-145.00999450683594 C69.16000366210938,-145.00999450683594 144.6199951171875,-56.97999954223633 144.6199951171875,-56.97999954223633 C144.6199951171875,-56.97999954223633 144.6199951171875,-56.97999954223633 144.6199951171875,-56.97999954223633z"></path></g><g opacity="1" transform="matrix(1,0,0,1,0,0)"><path stroke-linecap="round" stroke-linejoin="round" fill-opacity="0" stroke="rgb(0,0,0)" stroke-opacity="1" stroke-width="16" d=" M44.68000030517578,165.97999572753906 C44.68000030517578,165.97999572753906 333.9200134277344,165.97999572753906 333.9200134277344,165.97999572753906"></path></g></g></g></g></svg>