<?xml version="1.0" encoding="UTF-8"?>
<svg xmlns="http://www.w3.org/2000/svg" xmlns:xlink="http://www.w3.org/1999/xlink" viewBox="0 0 16 16" width="16" height="16" preserveAspectRatio="xMidYMid meet" style="width: 100%; height: 100%; transform: translate3d(0px, 0px, 0px); content-visibility: visible;"><defs><clipPath id="__lottie_element_212"><rect width="16" height="16" x="0" y="0"></rect></clipPath><clipPath id="__lottie_element_216"><path d="M0,0 L17,0 L17,17 L0,17z"></path></clipPath><g id="__lottie_element_219"><g transform="matrix(1,0,0,1,-4,-4)" opacity="1" style="display: block;"><g opacity="1" transform="matrix(1,0,0,1,4.5,4.380000114440918)"><g opacity="1" transform="matrix(1,0,0,1,8,8)"><path fill="rgb(0,0,0)" fill-opacity="1" d=" M8,-8 C8,-8 8,8 8,8 C8,8 -8,8 -8,8 C-8,8 -8,-8 -8,-8 C-8,-8 8,-8 8,-8z"></path></g></g></g></g><clipPath id="__lottie_element_223"><path d="M0,0 L17,0 L17,17 L0,17z"></path></clipPath><mask id="__lottie_element_219_1" mask-type="alpha"><use xlink:href="#__lottie_element_219"></use></mask></defs><g clip-path="url(#__lottie_element_212)"><g clip-path="url(#__lottie_element_216)" transform="matrix(0.8999999761581421,0,0,0.8999999761581421,0.35000020265579224,0.4580000936985016)" opacity="1" style="display: block;"><g mask="url(#__lottie_element_219_1)" style="display: block;"><g clip-path="url(#__lottie_element_223)" transform="matrix(1,0,0,1,0,0)" opacity="1"><g transform="matrix(1,0,0,1,-4,-4)" opacity="1" style="display: block;"><path fill="rgb(0,0,0)" fill-opacity="0" d=" M21,4 C21,4 21,21 21,21 C21,21 4,21 4,21 C4,21 4,4 4,4 C4,4 21,4 21,4z"></path></g><g transform="matrix(1,0,0,1,-4,-4)" opacity="1" style="display: block;"><g opacity="1" transform="matrix(1,0,0,1,5.619999885559082,7.770000457763672)"><path fill="rgb(0,0,0)" fill-opacity="0" d=" M0,0 C2.180000066757202,0.777999997138977 4.360000133514404,1.562000036239624 6.539999961853027,2.3399999141693115 C6.756999969482422,2.4179999828338623 6.993000030517578,2.4179999828338623 7.210000038146973,2.3399999141693115 C9.717000007629395,1.4450000524520874 11.29699993133545,0.8790000081062317 13.729999542236328,0.009999999776482582"></path></g></g><g transform="matrix(1,0,0,1,-4,-4)" opacity="1" style="display: block;"><g opacity="1" transform="matrix(1,0,0,1,5.619999885559082,7.770000457763672)"><path stroke-linecap="butt" stroke-linejoin="miter" fill-opacity="0" stroke-miterlimit="4" stroke="rgb(255,255,255)" stroke-opacity="1" stroke-width="1" d=" M0,0 C2.180000066757202,0.777999997138977 4.360000133514404,1.562000036239624 6.539999961853027,2.3399999141693115 C6.756999969482422,2.4179999828338623 6.993000030517578,2.4179999828338623 7.210000038146973,2.3399999141693115 C9.717000007629395,1.4450000524520874 11.29699993133545,0.8790000081062317 13.729999542236328,0.009999999776482582"></path></g></g><g transform="matrix(1,0,0,1,-4,-4)" opacity="1" style="display: block;"><g opacity="1" transform="matrix(1,0,0,1,12.5,10.229999542236328)"><path fill="rgb(0,0,0)" fill-opacity="0" d=" M0,0 C0,3.2139999866485596 0,6.426000118255615 0,9.640000343322754"></path></g></g><g transform="matrix(1,0,0,1,-4,-4)" opacity="1" style="display: block;"><g opacity="1" transform="matrix(1,0,0,1,12.5,10.229999542236328)"><path stroke-linecap="butt" stroke-linejoin="miter" fill-opacity="0" stroke-miterlimit="4" stroke="rgb(255,255,255)" stroke-opacity="1" stroke-width="1" d=" M0,0 C0,3.2139999866485596 0,6.426000118255615 0,9.640000343322754"></path></g></g><g transform="matrix(1,0,0,1,-4,-4)" opacity="1" style="display: block;"><g opacity="1" transform="matrix(1,0,0,1,5,5)"><path fill="rgb(255,255,255)" fill-opacity="1" d=" M15,10.789999961853027 C15,11.635000228881836 14.465999603271484,12.38599967956543 13.670000076293945,12.670000076293945 C11.836999893188477,13.324999809265137 10.003000259399414,13.984999656677246 8.170000076293945,14.640000343322754 C7.735000133514404,14.795000076293945 7.264999866485596,14.795000076293945 6.829999923706055,14.640000343322754 C4.997000217437744,13.984999656677246 3.1630001068115234,13.324999809265137 1.3300000429153442,12.670000076293945 C0.5339999794960022,12.38599967956543 0,11.635000228881836 0,10.789999961853027 C0,8.515000343322754 0,6.235000133514404 0,3.9600000381469727 C0,3.115000009536743 0.5339999794960022,2.364000082015991 1.3300000429153442,2.0799999237060547 C3.1630001068115234,1.4249999523162842 4.997000217437744,0.7749999761581421 6.829999923706055,0.11999999731779099 C7.264999866485596,-0.03500000014901161 7.735000133514404,-0.03500000014901161 8.170000076293945,0.11999999731779099 C10.003000259399414,0.7749999761581421 11.836999893188477,1.4249999523162842 13.670000076293945,2.0799999237060547 C14.465999603271484,2.364000082015991 15,3.115000009536743 15,3.9600000381469727 C15,6.235000133514404 15,8.515000343322754 15,10.789999961853027 C15,10.789999961853027 15,10.789999961853027 15,10.789999961853027 C15,10.789999961853027 15,10.789999961853027 15,10.789999961853027z"></path><path stroke-linecap="square" stroke-linejoin="miter" fill-opacity="0" stroke-miterlimit="4" stroke="rgb(255,255,255)" stroke-opacity="1" stroke-width="1" d=" M15,10.789999961853027 C15,11.635000228881836 14.465999603271484,12.38599967956543 13.670000076293945,12.670000076293945 C11.836999893188477,13.324999809265137 10.003000259399414,13.984999656677246 8.170000076293945,14.640000343322754 C7.735000133514404,14.795000076293945 7.264999866485596,14.795000076293945 6.829999923706055,14.640000343322754 C4.997000217437744,13.984999656677246 3.1630001068115234,13.324999809265137 1.3300000429153442,12.670000076293945 C0.5339999794960022,12.38599967956543 0,11.635000228881836 0,10.789999961853027 C0,8.515000343322754 0,6.235000133514404 0,3.9600000381469727 C0,3.115000009536743 0.5339999794960022,2.364000082015991 1.3300000429153442,2.0799999237060547 C3.1630001068115234,1.4249999523162842 4.997000217437744,0.7749999761581421 6.829999923706055,0.11999999731779099 C7.264999866485596,-0.03500000014901161 7.735000133514404,-0.03500000014901161 8.170000076293945,0.11999999731779099 C10.003000259399414,0.7749999761581421 11.836999893188477,1.4249999523162842 13.670000076293945,2.0799999237060547 C14.465999603271484,2.364000082015991 15,3.115000009536743 15,3.9600000381469727 C15,6.235000133514404 15,8.515000343322754 15,10.789999961853027 C15,10.789999961853027 15,10.789999961853027 15,10.789999961853027 C15,10.789999961853027 15,10.789999961853027 15,10.789999961853027z"></path></g></g><g transform="matrix(1,0,0,1,-4,-4)" opacity="1" style="display: block;"><g opacity="1" transform="matrix(1,0,0,1,6.339999675750732,9.970000267028809)"><path fill="rgb(0,0,0)" fill-opacity="1" d=" M0.800000011920929,2.140000104904175 C1.24399995803833,2.140000104904175 1.6100000143051147,1.6619999408721924 1.6100000143051147,1.0700000524520874 C1.6100000143051147,0.4779999852180481 1.24399995803833,0 0.800000011920929,0 C0.35600000619888306,0 0,0.4779999852180481 0,1.0700000524520874 C0,1.6619999408721924 0.35600000619888306,2.140000104904175 0.800000011920929,2.140000104904175 C0.800000011920929,2.140000104904175 0.800000011920929,2.140000104904175 0.800000011920929,2.140000104904175 C0.800000011920929,2.140000104904175 0.800000011920929,2.140000104904175 0.800000011920929,2.140000104904175z"></path></g></g><g transform="matrix(1,0,0,1,-4,-4)" opacity="1" style="display: block;"><g opacity="1" transform="matrix(1,0,0,1,7.949999809265137,12.65000057220459)"><path fill="rgb(0,0,0)" fill-opacity="1" d=" M0.800000011920929,2.140000104904175 C1.24399995803833,2.140000104904175 1.6100000143051147,1.6619999408721924 1.6100000143051147,1.0700000524520874 C1.6100000143051147,0.4779999852180481 1.24399995803833,0 0.800000011920929,0 C0.35600000619888306,0 0,0.4779999852180481 0,1.0700000524520874 C0,1.6619999408721924 0.35600000619888306,2.140000104904175 0.800000011920929,2.140000104904175 C0.800000011920929,2.140000104904175 0.800000011920929,2.140000104904175 0.800000011920929,2.140000104904175 C0.800000011920929,2.140000104904175 0.800000011920929,2.140000104904175 0.800000011920929,2.140000104904175z"></path></g></g><g transform="matrix(1,0,0,1,-4,-4)" opacity="1" style="display: block;"><g opacity="1" transform="matrix(1,0,0,1,9.559999465942383,15.319999694824219)"><path fill="rgb(0,0,0)" fill-opacity="1" d=" M0.800000011920929,2.140000104904175 C1.24399995803833,2.140000104904175 1.6100000143051147,1.6619999408721924 1.6100000143051147,1.0700000524520874 C1.6100000143051147,0.4779999852180481 1.24399995803833,0 0.800000011920929,0 C0.35600000619888306,0 0,0.4779999852180481 0,1.0700000524520874 C0,1.6619999408721924 0.35600000619888306,2.140000104904175 0.800000011920929,2.140000104904175 C0.800000011920929,2.140000104904175 0.800000011920929,2.140000104904175 0.800000011920929,2.140000104904175 C0.800000011920929,2.140000104904175 0.800000011920929,2.140000104904175 0.800000011920929,2.140000104904175z"></path></g></g><g transform="matrix(1,0,0,1,-4,-4)" opacity="1" style="display: block;"><g opacity="1" transform="matrix(1,0,0,1,15.449999809265137,12.65000057220459)"><path fill="rgb(0,0,0)" fill-opacity="1" d=" M0.800000011920929,2.140000104904175 C1.24399995803833,2.140000104904175 1.6100000143051147,1.6619999408721924 1.6100000143051147,1.0700000524520874 C1.6100000143051147,0.4779999852180481 1.24399995803833,0 0.800000011920929,0 C0.35600000619888306,0 0,0.4779999852180481 0,1.0700000524520874 C0,1.6619999408721924 0.35600000619888306,2.140000104904175 0.800000011920929,2.140000104904175 C0.800000011920929,2.140000104904175 0.800000011920929,2.140000104904175 0.800000011920929,2.140000104904175 C0.800000011920929,2.140000104904175 0.800000011920929,2.140000104904175 0.800000011920929,2.140000104904175z"></path></g></g><g transform="matrix(1,0,0,1,-4,-4)" opacity="1" style="display: block;"><g opacity="1" transform="matrix(1,0,0,1,9.5600004196167,7.010000228881836)"><path fill="rgb(0,0,0)" fill-opacity="1" d=" M1.0700000524520874,1.0700000524520874 C1.6619999408721924,1.0700000524520874 2.140000104904175,0.8360000252723694 2.140000104904175,0.5400000214576721 C2.140000104904175,0.24400000274181366 1.6619999408721924,0 1.0700000524520874,0 C0.4779999852180481,0 0,0.24400000274181366 0,0.5400000214576721 C0,0.8360000252723694 0.4779999852180481,1.0700000524520874 1.0700000524520874,1.0700000524520874 C1.0700000524520874,1.0700000524520874 1.0700000524520874,1.0700000524520874 1.0700000524520874,1.0700000524520874 C1.0700000524520874,1.0700000524520874 1.0700000524520874,1.0700000524520874 1.0700000524520874,1.0700000524520874z"></path></g></g><g transform="matrix(1,0,0,1,-4,-4)" opacity="1" style="display: block;"><g opacity="1" transform="matrix(1,0,0,1,13.300000190734863,7.010000228881836)"><path fill="rgb(0,0,0)" fill-opacity="1" d=" M1.0700000524520874,1.0700000524520874 C1.6619999408721924,1.0700000524520874 2.140000104904175,0.8360000252723694 2.140000104904175,0.5400000214576721 C2.140000104904175,0.24400000274181366 1.6619999408721924,0 1.0700000524520874,0 C0.4779999852180481,0 0,0.24400000274181366 0,0.5400000214576721 C0,0.8360000252723694 0.4779999852180481,1.0700000524520874 1.0700000524520874,1.0700000524520874 C1.0700000524520874,1.0700000524520874 1.0700000524520874,1.0700000524520874 1.0700000524520874,1.0700000524520874 C1.0700000524520874,1.0700000524520874 1.0700000524520874,1.0700000524520874 1.0700000524520874,1.0700000524520874z"></path></g></g></g></g></g></g></svg>