<?xml version="1.0" encoding="UTF-8"?>
<svg xmlns="http://www.w3.org/2000/svg" xmlns:xlink="http://www.w3.org/1999/xlink" viewBox="0 0 500 500" width="500" height="500" preserveAspectRatio="xMidYMid meet" style="width: 100%; height: 100%; transform: translate3d(0px, 0px, 0px); content-visibility: visible;"><defs><clipPath id="__lottie_element_335"><rect width="500" height="500" x="0" y="0"></rect></clipPath><clipPath id="__lottie_element_366"><path d="M0,0 L155,0 L155,184 L0,184z"></path></clipPath><g id="__lottie_element_369"><g transform="matrix(1,0,0,1,-164,-250)" opacity="1" style="display: block;"><g opacity="1" transform="matrix(1,0,0,1,0,0)"><g opacity="1" transform="matrix(1,0,0,1,250,341.9599914550781)"><path fill="rgb(255,0,0)" fill-opacity="1" d=" M-49.400001525878906,-22.799999237060547 C-26.600000381469727,-53.19900131225586 -38,-91.19999694824219 -38,-91.19999694824219 C-37.99599838256836,-91.197998046875 15.201000213623047,-68.39900207519531 12.699999809265137,-3.799999952316284 C34.20100021362305,-11.399999618530273 41.79999923706055,-49.400001525878906 41.79999923706055,-49.400001525878906 C41.79999923706055,-49.400001525878906 68.4000015258789,-15.199000358581543 68.4000015258789,22.799999237060547 C68.4000015258789,60.57500076293945 37.7760009765625,91.19999694824219 0,91.19999694824219 C-37.7760009765625,91.19999694824219 -68.4000015258789,60.58000183105469 -68.4000015258789,22.799999237060547 C-68.39900207519531,6.099999904632568 -59.152000427246094,-9.79699993133545 -49.400001525878906,-22.799999237060547 C-49.400001525878906,-22.799999237060547 -49.400001525878906,-22.799999237060547 -49.400001525878906,-22.799999237060547z"></path></g></g></g></g><clipPath id="__lottie_element_373"><path d="M0,0 L155,0 L155,184 L0,184z"></path></clipPath><mask id="__lottie_element_369_1" mask-type="alpha"><use xlink:href="#__lottie_element_369"></use></mask><clipPath id="__lottie_element_387"><path d="M0,0 L309,0 L309,373 L0,373z"></path></clipPath><g id="__lottie_element_390"><g transform="matrix(1,0,0,1,-82,-61)" opacity="1" style="display: block;"><g opacity="1" transform="matrix(1,0,0,1,0,0)"><g opacity="1" transform="matrix(1,0,0,1,250,250)"><path fill="rgb(255,0,0)" fill-opacity="1" d=" M-98.80000305175781,-44.84000015258789 C-53.20100021362305,-105.63899993896484 -76,-183.16000366210938 -76,-183.16000366210938 C-75.99099731445312,-183.156005859375 30.402000427246094,-136.03799438476562 25.399999618530273,-6.840000152587891 C68.4020004272461,-22.040000915527344 83.5999984741211,-98.04000091552734 83.5999984741211,-98.04000091552734 C83.5999984741211,-98.04000091552734 136.8000030517578,-29.638999938964844 136.8000030517578,46.36000061035156 C136.8000030517578,121.91100311279297 75.5510025024414,183.16000366210938 0,183.16000366210938 C-75.5510025024414,183.16000366210938 -136.8000030517578,121.90899658203125 -136.8000030517578,46.349998474121094 C-136.7969970703125,12.949999809265137 -118.30500030517578,-18.833999633789062 -98.80000305175781,-44.84000015258789 C-98.80000305175781,-44.84000015258789 -98.80000305175781,-44.84000015258789 -98.80000305175781,-44.84000015258789z"></path></g></g></g></g><clipPath id="__lottie_element_394"><path d="M0,0 L309,0 L309,373 L0,373z"></path></clipPath><mask id="__lottie_element_390_1" mask-type="alpha"><use xlink:href="#__lottie_element_390"></use></mask></defs><g clip-path="url(#__lottie_element_335)"><g transform="matrix(1.2599999904632568,0,0,1.2599999904632568,252.67999267578125,252.6300048828125)" opacity="1" style="display: block;"><g opacity="1" transform="matrix(1,0,0,1,4.059999942779541,2.0399999618530273)"><path fill="rgb(255,16,0)" fill-opacity="1" d=" M-98.80000305175781,-44.84000015258789 C-53.20100021362305,-105.63899993896484 -76,-183.16000366210938 -76,-183.16000366210938 C-75.99099731445312,-183.156005859375 30.402000427246094,-136.03799438476562 25.399999618530273,-6.840000152587891 C68.4020004272461,-22.040000915527344 83.5999984741211,-98.04000091552734 83.5999984741211,-98.04000091552734 C83.5999984741211,-98.04000091552734 136.8000030517578,-29.638999938964844 136.8000030517578,46.36000061035156 C136.8000030517578,121.91100311279297 75.5510025024414,183.16000366210938 0,183.16000366210938 C-75.5510025024414,183.16000366210938 -136.8000030517578,121.90899658203125 -136.8000030517578,46.349998474121094 C-136.7969970703125,12.949999809265137 -118.30500030517578,-18.833999633789062 -98.80000305175781,-44.84000015258789 C-98.80000305175781,-44.84000015258789 -98.80000305175781,-44.84000015258789 -98.80000305175781,-44.84000015258789z"></path></g></g><g clip-path="url(#__lottie_element_387)" transform="matrix(1.2599999904632568,0,0,1.2599999904632568,46.11559295654297,17.06039810180664)" opacity="1" style="display: block;"><g mask="url(#__lottie_element_390_1)" style="display: block;"><g clip-path="url(#__lottie_element_394)" transform="matrix(1,0,0,1,0,0)" opacity="1"><g transform="matrix(1,0,0,1,-82,-61)" opacity="1" style="display: block;"><path fill="rgb(0,0,0)" fill-opacity="0" d=" M391,61 C391,61 391,434 391,434 C391,434 82,434 82,434 C82,434 82,61 82,61 C82,61 391,61 391,61z"></path></g><g transform="matrix(1,0,0,1,-82,-61)" opacity="1" style="display: block;"><g opacity="1" transform="matrix(1,0,0,1,245.83999633789062,255.3800048828125)"><path fill="rgb(255,16,0)" fill-opacity="1" d=" M122.20999908447266,87.80999755859375 C105.73799896240234,98.06500244140625 87.41600036621094,104.89199829101562 67.97000122070312,107.44000244140625 C62.334999084472656,108.18099975585938 56.60300064086914,108.55999755859375 50.79999923706055,108.55999755859375 C13.329000473022461,108.55999755859375 -20.92799949645996,92.77300262451172 -47.2400016784668,66.66999816894531 C-73.0770034790039,41.042999267578125 -91.24099731445312,5.458000183105469 -97.23999786376953,-34.88999938964844 C-102.947998046875,-137.947998046875 -87.31999969482422,-229.7899932861328 -87.31999969482422,-229.7899932861328 C-87.31999969482422,-229.7899932861328 -242.80999755859375,-229.7899932861328 -242.80999755859375,-229.7899932861328 C-242.80999755859375,-229.7899932861328 -242.80999755859375,229.7899932861328 -242.80999755859375,229.7899932861328 C-242.80999755859375,229.7899932861328 242.80999755859375,229.7899932861328 242.80999755859375,229.7899932861328 C242.80999755859375,229.7899932861328 242.80999755859375,-31.399999618530273 242.80999755859375,-31.399999618530273 C242.80999755859375,-31.399999618530273 192.3350067138672,42.73099899291992 122.20999908447266,87.80999755859375 C122.20999908447266,87.80999755859375 122.20999908447266,87.80999755859375 122.20999908447266,87.80999755859375z"></path></g></g></g></g></g><g transform="matrix(1.2599999904632568,0,0,1.2599999904632568,252.67999267578125,252.6300048828125)" opacity="1" style="display: block;"><g opacity="1" transform="matrix(1,0,0,1,4.059999942779541,94)"><path fill="rgb(255,159,26)" fill-opacity="1" d=" M-49.400001525878906,-22.799999237060547 C-26.600000381469727,-53.19900131225586 -38,-91.19999694824219 -38,-91.19999694824219 C-37.99599838256836,-91.197998046875 15.201000213623047,-68.39900207519531 12.699999809265137,-3.799999952316284 C34.20100021362305,-11.399999618530273 41.79999923706055,-49.400001525878906 41.79999923706055,-49.400001525878906 C41.79999923706055,-49.400001525878906 68.4000015258789,-15.199000358581543 68.4000015258789,22.799999237060547 C68.4000015258789,60.57500076293945 37.7760009765625,91.19999694824219 0,91.19999694824219 C-37.7760009765625,91.19999694824219 -68.4000015258789,60.58000183105469 -68.4000015258789,22.799999237060547 C-68.39900207519531,6.099999904632568 -59.152000427246094,-9.79699993133545 -49.400001525878906,-22.799999237060547 C-49.400001525878906,-22.799999237060547 -49.400001525878906,-22.799999237060547 -49.400001525878906,-22.799999237060547z"></path></g></g><g clip-path="url(#__lottie_element_366)" transform="matrix(1.2599999904632568,0,0,1.2599999904632568,149.4355926513672,255.2003936767578)" opacity="1" style="display: block;"><g mask="url(#__lottie_element_369_1)" style="display: block;"><g clip-path="url(#__lottie_element_373)" transform="matrix(1,0,0,1,0,0)" opacity="1"><g transform="matrix(1,0,0,1,-164,-250)" opacity="1" style="display: block;"><path fill="rgb(0,0,0)" fill-opacity="0" d=" M319,250 C319,250 319,434 319,434 C319,434 164,434 164,434 C164,434 164,250 164,250 C164,250 319,250 319,250z"></path></g><g transform="matrix(1,0,0,1,-164,-250)" opacity="1" style="display: block;"><g opacity="1" transform="matrix(1,0,0,1,245.83999633789062,255.3800048828125)"><path fill="rgb(255,159,26)" fill-opacity="1" d=" M122.20999908447266,87.80999755859375 C105.73799896240234,98.06500244140625 87.41600036621094,104.89199829101562 67.97000122070312,107.44000244140625 C62.334999084472656,108.18099975585938 56.60300064086914,108.55999755859375 50.79999923706055,108.55999755859375 C13.329000473022461,108.55999755859375 -20.92799949645996,92.77300262451172 -47.2400016784668,66.66999816894531 C-73.0770034790039,41.042999267578125 -91.24099731445312,5.458000183105469 -97.23999786376953,-34.88999938964844 C-102.947998046875,-137.947998046875 -87.31999969482422,-229.7899932861328 -87.31999969482422,-229.7899932861328 C-87.31999969482422,-229.7899932861328 -242.80999755859375,-229.7899932861328 -242.80999755859375,-229.7899932861328 C-242.80999755859375,-229.7899932861328 -242.80999755859375,229.7899932861328 -242.80999755859375,229.7899932861328 C-242.80999755859375,229.7899932861328 242.80999755859375,229.7899932861328 242.80999755859375,229.7899932861328 C242.80999755859375,229.7899932861328 242.80999755859375,-31.399999618530273 242.80999755859375,-31.399999618530273 C242.80999755859375,-31.399999618530273 192.3350067138672,42.73099899291992 122.20999908447266,87.80999755859375 C122.20999908447266,87.80999755859375 122.20999908447266,87.80999755859375 122.20999908447266,87.80999755859375z"></path></g></g></g></g></g><g transform="matrix(1.2599999904632568,0,0,1.2599999904632568,252.67999267578125,252.6300048828125)" opacity="1" style="display: block;"><g opacity="1" transform="matrix(1,0,0,1,4.059999942779541,2.0399999618530273)"><path stroke-linecap="butt" stroke-linejoin="round" fill-opacity="0" stroke="rgb(255,0,0)" stroke-opacity="1" stroke-width="22" d=" M-98.80000305175781,-44.84000015258789 C-53.20100021362305,-105.63899993896484 -76,-183.16000366210938 -76,-183.16000366210938 C-75.99099731445312,-183.156005859375 30.402000427246094,-136.03799438476562 25.399999618530273,-6.840000152587891 C68.4020004272461,-22.040000915527344 83.5999984741211,-98.04000091552734 83.5999984741211,-98.04000091552734 C83.5999984741211,-98.04000091552734 136.8000030517578,-29.638999938964844 136.8000030517578,46.36000061035156 C136.8000030517578,121.91100311279297 75.5510025024414,183.16000366210938 0,183.16000366210938 C-75.5510025024414,183.16000366210938 -136.8000030517578,121.90899658203125 -136.8000030517578,46.349998474121094 C-136.7969970703125,12.949999809265137 -118.30500030517578,-18.833999633789062 -98.80000305175781,-44.84000015258789 C-98.80000305175781,-44.84000015258789 -98.80000305175781,-44.84000015258789 -98.80000305175781,-44.84000015258789z"></path></g></g><g style="display: none;"><g><g><path stroke-linecap="round" stroke-linejoin="miter" fill-opacity="0" stroke-miterlimit="4"></path></g></g></g><g style="display: none;"><g><g><path stroke-linecap="round" stroke-linejoin="miter" fill-opacity="0" stroke-miterlimit="4"></path></g></g></g><g style="display: none;"><g><g><path stroke-linecap="round" stroke-linejoin="miter" fill-opacity="0" stroke-miterlimit="4"></path></g></g></g><g style="display: none;"><g><g><path stroke-linecap="round" stroke-linejoin="miter" fill-opacity="0" stroke-miterlimit="4"></path></g></g></g><g style="display: none;"><g><g><path stroke-linecap="round" stroke-linejoin="miter" fill-opacity="0" stroke-miterlimit="4"></path></g></g></g><g style="display: none;"><g><g><path stroke-linecap="round" stroke-linejoin="miter" fill-opacity="0" stroke-miterlimit="4"></path></g></g></g><g style="display: none;"><g><g><path stroke-linecap="round" stroke-linejoin="miter" fill-opacity="0" stroke-miterlimit="4"></path></g></g></g><g style="display: none;"><g><g><path stroke-linecap="round" stroke-linejoin="miter" fill-opacity="0" stroke-miterlimit="4"></path></g></g></g></g></svg>