<?xml version="1.0" encoding="UTF-8"?>
<svg xmlns="http://www.w3.org/2000/svg" xmlns:xlink="http://www.w3.org/1999/xlink" viewBox="0 0 16 16" width="16" height="16" preserveAspectRatio="xMidYMid meet" style="width: 100%; height: 100%; transform: translate3d(0px, 0px, 0px); content-visibility: visible;"><defs><clipPath id="__lottie_element_407"><rect width="16" height="16" x="0" y="0"></rect></clipPath><clipPath id="__lottie_element_411"><path d="M0,0 L17,0 L17,17 L0,17z"></path></clipPath><g id="__lottie_element_414"><g transform="matrix(1,0,0,1,-5,-5)" opacity="1" style="display: block;"><g opacity="1" transform="matrix(1,0,0,1,6,6)"><g opacity="1" transform="matrix(1,0,0,1,8,8)"><path fill="rgb(0,0,0)" fill-opacity="1" d=" M8,-8 C8,-8 8,8 8,8 C8,8 -8,8 -8,8 C-8,8 -8,-8 -8,-8 C-8,-8 8,-8 8,-8z"></path></g></g></g></g><clipPath id="__lottie_element_418"><path d="M0,0 L17,0 L17,17 L0,17z"></path></clipPath><mask id="__lottie_element_414_1" mask-type="alpha"><use xlink:href="#__lottie_element_414"></use></mask></defs><g clip-path="url(#__lottie_element_407)"><g clip-path="url(#__lottie_element_411)" transform="matrix(0.8899999856948853,0,0,0.8899999856948853,-0.009999871253967285,-0.209999680519104)" opacity="1" style="display: block;"><g mask="url(#__lottie_element_414_1)" style="display: block;"><g clip-path="url(#__lottie_element_418)" transform="matrix(1,0,0,1,0,0)" opacity="1"><g transform="matrix(1,0,0,1,-5,-5)" opacity="1" style="display: block;"><path fill="rgb(0,0,0)" fill-opacity="0" d=" M22,5 C22,5 22,22 22,22 C22,22 5,22 5,22 C5,22 5,5 5,5 C5,5 22,5 22,5z"></path></g><g transform="matrix(1,0,0,1,-5,-5)" opacity="1" style="display: block;"><g opacity="1" transform="matrix(1,0,0,1,6.5,6.5)"><path fill="rgb(255,255,255)" fill-opacity="1" d=" M10.609999656677246,0 C8.538999557495117,0 6.460999965667725,0 4.389999866485596,0 C2.9260001182556152,1.4639999866485596 1.4639999866485596,2.9260001182556152 0,4.389999866485596 C0,6.460999965667725 0,8.538999557495117 0,10.609999656677246 C1.4639999866485596,12.074999809265137 2.9260001182556152,13.53499984741211 4.389999866485596,15 C6.460999965667725,15 8.538999557495117,15 10.609999656677246,15 C12.074999809265137,13.53499984741211 13.53499984741211,12.074999809265137 15,10.609999656677246 C15,8.538999557495117 15,6.460999965667725 15,4.389999866485596 C13.53499984741211,2.9260001182556152 12.074999809265137,1.4639999866485596 10.609999656677246,0 C10.609999656677246,0 10.609999656677246,0 10.609999656677246,0 C10.609999656677246,0 10.609999656677246,0 10.609999656677246,0z"></path><path stroke-linecap="butt" stroke-linejoin="miter" fill-opacity="0" stroke-miterlimit="4" stroke="rgb(255,255,255)" stroke-opacity="1" stroke-width="1" d=" M10.609999656677246,0 C8.538999557495117,0 6.460999965667725,0 4.389999866485596,0 C2.9260001182556152,1.4639999866485596 1.4639999866485596,2.9260001182556152 0,4.389999866485596 C0,6.460999965667725 0,8.538999557495117 0,10.609999656677246 C1.4639999866485596,12.074999809265137 2.9260001182556152,13.53499984741211 4.389999866485596,15 C6.460999965667725,15 8.538999557495117,15 10.609999656677246,15 C12.074999809265137,13.53499984741211 13.53499984741211,12.074999809265137 15,10.609999656677246 C15,8.538999557495117 15,6.460999965667725 15,4.389999866485596 C13.53499984741211,2.9260001182556152 12.074999809265137,1.4639999866485596 10.609999656677246,0 C10.609999656677246,0 10.609999656677246,0 10.609999656677246,0 C10.609999656677246,0 10.609999656677246,0 10.609999656677246,0z"></path></g></g><g transform="matrix(1,0,0,1,-5,-5)" opacity="1" style="display: block;"><g opacity="1" transform="matrix(1,0,0,1,9.300000190734863,9.300000190734863)"><path fill="rgb(0,0,0)" fill-opacity="0" d=" M6.639999866485596,0 C5.3429999351501465,0 4.046999931335449,0 2.75,0 C1.8329999446868896,0.9169999957084656 0.9169999957084656,1.8329999446868896 0,2.75 C0,4.046999931335449 0,5.3429999351501465 0,6.639999866485596 C0.9169999957084656,7.557000160217285 1.8329999446868896,8.472999572753906 2.75,9.390000343322754 C4.046999931335449,9.390000343322754 5.3429999351501465,9.390000343322754 6.639999866485596,9.390000343322754 C7.557000160217285,8.472999572753906 8.472999572753906,7.557000160217285 9.390000343322754,6.639999866485596 C9.390000343322754,5.3429999351501465 9.390000343322754,4.046999931335449 9.390000343322754,2.75 C8.472999572753906,1.8329999446868896 7.557000160217285,0.9169999957084656 6.639999866485596,0 C6.639999866485596,0 6.639999866485596,0 6.639999866485596,0 C6.639999866485596,0 6.639999866485596,0 6.639999866485596,0z"></path></g></g><g transform="matrix(1,0,0,1,-5,-5)" opacity="1" style="display: block;"><g opacity="1" transform="matrix(1,0,0,1,9.300000190734863,9.300000190734863)"><path stroke-linecap="butt" stroke-linejoin="miter" fill-opacity="0" stroke-miterlimit="4" stroke="rgb(0,0,0)" stroke-opacity="1" stroke-width="1" d=" M6.639999866485596,0 C5.3429999351501465,0 4.046999931335449,0 2.75,0 C1.8329999446868896,0.9169999957084656 0.9169999957084656,1.8329999446868896 0,2.75 C0,4.046999931335449 0,5.3429999351501465 0,6.639999866485596 C0.9169999957084656,7.557000160217285 1.8329999446868896,8.472999572753906 2.75,9.390000343322754 C4.046999931335449,9.390000343322754 5.3429999351501465,9.390000343322754 6.639999866485596,9.390000343322754 C7.557000160217285,8.472999572753906 8.472999572753906,7.557000160217285 9.390000343322754,6.639999866485596 C9.390000343322754,5.3429999351501465 9.390000343322754,4.046999931335449 9.390000343322754,2.75 C8.472999572753906,1.8329999446868896 7.557000160217285,0.9169999957084656 6.639999866485596,0 C6.639999866485596,0 6.639999866485596,0 6.639999866485596,0 C6.639999866485596,0 6.639999866485596,0 6.639999866485596,0z"></path></g></g><g transform="matrix(1,0,0,1,-5,-5)" opacity="1" style="display: block;"><g opacity="1" transform="matrix(1,0,0,1,16,5)"><path fill="rgb(0,0,0)" fill-opacity="0" d=" M0,4 C0.6669999957084656,2.6670000553131104 1.3329999446868896,1.3329999446868896 2,0"></path></g></g><g transform="matrix(1,0,0,1,-5,-5)" opacity="1" style="display: block;"><g opacity="1" transform="matrix(1,0,0,1,16,5)"><path stroke-linecap="butt" stroke-linejoin="miter" fill-opacity="0" stroke-miterlimit="4" stroke="rgb(0,0,0)" stroke-opacity="1" stroke-width="1" d=" M0,4 C0.6669999957084656,2.6670000553131104 1.3329999446868896,1.3329999446868896 2,0"></path></g></g><g transform="matrix(1,0,0,1,-5,-5)" opacity="1" style="display: block;"><g opacity="1" transform="matrix(1,0,0,1,18,10)"><path fill="rgb(0,0,0)" fill-opacity="0" d=" M0,2 C1.6670000553131104,1.3329999446868896 3.3329999446868896,0.6669999957084656 5,0"></path></g></g><g transform="matrix(1,0,0,1,-5,-5)" opacity="1" style="display: block;"><g opacity="1" transform="matrix(1,0,0,1,18,10)"><path stroke-linecap="butt" stroke-linejoin="miter" fill-opacity="0" stroke-miterlimit="4" stroke="rgb(0,0,0)" stroke-opacity="1" stroke-width="1" d=" M0,2 C1.6670000553131104,1.3329999446868896 3.3329999446868896,0.6669999957084656 5,0"></path></g></g><g transform="matrix(1,0,0,1,-5,-5)" opacity="1" style="display: block;"><g opacity="1" transform="matrix(1,0,0,1,18,16)"><path fill="rgb(0,0,0)" fill-opacity="0" d=" M0,0 C1.6670000553131104,0.6669999957084656 3.3329999446868896,1.3329999446868896 5,2"></path></g></g><g transform="matrix(1,0,0,1,-5,-5)" opacity="1" style="display: block;"><g opacity="1" transform="matrix(1,0,0,1,18,16)"><path stroke-linecap="butt" stroke-linejoin="miter" fill-opacity="0" stroke-miterlimit="4" stroke="rgb(0,0,0)" stroke-opacity="1" stroke-width="1" d=" M0,0 C1.6670000553131104,0.6669999957084656 3.3329999446868896,1.3329999446868896 5,2"></path></g></g><g transform="matrix(1,0,0,1,-5,-5)" opacity="1" style="display: block;"><g opacity="1" transform="matrix(1,0,0,1,10.5,5)"><path fill="rgb(0,0,0)" fill-opacity="0" d=" M0,0 C0.5180000066757202,1.434000015258789 1.031999945640564,2.865999937057495 1.5499999523162842,4.300000190734863"></path></g></g><g transform="matrix(1,0,0,1,-5,-5)" opacity="1" style="display: block;"><g opacity="1" transform="matrix(1,0,0,1,10.5,5)"><path stroke-linecap="butt" stroke-linejoin="miter" fill-opacity="0" stroke-miterlimit="4" stroke="rgb(0,0,0)" stroke-opacity="1" stroke-width="1" d=" M0,0 C0.5180000066757202,1.434000015258789 1.031999945640564,2.865999937057495 1.5499999523162842,4.300000190734863"></path></g></g><g transform="matrix(1,0,0,1,-5,-5)" opacity="1" style="display: block;"><g opacity="1" transform="matrix(1,0,0,1,5,10)"><path fill="rgb(0,0,0)" fill-opacity="0" d=" M4,2 C2.6670000553131104,1.3329999446868896 1.3329999446868896,0.6669999957084656 0,0"></path></g></g><g transform="matrix(1,0,0,1,-5,-5)" opacity="1" style="display: block;"><g opacity="1" transform="matrix(1,0,0,1,5,10)"><path stroke-linecap="butt" stroke-linejoin="miter" fill-opacity="0" stroke-miterlimit="4" stroke="rgb(0,0,0)" stroke-opacity="1" stroke-width="1" d=" M4,2 C2.6670000553131104,1.3329999446868896 1.3329999446868896,0.6669999957084656 0,0"></path></g></g><g transform="matrix(1,0,0,1,-5,-5)" opacity="1" style="display: block;"><g opacity="1" transform="matrix(1,0,0,1,5,16)"><path fill="rgb(0,0,0)" fill-opacity="0" d=" M4,0 C2.6670000553131104,0.6669999957084656 1.3329999446868896,1.3329999446868896 0,2"></path></g></g><g transform="matrix(1,0,0,1,-5,-5)" opacity="1" style="display: block;"><g opacity="1" transform="matrix(1,0,0,1,5,16)"><path stroke-linecap="butt" stroke-linejoin="miter" fill-opacity="0" stroke-miterlimit="4" stroke="rgb(0,0,0)" stroke-opacity="1" stroke-width="1" d=" M4,0 C2.6670000553131104,0.6669999957084656 1.3329999446868896,1.3329999446868896 0,2"></path></g></g><g transform="matrix(1,0,0,1,-5,-5)" opacity="1" style="display: block;"><g opacity="1" transform="matrix(1,0,0,1,10,18)"><path fill="rgb(0,0,0)" fill-opacity="0" d=" M2,0 C1.3329999446868896,1.6670000553131104 0.6669999957084656,3.3329999446868896 0,5"></path></g></g><g transform="matrix(1,0,0,1,-5,-5)" opacity="1" style="display: block;"><g opacity="1" transform="matrix(1,0,0,1,10,18)"><path stroke-linecap="butt" stroke-linejoin="miter" fill-opacity="0" stroke-miterlimit="4" stroke="rgb(0,0,0)" stroke-opacity="1" stroke-width="1" d=" M2,0 C1.3329999446868896,1.6670000553131104 0.6669999957084656,3.3329999446868896 0,5"></path></g></g><g transform="matrix(1,0,0,1,-5,-5)" opacity="1" style="display: block;"><g opacity="1" transform="matrix(1,0,0,1,16,18)"><path fill="rgb(0,0,0)" fill-opacity="0" d=" M2,5 C1.3329999446868896,3.3329999446868896 0.6669999957084656,1.6670000553131104 0,0"></path></g></g><g transform="matrix(1,0,0,1,-5,-5)" opacity="1" style="display: block;"><g opacity="1" transform="matrix(1,0,0,1,16,18)"><path stroke-linecap="butt" stroke-linejoin="miter" fill-opacity="0" stroke-miterlimit="4" stroke="rgb(0,0,0)" stroke-opacity="1" stroke-width="1" d=" M2,5 C1.3329999446868896,3.3329999446868896 0.6669999957084656,1.6670000553131104 0,0"></path></g></g><g transform="matrix(1,0,0,1,-5,-5)" opacity="1" style="display: block;"><g opacity="1" transform="matrix(1,0,0,1,13.350000381469727,13.579999923706055)"><path fill="rgb(0,0,0)" fill-opacity="0" d=" M2.430000066757202,0 C1.621000051498413,0.8090000152587891 0.8090000152587891,1.621000051498413 0,2.430000066757202"></path></g></g><g transform="matrix(1,0,0,1,-5,-5)" opacity="1" style="display: block;"><g opacity="1" transform="matrix(1,0,0,1,13.350000381469727,13.579999923706055)"><path stroke-linecap="round" stroke-linejoin="miter" fill-opacity="0" stroke-miterlimit="4" stroke="rgb(0,0,0)" stroke-opacity="1" stroke-width="1" d=" M2.430000066757202,0 C1.621000051498413,0.8090000152587891 0.8090000152587891,1.621000051498413 0,2.430000066757202"></path></g></g><g transform="matrix(1,0,0,1,-5,-5)" opacity="1" style="display: block;"><g opacity="1" transform="matrix(1,0,0,1,15,15.180000305175781)"><path fill="rgb(0,0,0)" fill-opacity="0" d=" M1.559999942779541,0 C1.0390000343322754,0.5210000276565552 0.5210000276565552,1.0390000343322754 0,1.559999942779541"></path></g></g><g transform="matrix(1,0,0,1,-5,-5)" opacity="1" style="display: block;"><g opacity="1" transform="matrix(1,0,0,1,15,15.180000305175781)"><path stroke-linecap="round" stroke-linejoin="miter" fill-opacity="0" stroke-miterlimit="4" stroke="rgb(0,0,0)" stroke-opacity="1" stroke-width="1" d=" M1.559999942779541,0 C1.0390000343322754,0.5210000276565552 0.5210000276565552,1.0390000343322754 0,1.559999942779541"></path></g></g></g></g></g></g></svg>