<?xml version="1.0" encoding="UTF-8"?>
<svg xmlns="http://www.w3.org/2000/svg" xmlns:xlink="http://www.w3.org/1999/xlink" viewBox="0 0 16 16" width="16" height="16" preserveAspectRatio="xMidYMid meet" style="width: 100%; height: 100%; transform: translate3d(0px, 0px, 0px); content-visibility: visible;"><defs><clipPath id="__lottie_element_494"><rect width="16" height="16" x="0" y="0"></rect></clipPath><clipPath id="__lottie_element_497"><path d="M0,0 L17,0 L17,17 L0,17z"></path></clipPath><g id="__lottie_element_500"><g transform="matrix(1,0,0,1,-4,-4)" opacity="1" style="display: block;"><g opacity="1" transform="matrix(1,0,0,1,4.5,4.489999771118164)"><g opacity="1" transform="matrix(1,0,0,1,8,8)"><path fill="rgb(0,0,0)" fill-opacity="1" d=" M8,-8 C8,-8 8,8 8,8 C8,8 -8,8 -8,8 C-8,8 -8,-8 -8,-8 C-8,-8 8,-8 8,-8z"></path></g></g></g></g><clipPath id="__lottie_element_504"><path d="M0,0 L17,0 L17,17 L0,17z"></path></clipPath><mask id="__lottie_element_500_1" mask-type="alpha"><use xlink:href="#__lottie_element_500"></use></mask></defs><g clip-path="url(#__lottie_element_494)"><g clip-path="url(#__lottie_element_497)" transform="matrix(1,0,0,1,-0.5,-0.48999977111816406)" opacity="1" style="display: block;"><g mask="url(#__lottie_element_500_1)" style="display: block;"><g clip-path="url(#__lottie_element_504)" transform="matrix(1,0,0,1,0,0)" opacity="1"><g transform="matrix(1,0,0,1,-4,-4)" opacity="1" style="display: block;"><path fill="rgb(0,0,0)" fill-opacity="0" d=" M21,4 C21,4 21,21 21,21 C21,21 4,21 4,21 C4,21 4,4 4,4 C4,4 21,4 21,4z"></path></g><g transform="matrix(1,0,0,1,-4,-4)" opacity="1" style="display: block;"><g opacity="1" transform="matrix(1,0,0,1,6.809999942779541,5)"><path fill="rgb(0,0,0)" fill-opacity="0" d=" M0,1.9199999570846558 C0,1.5709999799728394 0,1.218999981880188 0,0.8700000047683716 C0,0.3889999985694885 0.4309999942779541,0 0.9599999785423279,0 C4.109000205993652,0 7.261000156402588,0 10.40999984741211,0 C10.937999725341797,0 11.369999885559082,0.3889999985694885 11.369999885559082,0.8700000047683716 C11.369999885559082,1.218999981880188 11.369999885559082,1.5709999799728394 11.369999885559082,1.9199999570846558"></path></g></g><g transform="matrix(1,0,0,1,-4,-4)" opacity="1" style="display: block;"><g opacity="1" transform="matrix(1,0,0,1,6.809999942779541,5)"><path stroke-linecap="round" stroke-linejoin="miter" fill-opacity="0" stroke-miterlimit="4" stroke="rgb(255,255,255)" stroke-opacity="1" stroke-width="1" d=" M0,1.9199999570846558 C0,1.5709999799728394 0,1.218999981880188 0,0.8700000047683716 C0,0.3889999985694885 0.4309999942779541,0 0.9599999785423279,0 C4.109000205993652,0 7.261000156402588,0 10.40999984741211,0 C10.937999725341797,0 11.369999885559082,0.3889999985694885 11.369999885559082,0.8700000047683716 C11.369999885559082,1.218999981880188 11.369999885559082,1.5709999799728394 11.369999885559082,1.9199999570846558"></path></g></g><g transform="matrix(1,0,0,1,-4,-4)" opacity="1" style="display: block;"><g opacity="1" transform="matrix(1,0,0,1,6.809999942779541,18.07000160217285)"><path fill="rgb(0,0,0)" fill-opacity="0" d=" M11.369999885559082,0 C11.369999885559082,0.3490000069141388 11.369999885559082,0.7009999752044678 11.369999885559082,1.0499999523162842 C11.369999885559082,1.531000018119812 10.939000129699707,1.9199999570846558 10.40999984741211,1.9199999570846558 C7.26200008392334,1.9199999570846558 4.107999801635742,1.9199999570846558 0.9599999785423279,1.9199999570846558 C0.4320000112056732,1.9199999570846558 0,1.531000018119812 0,1.0499999523162842 C0,0.7009999752044678 0,0.3490000069141388 0,0"></path></g></g><g transform="matrix(1,0,0,1,-4,-4)" opacity="1" style="display: block;"><g opacity="1" transform="matrix(1,0,0,1,6.809999942779541,18.07000160217285)"><path stroke-linecap="round" stroke-linejoin="miter" fill-opacity="0" stroke-miterlimit="4" stroke="rgb(255,255,255)" stroke-opacity="1" stroke-width="1" d=" M11.369999885559082,0 C11.369999885559082,0.3490000069141388 11.369999885559082,0.7009999752044678 11.369999885559082,1.0499999523162842 C11.369999885559082,1.531000018119812 10.939000129699707,1.9199999570846558 10.40999984741211,1.9199999570846558 C7.26200008392334,1.9199999570846558 4.107999801635742,1.9199999570846558 0.9599999785423279,1.9199999570846558 C0.4320000112056732,1.9199999570846558 0,1.531000018119812 0,1.0499999523162842 C0,0.7009999752044678 0,0.3490000069141388 0,0"></path></g></g><g transform="matrix(1,0,0,1,-4,-4)" opacity="1" style="display: block;"><g opacity="1" transform="matrix(1,0,0,1,12.5,12.489999771118164)"><g opacity="1" transform="matrix(1,0,0,1,-7.489999771118164,-4.019999980926514)"><path fill="rgb(255,255,255)" fill-opacity="1" d=" M13.84000015258789,0 C9.602999687194824,0 5.367000102996826,0 1.1299999952316284,0 C0.5059999823570251,0 0,0.5059999823570251 0,1.1299999952316284 C0,3.055000066757202 0,4.985000133514404 0,6.909999847412109 C0,7.533999919891357 0.5059999823570251,8.039999961853027 1.1299999952316284,8.039999961853027 C5.367000102996826,8.039999961853027 9.602999687194824,8.039999961853027 13.84000015258789,8.039999961853027 C14.46399974822998,8.039999961853027 14.970000267028809,7.533999919891357 14.970000267028809,6.909999847412109 C14.970000267028809,4.985000133514404 14.970000267028809,3.055000066757202 14.970000267028809,1.1299999952316284 C14.970000267028809,0.5059999823570251 14.46399974822998,0 13.84000015258789,0 C13.84000015258789,0 13.84000015258789,0 13.84000015258789,0 C13.84000015258789,0 13.84000015258789,0 13.84000015258789,0z"></path><path stroke-linecap="round" stroke-linejoin="miter" fill-opacity="0" stroke-miterlimit="4" stroke="rgb(255,255,255)" stroke-opacity="1" stroke-width="1" d=" M13.84000015258789,0 C9.602999687194824,0 5.367000102996826,0 1.1299999952316284,0 C0.5059999823570251,0 0,0.5059999823570251 0,1.1299999952316284 C0,3.055000066757202 0,4.985000133514404 0,6.909999847412109 C0,7.533999919891357 0.5059999823570251,8.039999961853027 1.1299999952316284,8.039999961853027 C5.367000102996826,8.039999961853027 9.602999687194824,8.039999961853027 13.84000015258789,8.039999961853027 C14.46399974822998,8.039999961853027 14.970000267028809,7.533999919891357 14.970000267028809,6.909999847412109 C14.970000267028809,4.985000133514404 14.970000267028809,3.055000066757202 14.970000267028809,1.1299999952316284 C14.970000267028809,0.5059999823570251 14.46399974822998,0 13.84000015258789,0 C13.84000015258789,0 13.84000015258789,0 13.84000015258789,0 C13.84000015258789,0 13.84000015258789,0 13.84000015258789,0z"></path></g><g opacity="1" transform="matrix(1,0,0,1,-2.7100000381469727,-3.069999933242798)"><path fill="rgb(0,0,0)" fill-opacity="1" d=" M3.8399999141693115,2.559999942779541 C4.176000118255615,2.8959999084472656 4.513999938964844,3.2339999675750732 4.849999904632568,3.569999933242798 C5.197000026702881,3.9170000553131104 5.197000026702881,4.492000102996826 4.849999904632568,4.849999904632568 C4.492000102996826,5.197000026702881 3.9170000553131104,5.197000026702881 3.569999933242798,4.849999904632568 C3.2339999675750732,4.513999938964844 2.8959999084472656,4.176000118255615 2.559999942779541,3.8399999141693115 C2.2200000286102295,4.176000118255615 1.8799999952316284,4.513999938964844 1.5399999618530273,4.849999904632568 C1.1929999589920044,5.197000026702881 0.6179999709129333,5.197000026702881 0.25999999046325684,4.849999904632568 C-0.08699999749660492,4.492000102996826 -0.08699999749660492,3.9170000553131104 0.25999999046325684,3.569999933242798 C0.6000000238418579,3.2339999675750732 0.9399999976158142,2.8959999084472656 1.2799999713897705,2.559999942779541 C0.9399999976158142,2.2200000286102295 0.6000000238418579,1.8799999952316284 0.25999999046325684,1.5399999618530273 C-0.08699999749660492,1.1929999589920044 -0.08699999749660492,0.6069999933242798 0.25999999046325684,0.25999999046325684 C0.4440000057220459,0.08699999749660492 0.671999990940094,0 0.8999999761581421,0 C1.1390000581741333,0 1.3660000562667847,0.08699999749660492 1.5399999618530273,0.25999999046325684 C1.8799999952316284,0.6000000238418579 2.2200000286102295,0.9399999976158142 2.559999942779541,1.2799999713897705 C2.8959999084472656,0.9399999976158142 3.2339999675750732,0.6000000238418579 3.569999933242798,0.25999999046325684 C3.9170000553131104,-0.08699999749660492 4.492000102996826,-0.08699999749660492 4.849999904632568,0.25999999046325684 C5.0229997634887695,0.43299999833106995 5.110000133514404,0.6610000133514404 5.110000133514404,0.8999999761581421 C5.110000133514404,1.1390000581741333 5.0229997634887695,1.3660000562667847 4.849999904632568,1.5399999618530273 C4.513999938964844,1.8799999952316284 4.176000118255615,2.2200000286102295 3.8399999141693115,2.559999942779541 C3.8399999141693115,2.559999942779541 3.8399999141693115,2.559999942779541 3.8399999141693115,2.559999942779541 C3.8399999141693115,2.559999942779541 3.8399999141693115,2.559999942779541 3.8399999141693115,2.559999942779541z"></path></g></g></g><g transform="matrix(1,0,0,1,-4,-4)" opacity="1" style="display: block;"><g opacity="1" transform="matrix(1,0,0,1,11.049999237060547,17.56999969482422)"><path fill="rgb(255,255,255)" fill-opacity="1" d=" M2.7100000381469727,1.149999976158142 C2.509999990463257,1.340000033378601 2.180000066757202,1.340000033378601 1.9900000095367432,1.149999976158142 C1.8029999732971191,0.9599999785423279 1.6169999837875366,0.7699999809265137 1.4299999475479126,0.5799999833106995 C1.2400000095367432,0.7699999809265137 1.0499999523162842,0.9599999785423279 0.8600000143051147,1.149999976158142 C0.6700000166893005,1.340000033378601 0.3400000035762787,1.340000033378601 0.14000000059604645,1.149999976158142 C-0.05000000074505806,0.949999988079071 -0.05000000074505806,0.6299999952316284 0.14000000059604645,0.4300000071525574 C0.1899999976158142,0.38199999928474426 0.23999999463558197,0.328000009059906 0.28999999165534973,0.2800000011920929 C0.47699999809265137,0.09700000286102295 0.7289999723434448,0 0.9900000095367432,0 C1.281999945640564,0 1.5679999589920044,0 1.8600000143051147,0 C2.121000051498413,0 2.372999906539917,0.09700000286102295 2.559999942779541,0.2800000011920929 C2.609999895095825,0.328000009059906 2.6600000858306885,0.38199999928474426 2.7100000381469727,0.4300000071525574 C2.9000000953674316,0.6299999952316284 2.9000000953674316,0.949999988079071 2.7100000381469727,1.149999976158142 C2.7100000381469727,1.149999976158142 2.7100000381469727,1.149999976158142 2.7100000381469727,1.149999976158142 C2.7100000381469727,1.149999976158142 2.7100000381469727,1.149999976158142 2.7100000381469727,1.149999976158142z"></path></g></g><g transform="matrix(1,0,0,1,-4,-4)" opacity="1" style="display: block;"><g opacity="1" transform="matrix(1,0,0,1,11.049999237060547,6.119999885559082)"><path fill="rgb(255,255,255)" fill-opacity="1" d=" M0.14000000059604645,0.8600000143051147 C-0.05000000074505806,0.6600000262260437 -0.05000000074505806,0.3400000035762787 0.14000000059604645,0.14000000059604645 C0.25,0.05000000074505806 0.3700000047683716,0 0.5,0 C0.6299999952316284,0 0.7599999904632568,0.05000000074505806 0.8600000143051147,0.14000000059604645 C1.0499999523162842,0.33000001311302185 1.2400000095367432,0.5199999809265137 1.4299999475479126,0.7099999785423279 C1.6169999837875366,0.5199999809265137 1.8029999732971191,0.33000001311302185 1.9900000095367432,0.14000000059604645 C2.180000066757202,-0.05000000074505806 2.509999990463257,-0.05000000074505806 2.7100000381469727,0.14000000059604645 C2.799999952316284,0.23999999463558197 2.8499999046325684,0.3700000047683716 2.8499999046325684,0.5 C2.8499999046325684,0.6299999952316284 2.799999952316284,0.7599999904632568 2.7100000381469727,0.8600000143051147 C2.6640000343322754,0.906000018119812 2.625999927520752,0.9539999961853027 2.5799999237060547,1 C2.3919999599456787,1.187999963760376 2.134999990463257,1.2899999618530273 1.8700000047683716,1.2899999618530273 C1.5759999752044678,1.2899999618530273 1.284000039100647,1.2899999618530273 0.9900000095367432,1.2899999618530273 C0.7250000238418579,1.2899999618530273 0.46799999475479126,1.187999963760376 0.2800000011920929,1 C0.23399999737739563,0.9539999961853027 0.1860000044107437,0.906000018119812 0.14000000059604645,0.8600000143051147 C0.14000000059604645,0.8600000143051147 0.14000000059604645,0.8600000143051147 0.14000000059604645,0.8600000143051147 C0.14000000059604645,0.8600000143051147 0.14000000059604645,0.8600000143051147 0.14000000059604645,0.8600000143051147z"></path></g></g></g></g></g></g></svg>