<?xml version="1.0" encoding="UTF-8"?>
<svg xmlns="http://www.w3.org/2000/svg" xmlns:xlink="http://www.w3.org/1999/xlink" viewBox="0 0 16 16" width="16" height="16" preserveAspectRatio="xMidYMid meet" style="width: 100%; height: 100%; transform: translate3d(0px, 0px, 0px); content-visibility: visible;"><defs><clipPath id="__lottie_element_532"><rect width="16" height="16" x="0" y="0"></rect></clipPath><clipPath id="__lottie_element_535"><path d="M0,0 L17,0 L17,17 L0,17z"></path></clipPath><clipPath id="__lottie_element_540"><path d="M0,0 L17,0 L17,17 L0,17z"></path></clipPath><g id="__lottie_element_543"><g transform="matrix(1,0,0,1,-4,-4)" opacity="1" style="display: block;"><g opacity="1" transform="matrix(1,0,0,1,4.279999732971191,5)"><g opacity="1" transform="matrix(1,0,0,1,8,8)"><path fill="rgb(0,0,0)" fill-opacity="1" d=" M8,-8 C8,-8 8,8 8,8 C8,8 -8,8 -8,8 C-8,8 -8,-8 -8,-8 C-8,-8 8,-8 8,-8z"></path></g></g></g></g><clipPath id="__lottie_element_547"><path d="M0,0 L17,0 L17,17 L0,17z"></path></clipPath><mask id="__lottie_element_543_1" mask-type="alpha"><use xlink:href="#__lottie_element_543"></use></mask><clipPath id="__lottie_element_570"><path d="M0,0 L17,0 L17,17 L0,17z"></path></clipPath><g id="__lottie_element_573"><g transform="matrix(1,0,0,1,-4,-4)" opacity="1" style="display: block;"><g opacity="1" transform="matrix(1,0,0,1,4.279999732971191,5)"><g opacity="1" transform="matrix(1,0,0,1,8,8)"><path fill="rgb(0,0,0)" fill-opacity="1" d=" M8,-8 C8,-8 8,8 8,8 C8,8 -8,8 -8,8 C-8,8 -8,-8 -8,-8 C-8,-8 8,-8 8,-8z"></path></g></g></g></g><clipPath id="__lottie_element_577"><path d="M0,0 L17,0 L17,17 L0,17z"></path></clipPath><mask id="__lottie_element_573_1" mask-type="alpha"><use xlink:href="#__lottie_element_573"></use></mask></defs><g clip-path="url(#__lottie_element_532)"><g clip-path="url(#__lottie_element_570)" transform="matrix(0.8999999761581421,0,0,0.8999999761581421,0.5480008125305176,-0.09999990463256836)" opacity="1" style="display: block;"><g mask="url(#__lottie_element_573_1)" style="display: block;"><g clip-path="url(#__lottie_element_577)" transform="matrix(1,0,0,1,0,0)" opacity="1"><g transform="matrix(1,0,0,1,-4,-4)" opacity="1" style="display: block;"><path fill="rgb(0,0,0)" fill-opacity="0" d=" M21,4 C21,4 21,21 21,21 C21,21 4,21 4,21 C4,21 4,4 4,4 C4,4 21,4 21,4z"></path></g><g transform="matrix(1,0,0,1,-4,-4)" opacity="1" style="display: block;"><g opacity="1" transform="matrix(1,0,0,1,14.919999122619629,5)"><path fill="rgb(0,0,0)" fill-opacity="0" d=" M4.579999923706055,0 C4.579999923706055,1.1490000486373901 3.3499999046325684,1.8650000095367432 2.369999885559082,1.2899999618530273 C2.2790000438690186,1.2359999418258667 2.190999984741211,1.184000015258789 2.0999999046325684,1.1299999952316284 C1.5729999542236328,0.8209999799728394 0.8939999938011169,1.0049999952316284 0.5899999737739563,1.5399999618530273 C0.3919999897480011,1.8880000114440918 0.1979999989271164,2.242000102996826 0,2.5899999141693115 C0.013000000268220901,2.568000078201294 0.027000000700354576,2.5420000553131104 0.03999999910593033,2.5199999809265137"></path></g></g><g transform="matrix(1,0,0,1,-4,-4)" opacity="1" style="display: block;"><g opacity="1" transform="matrix(1,0,0,1,14.919999122619629,5)"><path stroke-linecap="square" stroke-linejoin="miter" fill-opacity="0" stroke-miterlimit="4" stroke="rgb(255,255,255)" stroke-opacity="1" stroke-width="1" d=" M4.579999923706055,0 C4.579999923706055,1.1490000486373901 3.3499999046325684,1.8650000095367432 2.369999885559082,1.2899999618530273 C2.2790000438690186,1.2359999418258667 2.190999984741211,1.184000015258789 2.0999999046325684,1.1299999952316284 C1.5729999542236328,0.8209999799728394 0.8939999938011169,1.0049999952316284 0.5899999737739563,1.5399999618530273 C0.3919999897480011,1.8880000114440918 0.1979999989271164,2.242000102996826 0,2.5899999141693115 C0.013000000268220901,2.568000078201294 0.027000000700354576,2.5420000553131104 0.03999999910593033,2.5199999809265137"></path></g></g><g transform="matrix(1,0,0,1,-4,-4)" opacity="1" style="display: block;"><g opacity="1" transform="matrix(1,0,0,1,4.999999523162842,6.0400004386901855)"><path fill="rgb(255,255,255)" fill-opacity="1" d=" M3.049999952316284,13.630000114440918 C5.96999979019165,15.342000007629395 9.704000473022461,14.326000213623047 11.390000343322754,11.359999656677246 C12.520000457763672,9.371999740600586 12.442999839782715,7.014999866485596 11.390000343322754,5.159999847412109 C11.779999732971191,4.4730000495910645 12.170000076293945,3.7869999408721924 12.5600004196167,3.0999999046325684 C10.79800033569336,2.066999912261963 9.041999816894531,1.0329999923706055 7.28000020980835,0 C6.888999938964844,0.6869999766349792 6.500999927520752,1.3730000257492065 6.110000133514404,2.059999942779541 C4.001999855041504,2.062000036239624 1.9500000476837158,3.171999931335449 0.8199999928474426,5.159999847412109 C-0.8659999966621399,8.12600040435791 0.12999999523162842,11.918000221252441 3.049999952316284,13.630000114440918 C3.049999952316284,13.630000114440918 3.049999952316284,13.630000114440918 3.049999952316284,13.630000114440918 C3.049999952316284,13.630000114440918 3.049999952316284,13.630000114440918 3.049999952316284,13.630000114440918z"></path><path stroke-linecap="square" stroke-linejoin="miter" fill-opacity="0" stroke-miterlimit="4" stroke="rgb(255,255,255)" stroke-opacity="1" stroke-width="1" d=" M3.049999952316284,13.630000114440918 C5.96999979019165,15.342000007629395 9.704000473022461,14.326000213623047 11.390000343322754,11.359999656677246 C12.520000457763672,9.371999740600586 12.442999839782715,7.014999866485596 11.390000343322754,5.159999847412109 C11.779999732971191,4.4730000495910645 12.170000076293945,3.7869999408721924 12.5600004196167,3.0999999046325684 C10.79800033569336,2.066999912261963 9.041999816894531,1.0329999923706055 7.28000020980835,0 C6.888999938964844,0.6869999766349792 6.500999927520752,1.3730000257492065 6.110000133514404,2.059999942779541 C4.001999855041504,2.062000036239624 1.9500000476837158,3.171999931335449 0.8199999928474426,5.159999847412109 C-0.8659999966621399,8.12600040435791 0.12999999523162842,11.918000221252441 3.049999952316284,13.630000114440918 C3.049999952316284,13.630000114440918 3.049999952316284,13.630000114440918 3.049999952316284,13.630000114440918 C3.049999952316284,13.630000114440918 3.049999952316284,13.630000114440918 3.049999952316284,13.630000114440918z"></path></g></g><g transform="matrix(1,0,0,1,-4,-4)" opacity="1" style="display: block;"><g opacity="1" transform="matrix(1,0,0,1,8.059999465942383,12.75)"><path fill="rgb(0,0,0)" fill-opacity="0" d=" M1.5299999713897705,4.239999771118164 C0.07000000029802322,3.384000062942505 -0.43299999833106995,1.4830000400543213 0.4099999964237213,0"></path></g></g><g transform="matrix(1,0,0,1,-4,-4)" opacity="1" style="display: block;"><g opacity="1" transform="matrix(1,0,0,1,8.059999465942383,12.75)"><path stroke-linecap="square" stroke-linejoin="miter" fill-opacity="0" stroke-miterlimit="4" stroke="rgb(0,0,0)" stroke-opacity="1" stroke-width="1" d=" M1.5299999713897705,4.239999771118164 C0.07000000029802322,3.384000062942505 -0.43299999833106995,1.4830000400543213 0.4099999964237213,0"></path></g></g></g></g></g><g clip-path="url(#__lottie_element_535)" transform="matrix(0.8999999761581421,0,0,0.8999999761581421,0.8000001907348633,-0.09999978542327881)" opacity="0" style="display: block;"><g clip-path="url(#__lottie_element_540)" transform="matrix(1,0,0,1,-0.2799997329711914,0)" opacity="1" style="display: block;"><g mask="url(#__lottie_element_543_1)" style="display: block;"><g clip-path="url(#__lottie_element_547)" transform="matrix(1,0,0,1,0,0)" opacity="1"><g transform="matrix(1,0,0,1,-4,-4)" opacity="1" style="display: block;"><path fill="rgb(0,0,0)" fill-opacity="0" d=" M21,4 C21,4 21,21 21,21 C21,21 4,21 4,21 C4,21 4,4 4,4 C4,4 21,4 21,4z"></path></g><g transform="matrix(1,0,0,1,-4,-4)" opacity="1" style="display: block;"><g opacity="1" transform="matrix(1,0,0,1,14.919999122619629,5)"><path fill="rgb(0,0,0)" fill-opacity="0" d=" M4.579999923706055,0 C4.579999923706055,1.1490000486373901 3.3499999046325684,1.8650000095367432 2.369999885559082,1.2899999618530273 C2.2790000438690186,1.2359999418258667 2.190999984741211,1.184000015258789 2.0999999046325684,1.1299999952316284 C1.5729999542236328,0.8209999799728394 0.8939999938011169,1.0049999952316284 0.5899999737739563,1.5399999618530273 C0.3919999897480011,1.8880000114440918 0.1979999989271164,2.242000102996826 0,2.5899999141693115 C0.013000000268220901,2.568000078201294 0.027000000700354576,2.5420000553131104 0.03999999910593033,2.5199999809265137"></path></g></g><g transform="matrix(1,0,0,1,-4,-4)" opacity="1" style="display: block;"><g opacity="1" transform="matrix(1,0,0,1,14.919999122619629,5)"><path stroke-linecap="square" stroke-linejoin="miter" fill-opacity="0" stroke-miterlimit="4" stroke="rgb(255,255,255)" stroke-opacity="1" stroke-width="1" d=" M4.579999923706055,0 C4.579999923706055,1.1490000486373901 3.3499999046325684,1.8650000095367432 2.369999885559082,1.2899999618530273 C2.2790000438690186,1.2359999418258667 2.190999984741211,1.184000015258789 2.0999999046325684,1.1299999952316284 C1.5729999542236328,0.8209999799728394 0.8939999938011169,1.0049999952316284 0.5899999737739563,1.5399999618530273 C0.3919999897480011,1.8880000114440918 0.1979999989271164,2.242000102996826 0,2.5899999141693115 C0.013000000268220901,2.568000078201294 0.027000000700354576,2.5420000553131104 0.03999999910593033,2.5199999809265137"></path></g></g><g transform="matrix(1,0,0,1,-4,-4)" opacity="1" style="display: block;"><g opacity="1" transform="matrix(1,0,0,1,4.999999523162842,6.0400004386901855)"><path fill="rgb(255,255,255)" fill-opacity="1" d=" M3.049999952316284,13.630000114440918 C5.96999979019165,15.342000007629395 9.704000473022461,14.326000213623047 11.390000343322754,11.359999656677246 C12.520000457763672,9.371999740600586 12.442999839782715,7.014999866485596 11.390000343322754,5.159999847412109 C11.779999732971191,4.4730000495910645 12.170000076293945,3.7869999408721924 12.5600004196167,3.0999999046325684 C10.79800033569336,2.066999912261963 9.041999816894531,1.0329999923706055 7.28000020980835,0 C6.888999938964844,0.6869999766349792 6.500999927520752,1.3730000257492065 6.110000133514404,2.059999942779541 C4.001999855041504,2.062000036239624 1.9500000476837158,3.171999931335449 0.8199999928474426,5.159999847412109 C-0.8659999966621399,8.12600040435791 0.12999999523162842,11.918000221252441 3.049999952316284,13.630000114440918 C3.049999952316284,13.630000114440918 3.049999952316284,13.630000114440918 3.049999952316284,13.630000114440918 C3.049999952316284,13.630000114440918 3.049999952316284,13.630000114440918 3.049999952316284,13.630000114440918z"></path><path stroke-linecap="square" stroke-linejoin="miter" fill-opacity="0" stroke-miterlimit="4" stroke="rgb(255,255,255)" stroke-opacity="1" stroke-width="1" d=" M3.049999952316284,13.630000114440918 C5.96999979019165,15.342000007629395 9.704000473022461,14.326000213623047 11.390000343322754,11.359999656677246 C12.520000457763672,9.371999740600586 12.442999839782715,7.014999866485596 11.390000343322754,5.159999847412109 C11.779999732971191,4.4730000495910645 12.170000076293945,3.7869999408721924 12.5600004196167,3.0999999046325684 C10.79800033569336,2.066999912261963 9.041999816894531,1.0329999923706055 7.28000020980835,0 C6.888999938964844,0.6869999766349792 6.500999927520752,1.3730000257492065 6.110000133514404,2.059999942779541 C4.001999855041504,2.062000036239624 1.9500000476837158,3.171999931335449 0.8199999928474426,5.159999847412109 C-0.8659999966621399,8.12600040435791 0.12999999523162842,11.918000221252441 3.049999952316284,13.630000114440918 C3.049999952316284,13.630000114440918 3.049999952316284,13.630000114440918 3.049999952316284,13.630000114440918 C3.049999952316284,13.630000114440918 3.049999952316284,13.630000114440918 3.049999952316284,13.630000114440918z"></path></g></g><g transform="matrix(1,0,0,1,-4,-4)" opacity="1" style="display: block;"><g opacity="1" transform="matrix(1,0,0,1,8.059999465942383,12.75)"><path fill="rgb(0,0,0)" fill-opacity="0" d=" M1.5299999713897705,4.239999771118164 C0.07000000029802322,3.384000062942505 -0.43299999833106995,1.4830000400543213 0.4099999964237213,0"></path></g></g><g transform="matrix(1,0,0,1,-4,-4)" opacity="1" style="display: block;"><g opacity="1" transform="matrix(1,0,0,1,8.059999465942383,12.75)"><path stroke-linecap="square" stroke-linejoin="miter" fill-opacity="0" stroke-miterlimit="4" stroke="rgb(0,0,0)" stroke-opacity="1" stroke-width="1" d=" M1.5299999713897705,4.239999771118164 C0.07000000029802322,3.384000062942505 -0.43299999833106995,1.4830000400543213 0.4099999964237213,0"></path></g></g></g></g></g></g></g></svg>