<?xml version="1.0" encoding="UTF-8"?>
<svg xmlns="http://www.w3.org/2000/svg" xmlns:xlink="http://www.w3.org/1999/xlink" viewBox="0 0 500 500" width="500" height="500" preserveAspectRatio="xMidYMid meet" style="width: 100%; height: 100%; transform: translate3d(0px, 0px, 0px); content-visibility: visible;"><defs><clipPath id="__lottie_element_599"><rect width="500" height="500" x="0" y="0"></rect></clipPath><clipPath id="__lottie_element_608"><path d="M0,0 L64,0 L64,306 L0,306z"></path></clipPath><clipPath id="__lottie_element_613"><path d="M0,0 L64,0 L64,79 L0,79z"></path></clipPath><clipPath id="__lottie_element_620"><path d="M0,0 L52,0 L52,265 L0,265z"></path></clipPath><clipPath id="__lottie_element_625"><path d="M0,0 L52,0 L52,63 L0,63z"></path></clipPath><clipPath id="__lottie_element_632"><path d="M0,0 L64,0 L64,286 L0,286z"></path></clipPath><clipPath id="__lottie_element_637"><path d="M0,0 L64,0 L64,79 L0,79z"></path></clipPath><clipPath id="__lottie_element_644"><path d="M0,0 L64,0 L64,186 L0,186z"></path></clipPath><clipPath id="__lottie_element_649"><path d="M0,0 L64,0 L64,79 L0,79z"></path></clipPath><clipPath id="__lottie_element_656"><path d="M0,0 L47,0 L47,301 L0,301z"></path></clipPath><clipPath id="__lottie_element_661"><path d="M0,0 L47,0 L47,61 L0,61z"></path></clipPath><clipPath id="__lottie_element_668"><path d="M0,0 L66,0 L66,208 L0,208z"></path></clipPath><clipPath id="__lottie_element_673"><path d="M0,0 L66,0 L66,87 L0,87z"></path></clipPath><clipPath id="__lottie_element_680"><path d="M0,0 L66,0 L66,153 L0,153z"></path></clipPath><clipPath id="__lottie_element_685"><path d="M0,0 L66,0 L66,87 L0,87z"></path></clipPath></defs><g clip-path="url(#__lottie_element_599)"><g clip-path="url(#__lottie_element_680)" transform="matrix(1,0,0,1,81,0)" opacity="1" style="display: block;"><g clip-path="url(#__lottie_element_685)" transform="matrix(1,0,0,1,0,66)" opacity="1" style="display: block;"><g transform="matrix(1,0,0,1,169,184)" opacity="1" style="display: block;"><g opacity="1" transform="matrix(1,0,0,1,0,0)"><path fill="rgb(255,16,0)" fill-opacity="1" d=" M-113.41000366210938,-114.86000061035156 C-121.70800018310547,-103.13099670410156 -137.9510040283203,-100.35199737548828 -149.67999267578125,-108.6500015258789 C-162.1790008544922,-117.49299621582031 -165.13299560546875,-134.80099487304688 -156.2899932861328,-147.3000030517578 C-149.1999969482422,-157.3209991455078 -140.41900634765625,-165.42300415039062 -130.60000610351562,-171.5 C-130.33399963378906,-163.64999389648438 -126.53700256347656,-156.01600646972656 -119.62999725341797,-151.1300048828125 C-107.9010009765625,-142.83200073242188 -105.11199951171875,-126.58899688720703 -113.41000366210938,-114.86000061035156 C-113.41000366210938,-114.86000061035156 -113.41000366210938,-114.86000061035156 -113.41000366210938,-114.86000061035156z"></path></g></g></g></g><g clip-path="url(#__lottie_element_668)" transform="matrix(1,0,0,1,81,65)" opacity="0" style="display: block;"><g clip-path="url(#__lottie_element_673)" transform="matrix(1,0,0,1,0,121)" opacity="1" style="display: block;"><g transform="matrix(1,0,0,1,169,184)" opacity="1" style="display: block;"><g opacity="1" transform="matrix(0,0,0,0,-135.00999450683594,-103.87000274658203)"><path fill="rgb(255,16,0)" fill-opacity="1" d=" M-113.41000366210938,-114.86000061035156 C-121.70800018310547,-103.13099670410156 -137.9510040283203,-100.35199737548828 -149.67999267578125,-108.6500015258789 C-162.1790008544922,-117.49299621582031 -165.13299560546875,-134.80099487304688 -156.2899932861328,-147.3000030517578 C-149.1999969482422,-157.3209991455078 -140.41900634765625,-165.42300415039062 -130.60000610351562,-171.5 C-130.33399963378906,-163.64999389648438 -126.53700256347656,-156.01600646972656 -119.62999725341797,-151.1300048828125 C-107.9010009765625,-142.83200073242188 -105.11199951171875,-126.58899688720703 -113.41000366210938,-114.86000061035156 C-113.41000366210938,-114.86000061035156 -113.41000366210938,-114.86000061035156 -113.41000366210938,-114.86000061035156z"></path></g></g></g></g><g clip-path="url(#__lottie_element_656)" transform="matrix(1,0,0,1,51,30)" opacity="0" style="display: block;"><g clip-path="url(#__lottie_element_661)" transform="matrix(1,0,0,1,0,240)" opacity="0" style="display: block;"><g transform="matrix(1,0,0,1,159,160)" opacity="1" style="display: block;"><g opacity="1" transform="matrix(0,0,0,0,-135.00999450683594,-103.87000274658203)"><path fill="rgb(255,16,0)" fill-opacity="1" d=" M-113.41000366210938,-114.86000061035156 C-121.70800018310547,-103.13099670410156 -137.9510040283203,-100.35199737548828 -149.67999267578125,-108.6500015258789 C-162.1790008544922,-117.49299621582031 -165.13299560546875,-134.80099487304688 -156.2899932861328,-147.3000030517578 C-149.1999969482422,-157.3209991455078 -140.41900634765625,-165.42300415039062 -130.60000610351562,-171.5 C-130.33399963378906,-163.64999389648438 -126.53700256347656,-156.01600646972656 -119.62999725341797,-151.1300048828125 C-107.9010009765625,-142.83200073242188 -105.11199951171875,-126.58899688720703 -113.41000366210938,-114.86000061035156 C-113.41000366210938,-114.86000061035156 -113.41000366210938,-114.86000061035156 -113.41000366210938,-114.86000061035156z"></path></g></g></g></g><g clip-path="url(#__lottie_element_644)" transform="matrix(1,0,0,1,352,0)" opacity="1" style="display: block;"><g clip-path="url(#__lottie_element_649)" transform="matrix(1,0,0,1,0,107)" opacity="1" style="display: block;"><g transform="matrix(1,0,0,1,-102,143)" opacity="1" style="display: block;"><g opacity="1" transform="matrix(1,0,0,1,0,0)"><path fill="rgb(255,16,0)" fill-opacity="1" d=" M113.41000366210938,-79.41999816894531 C121.70800018310547,-67.69100189208984 137.9510040283203,-64.91200256347656 149.67999267578125,-73.20999908447266 C162.1790008544922,-82.0530014038086 165.13299560546875,-99.36100006103516 156.2899932861328,-111.86000061035156 C149.1999969482422,-121.88099670410156 140.41900634765625,-129.98300170898438 130.60000610351562,-136.05999755859375 C130.33399963378906,-128.2100067138672 126.53700256347656,-120.56600189208984 119.62999725341797,-115.68000030517578 C107.9010009765625,-107.38200378417969 105.11199951171875,-91.14900207519531 113.41000366210938,-79.41999816894531 C113.41000366210938,-79.41999816894531 113.41000366210938,-79.41999816894531 113.41000366210938,-79.41999816894531z"></path></g></g></g></g><g clip-path="url(#__lottie_element_632)" transform="matrix(1,0,0,1,392,0)" opacity="0" style="display: block;"><g clip-path="url(#__lottie_element_637)" transform="matrix(1,0,0,1,0,207)" opacity="0" style="display: block;"><g transform="matrix(1,0,0,1,-102,143)" opacity="1" style="display: block;"><g opacity="1" transform="matrix(0,0,0,0,135.00999450683594,-68.43000030517578)"><path fill="rgb(255,16,0)" fill-opacity="1" d=" M113.41000366210938,-79.41999816894531 C121.70800018310547,-67.69100189208984 137.9510040283203,-64.91200256347656 149.67999267578125,-73.20999908447266 C162.1790008544922,-82.0530014038086 165.13299560546875,-99.36100006103516 156.2899932861328,-111.86000061035156 C149.1999969482422,-121.88099670410156 140.41900634765625,-129.98300170898438 130.60000610351562,-136.05999755859375 C130.33399963378906,-128.2100067138672 126.53700256347656,-120.56600189208984 119.62999725341797,-115.68000030517578 C107.9010009765625,-107.38200378417969 105.11199951171875,-91.14900207519531 113.41000366210938,-79.41999816894531 C113.41000366210938,-79.41999816894531 113.41000366210938,-79.41999816894531 113.41000366210938,-79.41999816894531z"></path></g></g></g></g><g clip-path="url(#__lottie_element_620)" transform="matrix(1,0,0,1,320,0)" opacity="0" style="display: block;"><g clip-path="url(#__lottie_element_625)" transform="matrix(-1,0,0,1,52.019989013671875,202)" opacity="0" style="display: block;"><g transform="matrix(1,0,0,1,-108,128)" opacity="1" style="display: block;"><g opacity="1" transform="matrix(0,0,0,0,135.00999450683594,-68.43000030517578)"><path fill="rgb(255,16,0)" fill-opacity="1" d=" M113.41000366210938,-79.41999816894531 C121.70800018310547,-67.69100189208984 137.9510040283203,-64.91200256347656 149.67999267578125,-73.20999908447266 C162.1790008544922,-82.0530014038086 165.13299560546875,-99.36100006103516 156.2899932861328,-111.86000061035156 C149.1999969482422,-121.88099670410156 140.41900634765625,-129.98300170898438 130.60000610351562,-136.05999755859375 C130.33399963378906,-128.2100067138672 126.53700256347656,-120.56600189208984 119.62999725341797,-115.68000030517578 C107.9010009765625,-107.38200378417969 105.11199951171875,-91.14900207519531 113.41000366210938,-79.41999816894531 C113.41000366210938,-79.41999816894531 113.41000366210938,-79.41999816894531 113.41000366210938,-79.41999816894531z"></path></g></g></g></g><g clip-path="url(#__lottie_element_608)" transform="matrix(1,0,0,1,352,0)" opacity="0" style="display: block;"><g clip-path="url(#__lottie_element_613)" transform="matrix(1,0,0,1,0,227)" opacity="0" style="display: block;"><g transform="matrix(1,0,0,1,-102,143)" opacity="1" style="display: block;"><g opacity="1" transform="matrix(0,0,0,0,135.00999450683594,-68.43000030517578)"><path fill="rgb(255,16,0)" fill-opacity="1" d=" M113.41000366210938,-79.41999816894531 C121.70800018310547,-67.69100189208984 137.9510040283203,-64.91200256347656 149.67999267578125,-73.20999908447266 C162.1790008544922,-82.0530014038086 153.66299438476562,-98.68099975585938 144.82000732421875,-111.18000030517578 C137.72999572753906,-121.20099639892578 130.947998046875,-131.1439971923828 137.35000610351562,-142.1300048828125 C126.2229995727539,-139.91900634765625 105.97100067138672,-127.77400207519531 104.0999984741211,-115.01000213623047 C102.01599884033203,-100.79499816894531 105.11199951171875,-91.14900207519531 113.41000366210938,-79.41999816894531 C113.41000366210938,-79.41999816894531 113.41000366210938,-79.41999816894531 113.41000366210938,-79.41999816894531z"></path></g></g></g></g><g transform="matrix(1,0,0,1,200,200)" opacity="1" style="display: block;"><g opacity="1" transform="matrix(1,0,0,1,50,50)"><path fill="rgb(255,16,0)" fill-opacity="1" d=" M-42.029998779296875,-28.440000534057617 C-55.327999114990234,-59.68600082397461 -49.244998931884766,-97.21499633789062 -23.760000228881836,-122.69999694824219 C-9.835000038146973,-136.62399291992188 7.691999912261963,-144.75399780273438 25.81999969482422,-147.10000610351562 C14.906000137329102,-120.47699737548828 22.18899917602539,-88.7959976196289 45.77000045776367,-69.87000274658203 C73.302001953125,-47.77299880981445 81.88400268554688,-8.59000015258789 62.060001373291016,19.920000076293945 C66.10600280761719,18.250999450683594 70.01399993896484,16.077999114990234 73.69999694824219,13.369999885559082 C96.55400085449219,-3.4149999618530273 102.73300170898438,-34.46699905395508 89,-58.5099983215332 C115.55599975585938,-34.32600021362305 132.22000122070312,0.5320000052452087 132.22000122070312,39.279998779296875 C132.22000122070312,112.30500030517578 73.0250015258789,171.5 0,171.5 C-73.0250015258789,171.5 -132.22000122070312,112.30500030517578 -132.22000122070312,39.279998779296875 C-132.22000122070312,24.525999069213867 -129.8090057373047,10.331000328063965 -125.3499984741211,-2.9200000762939453 C-125.36100006103516,-2.9619998931884766 -125.36900329589844,-2.997999906539917 -125.37999725341797,-3.0399999618530273 C-125.37999725341797,-3.0399999618530273 -125.3499984741211,-2.9200000762939453 -125.3499984741211,-2.9200000762939453 C-118.10199737548828,23.889999389648438 -93.0479965209961,41.14699935913086 -66.3499984741211,39.529998779296875 C-84.66500091552734,26.988000869750977 -96.69000244140625,5.922999858856201 -96.69000244140625,-17.950000762939453 C-96.69000244140625,-39.47700119018555 -86.90899658203125,-58.720001220703125 -71.55999755859375,-71.48999786376953 C-73.39900207519531,-52.1349983215332 -61.42599868774414,-34.32699966430664 -43.310001373291016,-28.440000534057617"></path></g></g><g transform="matrix(1,0,0,1,200,200)" opacity="1" style="display: block;"><g opacity="1" transform="matrix(1,0,0,1,50,50)"><path stroke-linecap="round" stroke-linejoin="round" fill-opacity="0" stroke="rgb(255,16,0)" stroke-opacity="1" stroke-width="2" d=" M-42.029998779296875,-28.440000534057617 C-55.327999114990234,-59.68600082397461 -49.244998931884766,-97.21499633789062 -23.760000228881836,-122.69999694824219 C-9.835000038146973,-136.62399291992188 7.691999912261963,-144.75399780273438 25.81999969482422,-147.10000610351562 C14.906000137329102,-120.47699737548828 22.18899917602539,-88.7959976196289 45.77000045776367,-69.87000274658203 C73.302001953125,-47.77299880981445 81.88400268554688,-8.59000015258789 62.060001373291016,19.920000076293945 C66.10600280761719,18.250999450683594 70.01399993896484,16.077999114990234 73.69999694824219,13.369999885559082 C96.55400085449219,-3.4149999618530273 102.73300170898438,-34.46699905395508 89,-58.5099983215332 C115.55599975585938,-34.32600021362305 132.22000122070312,0.5320000052452087 132.22000122070312,39.279998779296875 C132.22000122070312,112.30500030517578 73.0250015258789,171.5 0,171.5 C-73.0250015258789,171.5 -132.22000122070312,112.30500030517578 -132.22000122070312,39.279998779296875 C-132.22000122070312,24.525999069213867 -129.8090057373047,10.331000328063965 -125.3499984741211,-2.9200000762939453 C-125.36100006103516,-2.9619998931884766 -125.36900329589844,-2.997999906539917 -125.37999725341797,-3.0399999618530273 C-125.37999725341797,-3.0399999618530273 -125.3499984741211,-2.9200000762939453 -125.3499984741211,-2.9200000762939453 C-118.10199737548828,23.889999389648438 -93.0479965209961,41.14699935913086 -66.3499984741211,39.529998779296875 C-84.66500091552734,26.988000869750977 -96.69000244140625,5.922999858856201 -96.69000244140625,-17.950000762939453 C-96.69000244140625,-39.47700119018555 -86.90899658203125,-58.720001220703125 -71.55999755859375,-71.48999786376953 C-73.39900207519531,-52.1349983215332 -61.42599868774414,-34.32699966430664 -43.310001373291016,-28.440000534057617"></path></g></g></g></svg>