<?xml version="1.0" encoding="UTF-8"?>
<svg xmlns="http://www.w3.org/2000/svg" xmlns:xlink="http://www.w3.org/1999/xlink" viewBox="0 0 18 18" width="18" height="18" preserveAspectRatio="xMidYMid meet" style="width: 100%; height: 100%; transform: translate3d(0px, 0px, 0px); content-visibility: visible;"><defs><clipPath id="__lottie_element_692"><rect width="18" height="18" x="0" y="0"></rect></clipPath><clipPath id="__lottie_element_695"><path d="M0,0 L17,0 L17,17 L0,17z"></path></clipPath><g id="__lottie_element_698"><g transform="matrix(1,0,0,1,1,-1)" opacity="1" style="display: block;"><g opacity="1" transform="matrix(1,0,0,1,0,1.5)"><g opacity="1" transform="matrix(1,0,0,1,8,8)"><path fill="rgb(0,0,0)" fill-opacity="1" d=" M8,-8 C8,-8 8,8 8,8 C8,8 -8,8 -8,8 C-8,8 -8,-8 -8,-8 C-8,-8 8,-8 8,-8z"></path></g></g></g></g><clipPath id="__lottie_element_702"><path d="M0,0 L17,0 L17,17 L0,17z"></path></clipPath><mask id="__lottie_element_698_1" mask-type="alpha"><use xlink:href="#__lottie_element_698"></use></mask></defs><g clip-path="url(#__lottie_element_692)"><g clip-path="url(#__lottie_element_695)" transform="matrix(1,0,0,1,0,0.5)" opacity="1" style="display: block;"><g mask="url(#__lottie_element_698_1)" style="display: block;"><g clip-path="url(#__lottie_element_702)" transform="matrix(1,0,0,1,0,0)" opacity="1"><g transform="matrix(1,0,0,1,1,-1)" opacity="1" style="display: block;"><path fill="rgb(0,0,0)" fill-opacity="0" d=" M16,1 C16,1 16,18 16,18 C16,18 -1,18 -1,18 C-1,18 -1,1 -1,1 C-1,1 16,1 16,1z"></path></g><g transform="matrix(1,0,0,1,1,-1)" opacity="1" style="display: block;"><g opacity="1" transform="matrix(1,0,0,1,2,15.5)"><path fill="rgb(255,255,255)" fill-opacity="1" d=" M0,-2 C1.1038000583648682,-2 2,-1.1038000583648682 2,0 C2,1.1038000583648682 1.1038000583648682,2 0,2 C-1.1038000583648682,2 -2,1.1038000583648682 -2,0 C-2,-1.1038000583648682 -1.1038000583648682,-2 0,-2z"></path></g></g><g transform="matrix(1,0,0,1,1,-1)" opacity="1" style="display: block;"><g opacity="1" transform="matrix(1,0,0,1,8,15.5)"><path fill="rgb(255,255,255)" fill-opacity="1" d=" M0,-2 C1.1038000583648682,-2 2,-1.1038000583648682 2,0 C2,1.1038000583648682 1.1038000583648682,2 0,2 C-1.1038000583648682,2 -2,1.1038000583648682 -2,0 C-2,-1.1038000583648682 -1.1038000583648682,-2 0,-2z"></path></g></g><g transform="matrix(1,0,0,1,1,-1)" opacity="1" style="display: block;"><g opacity="1" transform="matrix(1,0,0,1,14,15.5)"><path fill="rgb(255,255,255)" fill-opacity="1" d=" M0,-2 C1.1038000583648682,-2 2,-1.1038000583648682 2,0 C2,1.1038000583648682 1.1038000583648682,2 0,2 C-1.1038000583648682,2 -2,1.1038000583648682 -2,0 C-2,-1.1038000583648682 -1.1038000583648682,-2 0,-2z"></path></g></g><g transform="matrix(1,0,0,1,1,-1)" opacity="1" style="display: block;"><g opacity="1" transform="matrix(1,0,0,1,5,9.5)"><path fill="rgb(255,255,255)" fill-opacity="1" d=" M0,-2 C1.1038000583648682,-2 2,-1.1038000583648682 2,0 C2,1.1038000583648682 1.1038000583648682,2 0,2 C-1.1038000583648682,2 -2,1.1038000583648682 -2,0 C-2,-1.1038000583648682 -1.1038000583648682,-2 0,-2z"></path></g></g><g transform="matrix(1,0,0,1,1,-1)" opacity="1" style="display: block;"><g opacity="1" transform="matrix(1,0,0,1,11,9.5)"><path fill="rgb(255,255,255)" fill-opacity="1" d=" M0,-2 C1.1038000583648682,-2 2,-1.1038000583648682 2,0 C2,1.1038000583648682 1.1038000583648682,2 0,2 C-1.1038000583648682,2 -2,1.1038000583648682 -2,0 C-2,-1.1038000583648682 -1.1038000583648682,-2 0,-2z"></path></g></g><g transform="matrix(1,0,0,1,1,-1)" opacity="1" style="display: block;"><g opacity="1" transform="matrix(1,0,0,1,11,-0.5)"><path fill="rgb(255,255,255)" fill-opacity="1" d=" M0,-1 C0.5519999861717224,-1 1,-0.5519999861717224 1,0 C1,0.5519999861717224 0.5519999861717224,1 0,1 C-0.5519999861717224,1 -1,0.5519999861717224 -1,0 C-1,-0.5519999861717224 -0.5519999861717224,-1 0,-1 C0,-1 0,-1 0,-1z"></path></g></g><g transform="matrix(1,0,0,1,1,-1)" opacity="1" style="display: block;"><g opacity="1" transform="matrix(1,0,0,1,8,3.5)"><path fill="rgb(0,0,0)" fill-opacity="0" d=" M0,-1.5 C0.8278499841690063,-1.5 1.5,-0.8278499841690063 1.5,0 C1.5,0.8278499841690063 0.8278499841690063,1.5 0,1.5 C-0.8278499841690063,1.5 -1.5,0.8278499841690063 -1.5,0 C-1.5,-0.8278499841690063 -0.8278499841690063,-1.5 0,-1.5z"></path></g></g><g transform="matrix(1,0,0,1,1,-1)" opacity="1" style="display: block;"><g opacity="1" transform="matrix(1,0,0,1,8,3.5)"><path stroke-linecap="butt" stroke-linejoin="miter" fill-opacity="0" stroke-miterlimit="4" stroke="rgb(255,255,255)" stroke-opacity="1" stroke-width="1" d=" M0,-1.5 C0.8278499841690063,-1.5 1.5,-0.8278499841690063 1.5,0 C1.5,0.8278499841690063 0.8278499841690063,1.5 0,1.5 C-0.8278499841690063,1.5 -1.5,0.8278499841690063 -1.5,0 C-1.5,-0.8278499841690063 -0.8278499841690063,-1.5 0,-1.5z"></path></g></g></g></g></g></g></svg>