<?xml version="1.0" encoding="UTF-8"?>
<svg xmlns="http://www.w3.org/2000/svg" xmlns:xlink="http://www.w3.org/1999/xlink" viewBox="0 0 500 500" width="500" height="500" preserveAspectRatio="xMidYMid meet" style="width: 100%; height: 100%; transform: translate3d(0px, 0px, 0px); content-visibility: visible;"><defs><clipPath id="__lottie_element_733"><rect width="500" height="500" x="0" y="0"></rect></clipPath><clipPath id="__lottie_element_736"><path d="M0,0 L283,0 L283,314 L0,314z"></path></clipPath><clipPath id="__lottie_element_741"><path d="M0,0 L97,0 L97,97 L0,97z"></path></clipPath><clipPath id="__lottie_element_755"><path d="M0,0 L388,0 L388,409 L0,409z"></path></clipPath><g id="__lottie_element_758"><g clip-path="url(#__lottie_element_759)" transform="matrix(1,0,0,1,136,67)" opacity="0" style="display: block;"><g clip-path="url(#__lottie_element_764)" transform="matrix(1,0,0,1,249,0)" opacity="0" style="display: block;"><g transform="matrix(1,0,0,1,-283,-197)" opacity="1" style="display: block;"><g opacity="1" transform="matrix(1,0,0,1,299.80999755859375,213.3000030517578)"><path fill="rgb(255,0,0)" fill-opacity="1" d=" M16,0 C16,8.836999893188477 8.836999893188477,16 0,16 C-8.836999893188477,16 -16,8.836999893188477 -16,0 C-16,-8.836999893188477 -8.836999893188477,-16 0,-16 C8.836999893188477,-16 16,-8.836999893188477 16,0 C16,0 16,0 16,0z"></path></g></g></g></g></g><clipPath id="__lottie_element_759"><path d="M0,0 L252,0 L252,250 L0,250z"></path></clipPath><clipPath id="__lottie_element_764"><path d="M0,0 L33,0 L33,33 L0,33z"></path></clipPath><clipPath id="__lottie_element_771"><path d="M0,0 L388,0 L388,409 L0,409z"></path></clipPath><filter id="__lottie_element_780" filterUnits="objectBoundingBox" x="0%" y="0%" width="100%" height="100%"><feComponentTransfer in="SourceGraphic"><feFuncA type="table" tableValues="1.0 0.0"></feFuncA></feComponentTransfer></filter><mask id="__lottie_element_758_2" mask-type="alpha"><g filter="url(#__lottie_element_780)"><rect width="388" height="409" x="0" y="0" fill="#ffffff" opacity="0"></rect><use xlink:href="#__lottie_element_758"></use></g></mask></defs><g clip-path="url(#__lottie_element_733)"><g clip-path="url(#__lottie_element_755)" transform="matrix(1.2999999523162842,0,0,1.2999999523162842,-2.199990749359131,-12.599990844726562)" opacity="1" style="display: block;"><g mask="url(#__lottie_element_758_2)" style="display: block;"><g clip-path="url(#__lottie_element_771)" transform="matrix(1,0,0,1,0,0)" opacity="1"><g transform="matrix(1,0,0,1,194,202)" opacity="1" style="display: block;"><path fill="rgb(0,0,0)" fill-opacity="0" d=" M194,-135 C194,-135 194,115 194,115 C194,115 -58,115 -58,115 C-58,115 -58,-135 -58,-135 C-58,-135 194,-135 194,-135z"></path></g><g transform="matrix(1,0,0,1,194,202)" opacity="1" style="display: block;"><g opacity="1" transform="matrix(1,0,0,1,-250,-250)"><g opacity="1" transform="matrix(1,0,0,1,250,250)"><path fill="rgb(0,0,0)" fill-opacity="1" d=" M171.5,0 C171.5,94.71700286865234 94.71700286865234,171.5 0,171.5 C-94.71700286865234,171.5 -171.5,94.71700286865234 -171.5,0 C-171.5,-94.71700286865234 -94.71700286865234,-171.5 0,-171.5 C94.71700286865234,-171.5 171.5,-94.71700286865234 171.5,0 C171.5,0 171.5,0 171.5,0z"></path><path stroke-linecap="round" stroke-linejoin="round" fill-opacity="0" stroke="rgb(255,255,255)" stroke-opacity="1" stroke-width="16" d=" M171.5,0 C171.5,94.71700286865234 94.71700286865234,171.5 0,171.5 C-94.71700286865234,171.5 -171.5,94.71700286865234 -171.5,0 C-171.5,-94.71700286865234 -94.71700286865234,-171.5 0,-171.5 C94.71700286865234,-171.5 171.5,-94.71700286865234 171.5,0 C171.5,0 171.5,0 171.5,0z"></path></g><g opacity="1" transform="matrix(1,0,0,1,250.13999938964844,249.9600067138672)"><path fill="rgb(0,0,0)" fill-opacity="1" d=" M155.85000610351562,0 C155.85000610351562,86.16899871826172 86.072998046875,156.02000427246094 0,156.02000427246094 C-86.072998046875,156.02000427246094 -155.85000610351562,86.16899871826172 -155.85000610351562,0 C-155.85000610351562,-86.16899871826172 -86.072998046875,-156.02000427246094 0,-156.02000427246094 C86.072998046875,-156.02000427246094 155.85000610351562,-86.16899871826172 155.85000610351562,0 C155.85000610351562,0 155.85000610351562,0 155.85000610351562,0z"></path><path stroke-linecap="round" stroke-linejoin="round" fill-opacity="0" stroke="rgb(255,255,255)" stroke-opacity="1" stroke-width="16" d=" M155.85000610351562,0 C155.85000610351562,86.16899871826172 86.072998046875,156.02000427246094 0,156.02000427246094 C-86.072998046875,156.02000427246094 -155.85000610351562,86.16899871826172 -155.85000610351562,0 C-155.85000610351562,-86.16899871826172 -86.072998046875,-156.02000427246094 0,-156.02000427246094 C86.072998046875,-156.02000427246094 155.85000610351562,-86.16899871826172 155.85000610351562,0 C155.85000610351562,0 155.85000610351562,0 155.85000610351562,0z"></path></g><g opacity="1" transform="matrix(1,0,0,1,250,250)"><path stroke-linecap="round" stroke-linejoin="round" fill-opacity="0" stroke="rgb(255,255,255)" stroke-opacity="1" stroke-width="16" d=" M140.2899932861328,0 C140.2899932861328,77.47899627685547 77.47899627685547,140.2899932861328 0,140.2899932861328 C-77.47899627685547,140.2899932861328 -140.2899932861328,77.47899627685547 -140.2899932861328,0 C-140.2899932861328,-77.47899627685547 -77.47899627685547,-140.2899932861328 0,-140.2899932861328 C77.47899627685547,-140.2899932861328 140.2899932861328,-77.47899627685547 140.2899932861328,0 C140.2899932861328,0 140.2899932861328,0 140.2899932861328,0z"></path></g><g opacity="1" transform="matrix(1,0,0,1,250,250)"><path stroke-linecap="round" stroke-linejoin="round" fill-opacity="0" stroke="rgb(255,255,255)" stroke-opacity="1" stroke-width="16" d=" M80.18000030517578,0 C80.18000030517578,44.28200149536133 44.28200149536133,80.18000030517578 0,80.18000030517578 C-44.28099822998047,80.18000030517578 -80.18000030517578,44.28200149536133 -80.18000030517578,0 C-80.18000030517578,-44.28200149536133 -44.28099822998047,-80.18000030517578 0,-80.18000030517578 C44.28200149536133,-80.18000030517578 80.18000030517578,-44.28200149536133 80.18000030517578,0 C80.18000030517578,0 80.18000030517578,0 80.18000030517578,0z"></path></g><g opacity="1" transform="matrix(1,0,0,1,-6,-6)"><path stroke-linecap="round" stroke-linejoin="round" fill-opacity="0" stroke="rgb(255,255,255)" stroke-opacity="1" stroke-width="16" d=" M256,173.50999450683594 C256,173.50999450683594 256,116.94000244140625 256,116.94000244140625"></path></g><g opacity="1" transform="matrix(1,0,0,1,194.61000061035156,154.07000732421875)"><path stroke-linecap="round" stroke-linejoin="round" fill-opacity="0" stroke="rgb(255,255,255)" stroke-opacity="1" stroke-width="16" d=" M14.140000343322754,24.489999771118164 C14.140000343322754,24.489999771118164 -14.140000343322754,-24.489999771118164 -14.140000343322754,-24.489999771118164"></path></g><g opacity="1" transform="matrix(1,0,0,1,154.07000732421875,194.61000061035156)"><path stroke-linecap="round" stroke-linejoin="round" fill-opacity="0" stroke="rgb(255,255,255)" stroke-opacity="1" stroke-width="16" d=" M24.489999771118164,14.140000343322754 C24.489999771118164,14.140000343322754 -24.489999771118164,-14.140000343322754 -24.489999771118164,-14.140000343322754"></path></g><g opacity="1" transform="matrix(1,0,0,1,-6,-6)"><path stroke-linecap="round" stroke-linejoin="round" fill-opacity="0" stroke="rgb(255,255,255)" stroke-opacity="1" stroke-width="16" d=" M173.50999450683594,256 C173.50999450683594,256 116.94000244140625,256 116.94000244140625,256"></path></g><g opacity="1" transform="matrix(1,0,0,1,154.07000732421875,305.3900146484375)"><path stroke-linecap="round" stroke-linejoin="round" fill-opacity="0" stroke="rgb(255,255,255)" stroke-opacity="1" stroke-width="16" d=" M24.489999771118164,-14.140000343322754 C24.489999771118164,-14.140000343322754 -24.489999771118164,14.140000343322754 -24.489999771118164,14.140000343322754"></path></g><g opacity="1" transform="matrix(1,0,0,1,194.61000061035156,345.92999267578125)"><path stroke-linecap="round" stroke-linejoin="round" fill-opacity="0" stroke="rgb(255,255,255)" stroke-opacity="1" stroke-width="16" d=" M14.140000343322754,-24.489999771118164 C14.140000343322754,-24.489999771118164 -14.140000343322754,24.489999771118164 -14.140000343322754,24.489999771118164"></path></g><g opacity="1" transform="matrix(1,0,0,1,-6,-6)"><path stroke-linecap="round" stroke-linejoin="round" fill-opacity="0" stroke="rgb(255,255,255)" stroke-opacity="1" stroke-width="16" d=" M256,338.489990234375 C256,338.489990234375 256,395.05999755859375 256,395.05999755859375"></path></g><g opacity="1" transform="matrix(1,0,0,1,305.3900146484375,345.92999267578125)"><path stroke-linecap="round" stroke-linejoin="round" fill-opacity="0" stroke="rgb(255,255,255)" stroke-opacity="1" stroke-width="16" d=" M-14.140000343322754,-24.489999771118164 C-14.140000343322754,-24.489999771118164 14.140000343322754,24.489999771118164 14.140000343322754,24.489999771118164"></path></g><g opacity="1" transform="matrix(1,0,0,1,345.92999267578125,305.3900146484375)"><path stroke-linecap="round" stroke-linejoin="round" fill-opacity="0" stroke="rgb(255,255,255)" stroke-opacity="1" stroke-width="16" d=" M-24.489999771118164,-14.140000343322754 C-24.489999771118164,-14.140000343322754 24.489999771118164,14.140000343322754 24.489999771118164,14.140000343322754"></path></g><g opacity="1" transform="matrix(1,0,0,1,-6,-6)"><path stroke-linecap="round" stroke-linejoin="round" fill-opacity="0" stroke="rgb(255,255,255)" stroke-opacity="1" stroke-width="16" d=" M338.489990234375,256 C338.489990234375,256 395.05999755859375,256 395.05999755859375,256"></path></g><g opacity="1" transform="matrix(1,0,0,1,345.92999267578125,194.61000061035156)"><path stroke-linecap="round" stroke-linejoin="round" fill-opacity="0" stroke="rgb(255,255,255)" stroke-opacity="1" stroke-width="16" d=" M-24.489999771118164,14.140000343322754 C-24.489999771118164,14.140000343322754 24.489999771118164,-14.140000343322754 24.489999771118164,-14.140000343322754"></path></g><g opacity="1" transform="matrix(1,0,0,1,305.3900146484375,154.07000732421875)"><path stroke-linecap="round" stroke-linejoin="round" fill-opacity="0" stroke="rgb(255,255,255)" stroke-opacity="1" stroke-width="16" d=" M-14.140000343322754,24.489999771118164 C-14.140000343322754,24.489999771118164 14.140000343322754,-24.489999771118164 14.140000343322754,-24.489999771118164"></path></g><g opacity="1" transform="matrix(1,0,0,1,-6,-6)"><path stroke-linecap="round" stroke-linejoin="round" fill-opacity="0" stroke="rgb(255,255,255)" stroke-opacity="1" stroke-width="16" d=" M256,280.0899963378906 C256,280.0899963378906 256,302.42999267578125 256,302.42999267578125"></path></g><g opacity="1" transform="matrix(1,0,0,1,-6,-6)"><path stroke-linecap="round" stroke-linejoin="round" fill-opacity="0" stroke="rgb(255,255,255)" stroke-opacity="1" stroke-width="16" d=" M256,209.57000732421875 C256,209.57000732421875 256,232.69000244140625 256,232.69000244140625"></path></g><g opacity="1" transform="matrix(1,0,0,1,-6,-6)"><path stroke-linecap="round" stroke-linejoin="round" fill-opacity="0" stroke="rgb(255,255,255)" stroke-opacity="1" stroke-width="16" d=" M279.82000732421875,256 C279.82000732421875,256 302.4200134277344,256 302.4200134277344,256"></path></g><g opacity="1" transform="matrix(1,0,0,1,-6,-6)"><path stroke-linecap="round" stroke-linejoin="round" fill-opacity="0" stroke="rgb(255,255,255)" stroke-opacity="1" stroke-width="16" d=" M209.57000732421875,256 C209.57000732421875,256 232.66000366210938,256 232.66000366210938,256"></path></g><g opacity="1" transform="matrix(1,0,0,1,250,250)"><path stroke-linecap="round" stroke-linejoin="round" fill-opacity="0" stroke="rgb(255,255,255)" stroke-opacity="1" stroke-width="16" d=" M21.739999771118164,0 C21.739999771118164,12.005999565124512 12.005999565124512,21.739999771118164 0,21.739999771118164 C-12.005000114440918,21.739999771118164 -21.739999771118164,12.005999565124512 -21.739999771118164,0 C-21.739999771118164,-12.005999565124512 -12.005000114440918,-21.739999771118164 0,-21.739999771118164 C12.005999565124512,-21.739999771118164 21.739999771118164,-12.005999565124512 21.739999771118164,0 C21.739999771118164,0 21.739999771118164,0 21.739999771118164,0z"></path></g><g opacity="1" transform="matrix(1.5602999925613403,0,0,1.5082999467849731,246,244)"><path fill="rgb(255,255,255)" fill-opacity="0" d=" M146,-150 C146,-150 146,150 146,150 C146,150 -146,150 -146,150 C-146,150 -146,-150 -146,-150 C-146,-150 146,-150 146,-150z"></path></g></g></g></g></g></g><g style="display: none;"><g><g><path stroke-linecap="round" stroke-linejoin="round" fill-opacity="0"></path></g></g></g><g clip-path="url(#__lottie_element_736)" transform="matrix(1.2999999523162842,0,0,1.2999999523162842,133,32.90000915527344)" opacity="0" style="display: block;"><g clip-path="url(#__lottie_element_741)" transform="matrix(1,0,0,1,249,0)" opacity="0" style="display: block;"><g transform="matrix(1,0,0,1,-251,-165)" opacity="1" style="display: block;"><g opacity="1" transform="matrix(1,0,0,1,299.80999755859375,213.3000030517578)"><path stroke-linecap="round" stroke-linejoin="round" fill-opacity="0" stroke="rgb(255,255,255)" stroke-opacity="1" stroke-width="16" d=" M16,0 C16,8.836999893188477 8.836999893188477,16 0,16 C-8.836999893188477,16 -16,8.836999893188477 -16,0 C-16,-8.836999893188477 -8.836999893188477,-16 0,-16 C8.836999893188477,-16 16,-8.836999893188477 16,0 C16,0 16,0 16,0z"></path></g></g><g transform="matrix(1,0,0,1,-251,-165)" opacity="1" style="display: block;"><g opacity="1" transform="matrix(1,0,0,1,0,0)"><path fill="rgb(255,255,255)" fill-opacity="1" d=" M315.81,213.3 C315.81,222.14 308.65,229.3 299.81,229.3 C290.97,229.3 283.81,222.14 283.81,213.3 C283.81,204.46 290.97,197.3 299.81,197.3 C308.65,197.3 315.81,204.46 315.81,213.3 C315.81,213.3 315.81,213.3 315.81,213.3z"></path><g opacity="1" transform="matrix(1,0,0,1,299.80999755859375,213.3000030517578)"></g></g></g></g></g></g></svg>