<?xml version="1.0" encoding="UTF-8"?>
<svg xmlns="http://www.w3.org/2000/svg" xmlns:xlink="http://www.w3.org/1999/xlink" viewBox="0 0 500 500" width="500" height="500" preserveAspectRatio="xMidYMid meet" style="width: 100%; height: 100%; transform: translate3d(0px, 0px, 0px); content-visibility: visible;"><defs><clipPath id="__lottie_element_782"><rect width="500" height="500" x="0" y="0"></rect></clipPath><g id="__lottie_element_794"><g transform="matrix(1,0,0,1,0,0)" opacity="1" style="display: block;"><path fill="rgb(0,0,0)" fill-opacity="1" d=" M301.61,387.9 C301.61,387.9 111.45,387.9 111.45,387.9 C101.32,387.9 93.11,379.68 93.11,369.55 C93.11,369.55 93.11,96.85 93.11,96.85 C93.11,86.72 101.32,78.5 111.45,78.5 C111.45,78.5 301.61,78.5 301.61,78.5 C311.74,78.5 319.95,86.72 319.95,96.85 C319.95,96.85 319.95,369.55 319.95,369.55 C319.95,379.68 311.74,387.9 301.61,387.9 C301.61,387.9 301.61,387.9 301.61,387.9z"></path><g opacity="1" transform="matrix(1,0,0,1,206.52999877929688,233.1999969482422)"></g></g></g><filter id="__lottie_element_800" filterUnits="objectBoundingBox" x="0%" y="0%" width="100%" height="100%"><feComponentTransfer in="SourceGraphic"><feFuncA type="table" tableValues="1.0 0.0"></feFuncA></feComponentTransfer></filter><mask id="__lottie_element_794_2" mask-type="alpha"><g filter="url(#__lottie_element_800)"><rect width="500" height="500" x="0" y="0" fill="#ffffff" opacity="0"></rect><use xlink:href="#__lottie_element_794"></use></g></mask><clipPath id="__lottie_element_805"><path d="M0,0 L501,0 L501,500 L0,500z"></path></clipPath><g id="__lottie_element_808"><g transform="matrix(1,0,0,1,0,0)" opacity="1" style="display: block;"><g opacity="1" transform="matrix(1,0,0,1,0,0)"><g opacity="1" transform="matrix(1,0,0,1,206.52999877929688,233.1999969482422)"><path fill="rgb(255,0,0)" fill-opacity="1" d=" M95.08000183105469,154.6999969482422 C95.08000183105469,154.6999969482422 -95.08000183105469,154.6999969482422 -95.08000183105469,154.6999969482422 C-105.21099853515625,154.6999969482422 -113.41999816894531,146.4810028076172 -113.41999816894531,136.35000610351562 C-113.41999816894531,136.35000610351562 -113.41999816894531,-136.35000610351562 -113.41999816894531,-136.35000610351562 C-113.41999816894531,-146.4810028076172 -105.21099853515625,-154.6999969482422 -95.08000183105469,-154.6999969482422 C-95.08000183105469,-154.6999969482422 95.08000183105469,-154.6999969482422 95.08000183105469,-154.6999969482422 C105.21099853515625,-154.6999969482422 113.41999816894531,-146.4810028076172 113.41999816894531,-136.35000610351562 C113.41999816894531,-136.35000610351562 113.41999816894531,136.35000610351562 113.41999816894531,136.35000610351562 C113.41999816894531,146.4810028076172 105.21099853515625,154.6999969482422 95.08000183105469,154.6999969482422 C95.08000183105469,154.6999969482422 95.08000183105469,154.6999969482422 95.08000183105469,154.6999969482422z"></path></g></g></g></g><clipPath id="__lottie_element_812"><path d="M0,0 L501,0 L501,500 L0,500z"></path></clipPath><g id="__lottie_element_838"><g transform="matrix(1,0,0,1,0,0)" opacity="1" style="display: block;"><path fill="rgb(0,0,0)" fill-opacity="1" d=" M388.55,421.5 C388.55,421.5 198.39,421.5 198.39,421.5 C188.26,421.5 180.05,413.28 180.05,403.15 C180.05,403.15 180.05,130.45 180.05,130.45 C180.05,120.32 188.26,112.1 198.39,112.1 C198.39,112.1 388.55,112.1 388.55,112.1 C398.68,112.1 406.89,120.32 406.89,130.45 C406.89,130.45 406.89,403.15 406.89,403.15 C406.89,413.28 398.68,421.5 388.55,421.5 C388.55,421.5 388.55,421.5 388.55,421.5z"></path><g opacity="1" transform="matrix(1,0,0,1,293.4700012207031,266.79998779296875)"></g></g></g><filter id="__lottie_element_844" filterUnits="objectBoundingBox" x="0%" y="0%" width="100%" height="100%"><feComponentTransfer in="SourceGraphic"><feFuncA type="table" tableValues="1.0 0.0"></feFuncA></feComponentTransfer></filter><mask id="__lottie_element_838_2" mask-type="alpha"><g filter="url(#__lottie_element_844)"><rect width="501" height="500" x="0" y="0" fill="#ffffff" opacity="0"></rect><use xlink:href="#__lottie_element_838"></use></g></mask><filter id="__lottie_element_851" filterUnits="objectBoundingBox" x="0%" y="0%" width="100%" height="100%"><feComponentTransfer in="SourceGraphic"><feFuncA type="table" tableValues="1.0 0.0"></feFuncA></feComponentTransfer></filter><mask id="__lottie_element_808_2" mask-type="alpha"><g filter="url(#__lottie_element_851)"><rect width="501" height="500" x="0" y="0" fill="#ffffff" opacity="0"></rect><use xlink:href="#__lottie_element_808"></use></g></mask></defs><g clip-path="url(#__lottie_element_782)"><g clip-path="url(#__lottie_element_805)" transform="matrix(1,0,0,1,0,0)" opacity="1" style="display: block;"><g mask="url(#__lottie_element_808_2)" style="display: block;"><g clip-path="url(#__lottie_element_812)" transform="matrix(1,0,0,1,0,0)" opacity="1"><g transform="matrix(1,0,0,1,0,0)" opacity="1" style="display: block;"><path fill="rgb(0,0,0)" fill-opacity="0" d=" M500,48 C500,48 500,423 500,423 C500,423 43,423 43,423 C43,423 43,48 43,48 C43,48 500,48 500,48z"></path></g><g transform="matrix(1,0,0,1,0,0)" opacity="1" style="display: block;"><g opacity="1" transform="matrix(1,0,0,1,293.4700012207031,266.79998779296875)"><path fill="rgb(255,255,255)" fill-opacity="1" d=" M95.08000183105469,154.6999969482422 C95.08000183105469,154.6999969482422 -95.08000183105469,154.6999969482422 -95.08000183105469,154.6999969482422 C-105.21099853515625,154.6999969482422 -113.41999816894531,146.4810028076172 -113.41999816894531,136.35000610351562 C-113.41999816894531,136.35000610351562 -113.41999816894531,-136.35000610351562 -113.41999816894531,-136.35000610351562 C-113.41999816894531,-146.4810028076172 -105.21099853515625,-154.6999969482422 -95.08000183105469,-154.6999969482422 C-95.08000183105469,-154.6999969482422 95.08000183105469,-154.6999969482422 95.08000183105469,-154.6999969482422 C105.21099853515625,-154.6999969482422 113.41999816894531,-146.4810028076172 113.41999816894531,-136.35000610351562 C113.41999816894531,-136.35000610351562 113.41999816894531,136.35000610351562 113.41999816894531,136.35000610351562 C113.41999816894531,146.4810028076172 105.21099853515625,154.6999969482422 95.08000183105469,154.6999969482422 C95.08000183105469,154.6999969482422 95.08000183105469,154.6999969482422 95.08000183105469,154.6999969482422z"></path></g></g><g mask="url(#__lottie_element_838_2)" style="display: block;"><g transform="matrix(1,0,0,1,0,0)" opacity="1"><g opacity="1" transform="matrix(1,0,0,1,0,0)"><path fill="rgb(0,0,0)" fill-opacity="0" d=" M471,48 C471,48 471,486 471,486 C471,486 116,486 116,486 C116,486 116,48 116,48 C116,48 471,48 471,48z"></path></g><g opacity="1" transform="matrix(1,0,0,1,293.4700012207031,266.79998779296875)"><path stroke-linecap="round" stroke-linejoin="round" fill-opacity="0" stroke="rgb(0,0,0)" stroke-opacity="1" stroke-width="32" d=" M95.08000183105469,154.6999969482422 C95.08000183105469,154.6999969482422 -95.08000183105469,154.6999969482422 -95.08000183105469,154.6999969482422 C-105.21099853515625,154.6999969482422 -113.41999816894531,146.4810028076172 -113.41999816894531,136.35000610351562 C-113.41999816894531,136.35000610351562 -113.41999816894531,-136.35000610351562 -113.41999816894531,-136.35000610351562 C-113.41999816894531,-146.4810028076172 -105.21099853515625,-154.6999969482422 -95.08000183105469,-154.6999969482422 C-95.08000183105469,-154.6999969482422 95.08000183105469,-154.6999969482422 95.08000183105469,-154.6999969482422 C105.21099853515625,-154.6999969482422 113.41999816894531,-146.4810028076172 113.41999816894531,-136.35000610351562 C113.41999816894531,-136.35000610351562 113.41999816894531,136.35000610351562 113.41999816894531,136.35000610351562 C113.41999816894531,146.4810028076172 105.21099853515625,154.6999969482422 95.08000183105469,154.6999969482422 C95.08000183105469,154.6999969482422 95.08000183105469,154.6999969482422 95.08000183105469,154.6999969482422z"></path></g></g></g><g transform="matrix(1,0,0,1,0,0)" opacity="1" style="display: block;"><g opacity="1" transform="matrix(1,0,0,1,342.7200012207031,255.33999633789062)"><path stroke-linecap="round" stroke-linejoin="round" fill-opacity="0" stroke="rgb(0,0,0)" stroke-opacity="1" stroke-width="16" d=" M-21.459999084472656,47.93000030517578 C-11.53499984741211,47.683998107910156 -1.684000015258789,43.77399826049805 5.889999866485596,36.20000076293945 C21.024999618530273,21.06599998474121 21.5310001373291,-3.1570000648498535 7.409999847412109,-18.899999618530273 C7.409999847412109,-18.899999618530273 7.460000038146973,-18.940000534057617 7.460000038146973,-18.940000534057617 C7.460000038146973,-18.940000534057617 5.889999866485596,-20.510000228881836 5.889999866485596,-20.510000228881836 C5.889999866485596,-20.510000228881836 -21.530000686645508,-47.93000030517578 -21.530000686645508,-47.93000030517578"></path></g></g><g transform="matrix(1,0,0,1,0,0)" opacity="1" style="display: block;"><g opacity="1" transform="matrix(1,0,0,1,-6,-6)"><path stroke-linecap="round" stroke-linejoin="round" fill-opacity="0" stroke="rgb(0,0,0)" stroke-opacity="1" stroke-width="16" d=" M223.25,170.9199981689453 C223.25,170.9199981689453 223.25,155.30999755859375 223.25,155.30999755859375"></path></g></g><g transform="matrix(1,0,0,1,0,0)" opacity="1" style="display: block;"><g opacity="1" transform="matrix(1,0,0,1,293.4700012207031,240.74000549316406)"><path fill="rgb(0,0,0)" fill-opacity="1" d=" M57,-3.9100000858306885 C57,-3.9100000858306885 0,-61.790000915527344 0,-61.790000915527344 C0,-61.790000915527344 -57.0099983215332,-3.9100000858306885 -57.0099983215332,-3.9100000858306885 C-70.6259994506836,10.857000350952148 -69.64700317382812,35.112998962402344 -56.029998779296875,49.880001068115234 C-49.433998107910156,57.03300094604492 -40.38800048828125,61.790000915527344 -31.059999465942383,61.790000915527344 C-11.961000442504883,61.790000915527344 -0.010999999940395355,41.96900177001953 0,41.95000076293945 C0.012000000104308128,41.96900177001953 11.951000213623047,61.790000915527344 31.049999237060547,61.790000915527344 C40.37799835205078,61.790000915527344 49.433998107910156,57.03300094604492 56.029998779296875,49.880001068115234 C69.64700317382812,35.112998962402344 70.61599731445312,10.857000350952148 57,-3.9100000858306885 C57,-3.9100000858306885 57,-3.9100000858306885 57,-3.9100000858306885z"></path><path stroke-linecap="round" stroke-linejoin="round" fill-opacity="0" stroke="rgb(0,0,0)" stroke-opacity="1" stroke-width="16" d=" M57,-3.9100000858306885 C57,-3.9100000858306885 0,-61.790000915527344 0,-61.790000915527344 C0,-61.790000915527344 -57.0099983215332,-3.9100000858306885 -57.0099983215332,-3.9100000858306885 C-70.6259994506836,10.857000350952148 -69.64700317382812,35.112998962402344 -56.029998779296875,49.880001068115234 C-49.433998107910156,57.03300094604492 -40.38800048828125,61.790000915527344 -31.059999465942383,61.790000915527344 C-11.961000442504883,61.790000915527344 -0.010999999940395355,41.96900177001953 0,41.95000076293945 C0.012000000104308128,41.96900177001953 11.951000213623047,61.790000915527344 31.049999237060547,61.790000915527344 C40.37799835205078,61.790000915527344 49.433998107910156,57.03300094604492 56.029998779296875,49.880001068115234 C69.64700317382812,35.112998962402344 70.61599731445312,10.857000350952148 57,-3.9100000858306885 C57,-3.9100000858306885 57,-3.9100000858306885 57,-3.9100000858306885z"></path></g></g><g transform="matrix(1,0,0,1,0,0)" opacity="1" style="display: block;"><g opacity="1" transform="matrix(0.18000000715255737,0,0,0.18000000715255737,369.67999267578125,376.7799987792969)"><path fill="rgb(0,0,0)" fill-opacity="1" d=" M57,-3.9100000858306885 C57,-3.9100000858306885 0,-61.790000915527344 0,-61.790000915527344 C0,-61.790000915527344 -57.0099983215332,-3.9100000858306885 -57.0099983215332,-3.9100000858306885 C-70.6259994506836,10.857000350952148 -69.64700317382812,35.112998962402344 -56.029998779296875,49.880001068115234 C-49.433998107910156,57.03300094604492 -40.38800048828125,61.790000915527344 -31.059999465942383,61.790000915527344 C-11.961000442504883,61.790000915527344 -0.010999999940395355,41.96900177001953 0,41.95000076293945 C0.012000000104308128,41.96900177001953 11.951000213623047,61.790000915527344 31.049999237060547,61.790000915527344 C40.37799835205078,61.790000915527344 49.433998107910156,57.03300094604492 56.029998779296875,49.880001068115234 C69.64700317382812,35.112998962402344 70.61599731445312,10.857000350952148 57,-3.9100000858306885 C57,-3.9100000858306885 57,-3.9100000858306885 57,-3.9100000858306885z"></path><path stroke-linecap="round" stroke-linejoin="round" fill-opacity="0" stroke="rgb(0,0,0)" stroke-opacity="1" stroke-width="16" d=" M57,-3.9100000858306885 C57,-3.9100000858306885 0,-61.790000915527344 0,-61.790000915527344 C0,-61.790000915527344 -57.0099983215332,-3.9100000858306885 -57.0099983215332,-3.9100000858306885 C-70.6259994506836,10.857000350952148 -69.64700317382812,35.112998962402344 -56.029998779296875,49.880001068115234 C-49.433998107910156,57.03300094604492 -40.38800048828125,61.790000915527344 -31.059999465942383,61.790000915527344 C-11.961000442504883,61.790000915527344 -0.010999999940395355,41.96900177001953 0,41.95000076293945 C0.012000000104308128,41.96900177001953 11.951000213623047,61.790000915527344 31.049999237060547,61.790000915527344 C40.37799835205078,61.790000915527344 49.433998107910156,57.03300094604492 56.029998779296875,49.880001068115234 C69.64700317382812,35.112998962402344 70.61599731445312,10.857000350952148 57,-3.9100000858306885 C57,-3.9100000858306885 57,-3.9100000858306885 57,-3.9100000858306885z"></path></g></g><g transform="matrix(1,0,0,1,0,0)" opacity="1" style="display: block;"><g opacity="1" transform="matrix(1,0,0,1,-6,-6)"><path stroke-linecap="round" stroke-linejoin="round" fill-opacity="0" stroke="rgb(0,0,0)" stroke-opacity="1" stroke-width="16" d=" M299.4700012207031,288.69000244140625 C299.4700012207031,288.69000244140625 299.4700012207031,325.0899963378906 299.4700012207031,325.0899963378906"></path></g></g><g transform="matrix(1,0,0,1,0,0)" opacity="1" style="display: block;"><g opacity="1" transform="matrix(1,0,0,1,-6,-6)"><path stroke-linecap="round" stroke-linejoin="round" fill-opacity="0" stroke="rgb(0,0,0)" stroke-opacity="1" stroke-width="16" d=" M284.6000061035156,330.8299865722656 C284.6000061035156,330.8299865722656 314.3299865722656,330.8299865722656 314.3299865722656,330.8299865722656"></path></g></g><g transform="matrix(1,0,0,1,0,0)" opacity="1" style="display: block;"><g opacity="1" transform="matrix(1.1562999486923218,0,0,1.4643000364303589,292,248)"><path fill="rgb(177,216,82)" fill-opacity="0" d=" M146,-150 C146,-150 146,150 146,150 C146,150 -146,150 -146,150 C-146,150 -146,-150 -146,-150 C-146,-150 146,-150 146,-150z"></path></g></g></g></g></g><g transform="matrix(1,0,0,1,0,0)" opacity="1" style="display: block;"><g opacity="1" transform="matrix(1,0,0,1,206.52999877929688,233.1999969482422)"><path fill="rgb(255,255,255)" fill-opacity="1" d=" M95.08000183105469,154.6999969482422 C95.08000183105469,154.6999969482422 -95.08000183105469,154.6999969482422 -95.08000183105469,154.6999969482422 C-105.21099853515625,154.6999969482422 -113.41999816894531,146.4810028076172 -113.41999816894531,136.35000610351562 C-113.41999816894531,136.35000610351562 -113.41999816894531,-136.35000610351562 -113.41999816894531,-136.35000610351562 C-113.41999816894531,-146.4810028076172 -105.21099853515625,-154.6999969482422 -95.08000183105469,-154.6999969482422 C-95.08000183105469,-154.6999969482422 95.08000183105469,-154.6999969482422 95.08000183105469,-154.6999969482422 C105.21099853515625,-154.6999969482422 113.41999816894531,-146.4810028076172 113.41999816894531,-136.35000610351562 C113.41999816894531,-136.35000610351562 113.41999816894531,136.35000610351562 113.41999816894531,136.35000610351562 C113.41999816894531,146.4810028076172 105.21099853515625,154.6999969482422 95.08000183105469,154.6999969482422 C95.08000183105469,154.6999969482422 95.08000183105469,154.6999969482422 95.08000183105469,154.6999969482422z"></path></g></g><g mask="url(#__lottie_element_794_2)" style="display: block;"><g transform="matrix(1,0,0,1,0,0)" opacity="1"><g opacity="1" transform="matrix(1,0,0,1,0,0)"><path fill="rgb(0,0,0)" fill-opacity="0" d=" M384,14 C384,14 384,452 384,452 C384,452 29,452 29,452 C29,452 29,14 29,14 C29,14 384,14 384,14z"></path></g><g opacity="1" transform="matrix(1,0,0,1,206.52999877929688,233.1999969482422)"><path stroke-linecap="round" stroke-linejoin="round" fill-opacity="0" stroke="rgb(0,0,0)" stroke-opacity="1" stroke-width="32" d=" M95.08000183105469,154.6999969482422 C95.08000183105469,154.6999969482422 -95.08000183105469,154.6999969482422 -95.08000183105469,154.6999969482422 C-105.21099853515625,154.6999969482422 -113.41999816894531,146.4810028076172 -113.41999816894531,136.35000610351562 C-113.41999816894531,136.35000610351562 -113.41999816894531,-136.35000610351562 -113.41999816894531,-136.35000610351562 C-113.41999816894531,-146.4810028076172 -105.21099853515625,-154.6999969482422 -95.08000183105469,-154.6999969482422 C-95.08000183105469,-154.6999969482422 95.08000183105469,-154.6999969482422 95.08000183105469,-154.6999969482422 C105.21099853515625,-154.6999969482422 113.41999816894531,-146.4810028076172 113.41999816894531,-136.35000610351562 C113.41999816894531,-136.35000610351562 113.41999816894531,136.35000610351562 113.41999816894531,136.35000610351562 C113.41999816894531,146.4810028076172 105.21099853515625,154.6999969482422 95.08000183105469,154.6999969482422 C95.08000183105469,154.6999969482422 95.08000183105469,154.6999969482422 95.08000183105469,154.6999969482422z"></path></g></g></g><g transform="matrix(1,0,0,1,0,0)" opacity="1" style="display: block;"><g opacity="1" transform="matrix(1,0,0,1,206.52999877929688,233.1999969482422)"><path fill="rgb(0,0,0)" fill-opacity="1" d=" M0,87.08999633789062 C0,87.08999633789062 -61.959999084472656,0 -61.959999084472656,0 C-61.959999084472656,0 0,-87.08999633789062 0,-87.08999633789062 C0,-87.08999633789062 61.959999084472656,0 61.959999084472656,0 C61.959999084472656,0 0,87.08999633789062 0,87.08999633789062 C0,87.08999633789062 0,87.08999633789062 0,87.08999633789062z"></path><path stroke-linecap="round" stroke-linejoin="round" fill-opacity="0" stroke="rgb(0,0,0)" stroke-opacity="1" stroke-width="16" d=" M0,87.08999633789062 C0,87.08999633789062 -61.959999084472656,0 -61.959999084472656,0 C-61.959999084472656,0 0,-87.08999633789062 0,-87.08999633789062 C0,-87.08999633789062 61.959999084472656,0 61.959999084472656,0 C61.959999084472656,0 0,87.08999633789062 0,87.08999633789062 C0,87.08999633789062 0,87.08999633789062 0,87.08999633789062z"></path></g></g><g transform="matrix(1,0,0,1,0,0)" opacity="1" style="display: block;"><g opacity="1" transform="matrix(0.18000000715255737,0,0,0.18000000715255737,130.32000732421875,123.51000213623047)"><path fill="rgb(0,0,0)" fill-opacity="1" d=" M0,87.08999633789062 C0,87.08999633789062 -61.959999084472656,0 -61.959999084472656,0 C-61.959999084472656,0 0,-87.08999633789062 0,-87.08999633789062 C0,-87.08999633789062 61.959999084472656,0 61.959999084472656,0 C61.959999084472656,0 0,87.08999633789062 0,87.08999633789062 C0,87.08999633789062 0,87.08999633789062 0,87.08999633789062z"></path><path stroke-linecap="round" stroke-linejoin="round" fill-opacity="0" stroke="rgb(0,0,0)" stroke-opacity="1" stroke-width="16" d=" M0,87.08999633789062 C0,87.08999633789062 -61.959999084472656,0 -61.959999084472656,0 C-61.959999084472656,0 0,-87.08999633789062 0,-87.08999633789062 C0,-87.08999633789062 61.959999084472656,0 61.959999084472656,0 C61.959999084472656,0 0,87.08999633789062 0,87.08999633789062 C0,87.08999633789062 0,87.08999633789062 0,87.08999633789062z"></path></g></g><g transform="matrix(1,0,0,1,0,0)" opacity="1" style="display: block;"><g opacity="1" transform="matrix(0.18000000715255737,0,0,0.18000000715255737,282.75,342.8900146484375)"><path fill="rgb(0,0,0)" fill-opacity="1" d=" M0,87.08999633789062 C0,87.08999633789062 -61.959999084472656,0 -61.959999084472656,0 C-61.959999084472656,0 0,-87.08999633789062 0,-87.08999633789062 C0,-87.08999633789062 61.959999084472656,0 61.959999084472656,0 C61.959999084472656,0 0,87.08999633789062 0,87.08999633789062 C0,87.08999633789062 0,87.08999633789062 0,87.08999633789062z"></path><path stroke-linecap="round" stroke-linejoin="round" fill-opacity="0" stroke="rgb(0,0,0)" stroke-opacity="1" stroke-width="16" d=" M0,87.08999633789062 C0,87.08999633789062 -61.959999084472656,0 -61.959999084472656,0 C-61.959999084472656,0 0,-87.08999633789062 0,-87.08999633789062 C0,-87.08999633789062 61.959999084472656,0 61.959999084472656,0 C61.959999084472656,0 0,87.08999633789062 0,87.08999633789062 C0,87.08999633789062 0,87.08999633789062 0,87.08999633789062z"></path></g></g></g></svg>