<?xml version="1.0" encoding="UTF-8"?>
<svg xmlns="http://www.w3.org/2000/svg" xmlns:xlink="http://www.w3.org/1999/xlink" viewBox="0 0 18 18" width="18" height="18" preserveAspectRatio="xMidYMid meet" style="width: 100%; height: 100%; transform: translate3d(0px, 0px, 0px); content-visibility: visible;"><defs><clipPath id="__lottie_element_853"><rect width="18" height="18" x="0" y="0"></rect></clipPath><clipPath id="__lottie_element_856"><path d="M0,0 L17,0 L17,17 L0,17z"></path></clipPath><g id="__lottie_element_859"><g transform="matrix(1,0,0,1,-4,-4)" opacity="1" style="display: block;"><g opacity="1" transform="matrix(1,0,0,1,4.5,4.5)"><g opacity="1" transform="matrix(1,0,0,1,8,8)"><path fill="rgb(0,0,0)" fill-opacity="1" d=" M8,-8 C8,-8 8,8 8,8 C8,8 -8,8 -8,8 C-8,8 -8,-8 -8,-8 C-8,-8 8,-8 8,-8z"></path></g></g></g></g><clipPath id="__lottie_element_863"><path d="M0,0 L17,0 L17,17 L0,17z"></path></clipPath><mask id="__lottie_element_859_1" mask-type="alpha"><use xlink:href="#__lottie_element_859"></use></mask></defs><g clip-path="url(#__lottie_element_853)"><g clip-path="url(#__lottie_element_856)" transform="matrix(1,0,0,1,0.5,0.5)" opacity="1" style="display: block;"><g mask="url(#__lottie_element_859_1)" style="display: block;"><g clip-path="url(#__lottie_element_863)" transform="matrix(1,0,0,1,0,0)" opacity="1"><g transform="matrix(1,0,0,1,-4,-4)" opacity="1" style="display: block;"><path fill="rgb(0,0,0)" fill-opacity="0" d=" M21,4 C21,4 21,21 21,21 C21,21 4,21 4,21 C4,21 4,4 4,4 C4,4 21,4 21,4z"></path></g><g transform="matrix(1,0,0,1,-4,-4)" opacity="1" style="display: block;"><g opacity="1" transform="matrix(1,0,0,1,5,5)"><g opacity="1" transform="matrix(1,0,0,1,0,0)"><path fill="rgb(0,0,0)" fill-opacity="0" d=" M12.8100004196167,2.190000057220459 C11.446999549865723,0.8370000123977661 9.564000129699707,0 7.489999771118164,0 C5.415999889373779,0 3.5429999828338623,0.8370000123977661 2.190000057220459,2.190000057220459 C0.8370000123977661,3.5429999828338623 0,5.426000118255615 0,7.489999771118164 C0,9.553999900817871 0.8370000123977661,11.446999549865723 2.190000057220459,12.8100004196167 C3.5429999828338623,14.163000106811523 5.426000118255615,15 7.489999771118164,15 C9.553999900817871,15 11.446999549865723,14.163000106811523 12.8100004196167,12.8100004196167 C14.163000106811523,11.446999549865723 15,9.564000129699707 15,7.489999771118164 C15,5.415999889373779 14.163000106811523,3.5429999828338623 12.8100004196167,2.190000057220459 C12.8100004196167,2.190000057220459 12.8100004196167,2.190000057220459 12.8100004196167,2.190000057220459 C12.8100004196167,2.190000057220459 12.8100004196167,2.190000057220459 12.8100004196167,2.190000057220459z M7.489999771118164,12.489999771118164 C6.10699987411499,12.489999771118164 4.881999969482422,11.932000160217285 3.9700000286102295,11.029999732971191 C3.058000087738037,10.137999534606934 2.490000009536743,8.873000144958496 2.490000009536743,7.489999771118164 C2.490000009536743,6.10699987411499 3.058000087738037,4.872000217437744 3.9600000381469727,3.9600000381469727 C4.872000217437744,3.058000087738037 6.10699987411499,2.490000009536743 7.489999771118164,2.490000009536743 C8.873000144958496,2.490000009536743 10.137999534606934,3.058000087738037 11.029999732971191,3.9700000286102295 C11.932000160217285,4.881999969482422 12.489999771118164,6.10699987411499 12.489999771118164,7.489999771118164 C12.489999771118164,8.873000144958496 11.932000160217285,10.128000259399414 11.029999732971191,11.029999732971191 C10.128000259399414,11.932000160217285 8.873000144958496,12.489999771118164 7.489999771118164,12.489999771118164 C7.489999771118164,12.489999771118164 7.489999771118164,12.489999771118164 7.489999771118164,12.489999771118164 C7.489999771118164,12.489999771118164 7.489999771118164,12.489999771118164 7.489999771118164,12.489999771118164z"></path><g opacity="1" transform="matrix(1,0,0,1,0,0)"></g><g opacity="1" transform="matrix(1,0,0,1,0,0)"></g></g></g></g><g transform="matrix(1,0,0,1,-4,-4)" opacity="1" style="display: block;"><g opacity="1" transform="matrix(1,0,0,1,5,5)"><g opacity="1" transform="matrix(1,0,0,1,0,0)"><path stroke-linecap="round" stroke-linejoin="miter" fill-opacity="0" stroke-miterlimit="4" stroke="rgb(255,255,255)" stroke-opacity="1" stroke-width="1" d=" M12.8100004196167,2.190000057220459 C11.446999549865723,0.8370000123977661 9.564000129699707,0 7.489999771118164,0 C5.415999889373779,0 3.5429999828338623,0.8370000123977661 2.190000057220459,2.190000057220459 C0.8370000123977661,3.5429999828338623 0,5.426000118255615 0,7.489999771118164 C0,9.553999900817871 0.8370000123977661,11.446999549865723 2.190000057220459,12.8100004196167 C3.5429999828338623,14.163000106811523 5.426000118255615,15 7.489999771118164,15 C9.553999900817871,15 11.446999549865723,14.163000106811523 12.8100004196167,12.8100004196167 C14.163000106811523,11.446999549865723 15,9.564000129699707 15,7.489999771118164 C15,5.415999889373779 14.163000106811523,3.5429999828338623 12.8100004196167,2.190000057220459 C12.8100004196167,2.190000057220459 12.8100004196167,2.190000057220459 12.8100004196167,2.190000057220459 C12.8100004196167,2.190000057220459 12.8100004196167,2.190000057220459 12.8100004196167,2.190000057220459z M7.489999771118164,12.489999771118164 C6.10699987411499,12.489999771118164 4.881999969482422,11.932000160217285 3.9700000286102295,11.029999732971191 C3.058000087738037,10.137999534606934 2.490000009536743,8.873000144958496 2.490000009536743,7.489999771118164 C2.490000009536743,6.10699987411499 3.058000087738037,4.872000217437744 3.9600000381469727,3.9600000381469727 C4.872000217437744,3.058000087738037 6.10699987411499,2.490000009536743 7.489999771118164,2.490000009536743 C8.873000144958496,2.490000009536743 10.137999534606934,3.058000087738037 11.029999732971191,3.9700000286102295 C11.932000160217285,4.881999969482422 12.489999771118164,6.10699987411499 12.489999771118164,7.489999771118164 C12.489999771118164,8.873000144958496 11.932000160217285,10.128000259399414 11.029999732971191,11.029999732971191 C10.128000259399414,11.932000160217285 8.873000144958496,12.489999771118164 7.489999771118164,12.489999771118164 C7.489999771118164,12.489999771118164 7.489999771118164,12.489999771118164 7.489999771118164,12.489999771118164 C7.489999771118164,12.489999771118164 7.489999771118164,12.489999771118164 7.489999771118164,12.489999771118164z"></path><g opacity="1" transform="matrix(1,0,0,1,0,0)"></g><g opacity="1" transform="matrix(1,0,0,1,0,0)"></g></g></g></g><g transform="matrix(1,0,0,1,-4,-4)" opacity="1" style="display: block;"><g opacity="1" transform="matrix(1,0,0,1,12.489999771118164,17.5)"><path fill="rgb(0,0,0)" fill-opacity="0" d=" M0,2.509999990463257 C0,1.6749999523162842 0,0.8349999785423279 0,0"></path></g></g><g transform="matrix(1,0,0,1,-4,-4)" opacity="1" style="display: block;"><g opacity="1" transform="matrix(1,0,0,1,12.489999771118164,17.5)"><path stroke-linecap="round" stroke-linejoin="miter" fill-opacity="0" stroke-miterlimit="4" stroke="rgb(255,255,255)" stroke-opacity="1" stroke-width="1" d=" M0,2.509999990463257 C0,1.6749999523162842 0,0.8349999785423279 0,0"></path></g></g><g transform="matrix(1,0,0,1,-4,-4)" opacity="1" style="display: block;"><g opacity="1" transform="matrix(1,0,0,1,12.489999771118164,5)"><path fill="rgb(0,0,0)" fill-opacity="0" d=" M0,2.490000009536743 C0,1.6579999923706055 0,0.8320000171661377 0,0"></path></g></g><g transform="matrix(1,0,0,1,-4,-4)" opacity="1" style="display: block;"><g opacity="1" transform="matrix(1,0,0,1,12.489999771118164,5)"><path stroke-linecap="round" stroke-linejoin="miter" fill-opacity="0" stroke-miterlimit="4" stroke="rgb(255,255,255)" stroke-opacity="1" stroke-width="1" d=" M0,2.490000009536743 C0,1.6579999923706055 0,0.8320000171661377 0,0"></path></g></g><g transform="matrix(1,0,0,1,-4,-4)" opacity="1" style="display: block;"><g opacity="1" transform="matrix(1,0,0,1,17.5,12.489999771118164)"><path fill="rgb(0,0,0)" fill-opacity="0" d=" M2.509999990463257,0 C1.6749999523162842,0 0.8349999785423279,0 0,0"></path></g></g><g transform="matrix(1,0,0,1,-4,-4)" opacity="1" style="display: block;"><g opacity="1" transform="matrix(1,0,0,1,17.5,12.489999771118164)"><path stroke-linecap="round" stroke-linejoin="miter" fill-opacity="0" stroke-miterlimit="4" stroke="rgb(255,255,255)" stroke-opacity="1" stroke-width="1" d=" M2.509999990463257,0 C1.6749999523162842,0 0.8349999785423279,0 0,0"></path></g></g><g transform="matrix(1,0,0,1,-4,-4)" opacity="1" style="display: block;"><g opacity="1" transform="matrix(1,0,0,1,5,12.489999771118164)"><path fill="rgb(0,0,0)" fill-opacity="0" d=" M2.490000009536743,0 C1.6579999923706055,0 0.8320000171661377,0 0,0"></path></g></g><g transform="matrix(1,0,0,1,-4,-4)" opacity="1" style="display: block;"><g opacity="1" transform="matrix(1,0,0,1,5,12.489999771118164)"><path stroke-linecap="round" stroke-linejoin="miter" fill-opacity="0" stroke-miterlimit="4" stroke="rgb(255,255,255)" stroke-opacity="1" stroke-width="1" d=" M2.490000009536743,0 C1.6579999923706055,0 0.8320000171661377,0 0,0"></path></g></g><g transform="matrix(1,0,0,1,-4,-4)" opacity="1" style="display: block;"><g opacity="1" transform="matrix(1,0,0,1,16.030000686645508,7.190000057220459)"><path fill="rgb(0,0,0)" fill-opacity="0" d=" M1.7699999809265137,0 C1.1790000200271606,0.5910000205039978 0.5910000205039978,1.1790000200271606 0,1.7699999809265137"></path></g></g><g transform="matrix(1,0,0,1,-4,-4)" opacity="1" style="display: block;"><g opacity="1" transform="matrix(1,0,0,1,16.030000686645508,7.190000057220459)"><path stroke-linecap="round" stroke-linejoin="miter" fill-opacity="0" stroke-miterlimit="4" stroke="rgb(255,255,255)" stroke-opacity="1" stroke-width="1" d=" M1.7699999809265137,0 C1.1790000200271606,0.5910000205039978 0.5910000205039978,1.1790000200271606 0,1.7699999809265137"></path></g></g><g transform="matrix(1,0,0,1,-4,-4)" opacity="1" style="display: block;"><g opacity="1" transform="matrix(1,0,0,1,7.190000057220459,16.030000686645508)"><path fill="rgb(0,0,0)" fill-opacity="0" d=" M1.7699999809265137,0 C1.1790000200271606,0.5910000205039978 0.5910000205039978,1.1790000200271606 0,1.7699999809265137"></path></g></g><g transform="matrix(1,0,0,1,-4,-4)" opacity="1" style="display: block;"><g opacity="1" transform="matrix(1,0,0,1,7.190000057220459,16.030000686645508)"><path stroke-linecap="round" stroke-linejoin="miter" fill-opacity="0" stroke-miterlimit="4" stroke="rgb(255,255,255)" stroke-opacity="1" stroke-width="1" d=" M1.7699999809265137,0 C1.1790000200271606,0.5910000205039978 0.5910000205039978,1.1790000200271606 0,1.7699999809265137"></path></g></g><g transform="matrix(1,0,0,1,-4,-4)" opacity="1" style="display: block;"><g opacity="1" transform="matrix(1,0,0,1,7.199999809265137,7.199999809265137)"><path fill="rgb(0,0,0)" fill-opacity="0" d=" M1.7599999904632568,1.7599999904632568 C1.1720000505447388,1.1720000505447388 0.5879999995231628,0.5879999995231628 0,0"></path></g></g><g transform="matrix(1,0,0,1,-4,-4)" opacity="1" style="display: block;"><g opacity="1" transform="matrix(1,0,0,1,7.199999809265137,7.199999809265137)"><path stroke-linecap="round" stroke-linejoin="miter" fill-opacity="0" stroke-miterlimit="4" stroke="rgb(255,255,255)" stroke-opacity="1" stroke-width="1" d=" M1.7599999904632568,1.7599999904632568 C1.1720000505447388,1.1720000505447388 0.5879999995231628,0.5879999995231628 0,0"></path></g></g><g transform="matrix(1,0,0,1,-4,-4)" opacity="1" style="display: block;"><g opacity="1" transform="matrix(1,0,0,1,16.030000686645508,16.030000686645508)"><path fill="rgb(0,0,0)" fill-opacity="0" d=" M1.7699999809265137,1.7699999809265137 C1.1790000200271606,1.1790000200271606 0.5910000205039978,0.5910000205039978 0,0"></path></g></g><g transform="matrix(1,0,0,1,-4,-4)" opacity="1" style="display: block;"><g opacity="1" transform="matrix(1,0,0,1,16.030000686645508,16.030000686645508)"><path stroke-linecap="round" stroke-linejoin="miter" fill-opacity="0" stroke-miterlimit="4" stroke="rgb(255,255,255)" stroke-opacity="1" stroke-width="1" d=" M1.7699999809265137,1.7699999809265137 C1.1790000200271606,1.1790000200271606 0.5910000205039978,0.5910000205039978 0,0"></path></g></g><g transform="matrix(1,0,0,1,-4,-4)" opacity="1" style="display: block;"><g opacity="1" transform="matrix(1,0,0,1,5.009999752044678,7.200000286102295)"><path fill="rgb(255,255,255)" fill-opacity="1" d=" M0.44999998807907104,5.309999942779541 C0.29899999499320984,5.250999927520752 0.1509999930858612,5.189000129699707 0,5.130000114440918 C0.25,4.008999824523926 0.5,2.88100004196167 0.75,1.7599999904632568 C1.2309999465942383,1.1720000505447388 1.7089999914169312,0.5879999995231628 2.190000057220459,0 C2.687999963760376,0.49799999594688416 3.191999912261963,0.9919999837875366 3.690000057220459,1.4900000095367432 C3.5910000801086426,1.934000015258789 3.489000082015991,2.385999917984009 3.390000104904175,2.8299999237060547 C3.1010000705718994,3.4779999256134033 2.809000015258789,4.122000217437744 2.5199999809265137,4.769999980926514 C2.4100000858306885,4.9029998779296875 2.299999952316284,5.0370001792907715 2.190000057220459,5.170000076293945 C1.6100000143051147,5.216000080108643 1.0299999713897705,5.263999938964844 0.44999998807907104,5.309999942779541 C0.44999998807907104,5.309999942779541 0.44999998807907104,5.309999942779541 0.44999998807907104,5.309999942779541 C0.44999998807907104,5.309999942779541 0.44999998807907104,5.309999942779541 0.44999998807907104,5.309999942779541z"></path></g></g><g transform="matrix(1,0,0,1,-4,-4)" opacity="1" style="display: block;"><g opacity="1" transform="matrix(1,0,0,1,7.190000057220459,16.040000915527344)"><path fill="rgb(255,255,255)" fill-opacity="1" d=" M1.7699999809265137,0 C1.1790000200271606,0.5910000205039978 0.5910000205039978,1.1790000200271606 0,1.7699999809265137 C0,1.7699999809265137 1.0369999408721924,2.5420000553131104 1.7699999809265137,2.9000000953674316 C2.503000020980835,3.257999897003174 4.070000171661377,3.9700000286102295 4.070000171661377,3.9700000286102295 C4.070000171661377,3.9700000286102295 4.869999885559082,3.9100000858306885 4.869999885559082,3.8499999046325684 C4.869999885559082,3.7899999618530273 5.300000190734863,3.430000066757202 5.300000190734863,3.430000066757202 C5.300000190734863,2.7739999294281006 5.300000190734863,2.115999937057495 5.300000190734863,1.4600000381469727 C4.526000022888184,1.2680000066757202 3.753999948501587,1.0820000171661377 2.9800000190734863,0.8899999856948853 C2.5789999961853027,0.593999981880188 2.1710000038146973,0.29600000381469727 1.7699999809265137,0 C1.7699999809265137,0 1.7699999809265137,0 1.7699999809265137,0 C1.7699999809265137,0 1.7699999809265137,0 1.7699999809265137,0z"></path></g></g><g transform="matrix(1,0,0,1,-4,-4)" opacity="1" style="display: block;"><g opacity="1" transform="matrix(1,0,0,1,16.040000915527344,12.5)"><path fill="rgb(255,255,255)" fill-opacity="1" d=" M0,3.5299999713897705 C0.6480000019073486,4.190999984741211 1.2920000553131104,4.859000205993652 1.940000057220459,5.519999980926514 C2.615000009536743,4.414999961853027 3.2950000762939453,3.305000066757202 3.9700000286102295,2.200000047683716 C3.9700000286102295,1.565000057220459 3.9700000286102295,0.9350000023841858 3.9700000286102295,0.30000001192092896 C3.6459999084472656,0.20100000500679016 3.3239998817443848,0.0989999994635582 3,0 C2.5929999351501465,0.03999999910593033 2.177000045776367,0.07999999821186066 1.7699999809265137,0.11999999731779099 C1.5420000553131104,0.9200000166893005 1.3179999589920044,1.7200000286102295 1.090000033378601,2.5199999809265137 C0.7269999980926514,2.8570001125335693 0.3630000054836273,3.193000078201294 0,3.5299999713897705 C0,3.5299999713897705 0,3.5299999713897705 0,3.5299999713897705 C0,3.5299999713897705 0,3.5299999713897705 0,3.5299999713897705z"></path></g></g><g transform="matrix(1,0,0,1,-4,-4)" opacity="1" style="display: block;"><g opacity="1" transform="matrix(1,0,0,1,12.489999771118164,5)"><path fill="rgb(255,255,255)" fill-opacity="1" d=" M3.5399999618530273,4.230000019073486 C4.13100004196167,3.552999973297119 4.718999862670898,2.867000102996826 5.309999942779541,2.190000057220459 C4.718999862670898,1.6770000457763672 4.13100004196167,1.1629999876022339 3.5399999618530273,0.6499999761581421 C2.5999999046325684,0.4320000112056732 1.659999966621399,0.21799999475479126 0.7200000286102295,0 C0.48100000619888306,0 0.23899999260902405,0 0,0 C0,0.8320000171661377 0,1.6579999923706055 0,2.490000009536743 C0.550000011920929,2.63700008392334 1.100000023841858,2.7929999828338623 1.649999976158142,2.940000057220459 C2.2790000438690186,3.369999885559082 2.9110000133514404,3.799999952316284 3.5399999618530273,4.230000019073486 C3.5399999618530273,4.230000019073486 3.5399999618530273,4.230000019073486 3.5399999618530273,4.230000019073486 C3.5399999618530273,4.230000019073486 3.5399999618530273,4.230000019073486 3.5399999618530273,4.230000019073486z"></path></g></g></g></g></g></g></svg>